SplineFontDB: 3.2
FontName: knrra58
FullName: knrra58
FamilyName: knrra58
Weight: Book
Copyright: (c) 2005 Kamban Software. All rights reserved.
Version: 0.8 April, 2005, Beta release
ItalicAngle: 0
UnderlinePosition: -380
UnderlineWidth: 120
Ascent: 1638
Descent: 410
InvalidEm: 0
sfntRevision: 0x00010000
LayerCount: 2
Layer: 0 1 "Back" 1
Layer: 1 1 "Fore" 0
XUID: [1021 467 -1121320856 8315873]
StyleMap: 0x0040
FSType: 0
OS2Version: 1
OS2_WeightWidthSlopeOnly: 0
OS2_UseTypoMetrics: 0
CreationTime: 1093622528
ModificationTime: 1672892101
PfmFamily: 81
TTFWeight: 400
TTFWidth: 5
LineGap: 0
VLineGap: 0
Panose: 0 0 4 0 0 0 0 0 0 0
OS2TypoAscent: 1638
OS2TypoAOffset: 0
OS2TypoDescent: -410
OS2TypoDOffset: 0
OS2TypoLinegap: 0
OS2WinAscent: 2229
OS2WinAOffset: 0
OS2WinDescent: 840
OS2WinDOffset: 0
HheadAscent: 2228
HheadAOffset: 0
HheadDescent: -1429
HheadDOffset: 0
OS2SubXSize: 1434
OS2SubYSize: 1331
OS2SubXOff: 0
OS2SubYOff: 293
OS2SupXSize: 1434
OS2SupYSize: 1331
OS2SupXOff: 0
OS2SupYOff: 928
OS2StrikeYSize: 102
OS2StrikeYPos: 400
OS2Vendor: 'PfEd'
OS2CodePages: 00000001.00000000
OS2UnicodeRanges: 80f08047.00002040.00000000.00000000
Lookup: 4 0 0 "'nukt' Nukta Forms in Devanagari lookup 0" { "'nukt' Nukta Forms in Devanagari lookup 0 subtable"  } ['nukt' ('deva' <'dflt' > ) ]
Lookup: 4 0 0 "'akhn' Akhand in Devanagari lookup 1" { "'akhn' Akhand in Devanagari lookup 1 subtable"  } ['akhn' ('deva' <'dflt' > ) ]
Lookup: 4 0 0 "'rphf' Reph Form in Devanagari lookup 2" { "'rphf' Reph Form in Devanagari lookup 2 subtable"  } ['rphf' ('deva' <'dflt' > ) ]
Lookup: 4 0 0 "'blwf' Below Base Forms in Devanagari lookup 3" { "'blwf' Below Base Forms in Devanagari lookup 3 subtable"  } ['blwf' ('deva' <'dflt' > ) ]
Lookup: 4 0 0 "'half' Half Forms in Devanagari lookup 4" { "'half' Half Forms in Devanagari lookup 4 subtable"  } ['half' ('deva' <'dflt' > ) ]

StartChar: .notdef
Encoding: 65536 -1 0
Width: 1024
GlyphClass: 2
Flags: W
LayerCount: 2
Fore
SplineSet
128 0 m 1,0,-1
 128 2048 l 1,1,-1
 896 2048 l 1,2,-1
 896 0 l 1,3,-1
 128 0 l 1,0,-1
256 128 m 1,4,-1
 768 128 l 1,5,-1
 768 1920 l 1,6,-1
 256 1920 l 1,7,-1
 256 128 l 1,4,-1
EndSplineSet
EndChar

StartChar: exclam
Encoding: 33 33 4
Width: 569
Flags: W
LayerCount: 2
Fore
SplineSet
231 365 m 1,0,-1
 176 1141 l 1,1,-1
 176 1466 l 1,2,-1
 399 1466 l 1,3,-1
 399 1141 l 1,4,-1
 346 365 l 1,5,-1
 231 365 l 1,0,-1
184 0 m 1,6,-1
 184 205 l 1,7,-1
 391 205 l 1,8,-1
 391 0 l 1,9,-1
 184 0 l 1,6,-1
EndSplineSet
EndChar

StartChar: quotedbl
Encoding: 34 34 5
Width: 727
Flags: W
LayerCount: 2
Fore
SplineSet
143 946 m 1,0,-1
 94 1227 l 1,1,-1
 94 1466 l 1,2,-1
 299 1466 l 1,3,-1
 299 1227 l 1,4,-1
 254 946 l 1,5,-1
 143 946 l 1,0,-1
475 946 m 1,6,-1
 426 1227 l 1,7,-1
 426 1466 l 1,8,-1
 631 1466 l 1,9,-1
 631 1227 l 1,10,-1
 584 946 l 1,11,-1
 475 946 l 1,6,-1
EndSplineSet
EndChar

StartChar: numbersign
Encoding: 35 35 6
Width: 1138
Flags: W
LayerCount: 2
Fore
SplineSet
102 -24 m 1,0,-1
 190 401 l 1,1,-1
 20 401 l 1,2,-1
 20 551 l 1,3,-1
 219 551 l 1,4,-1
 295 913 l 1,5,-1
 20 913 l 1,6,-1
 20 1063 l 1,7,-1
 324 1063 l 1,8,-1
 412 1491 l 1,9,-1
 561 1491 l 1,10,-1
 473 1063 l 1,11,-1
 788 1063 l 1,12,-1
 877 1491 l 1,13,-1
 1026 1491 l 1,14,-1
 940 1063 l 1,15,-1
 1112 1063 l 1,16,-1
 1112 913 l 1,17,-1
 909 913 l 1,18,-1
 836 551 l 1,19,-1
 1112 551 l 1,20,-1
 1112 401 l 1,21,-1
 805 401 l 1,22,-1
 719 -24 l 1,23,-1
 567 -24 l 1,24,-1
 653 401 l 1,25,-1
 340 401 l 1,26,-1
 254 -24 l 1,27,-1
 102 -24 l 1,0,-1
371 551 m 1,28,-1
 684 551 l 1,29,-1
 760 913 l 1,30,-1
 444 913 l 1,31,-1
 371 551 l 1,28,-1
EndSplineSet
EndChar

StartChar: dollar
Encoding: 36 36 7
Width: 980
Flags: W
LayerCount: 2
Fore
SplineSet
123 307 m 1,0,-1
 188 307 l 1,1,2
 201 193 201 193 264 130 c 0,3,4
 326 68 326 68 430 55 c 1,5,-1
 430 625 l 1,6,7
 213 752 213 752 152 832 c 0,8,9
 92 913 92 913 92 1020 c 0,10,11
 92 1157 92 1157 186 1260 c 0,12,13
 281 1362 281 1362 430 1386 c 1,14,-1
 430 1495 l 1,15,-1
 522 1495 l 1,16,-1
 522 1391 l 1,17,18
 637 1391 637 1391 717 1370 c 0,19,20
 801 1352 801 1352 872 1305 c 1,21,22
 834 1192 834 1192 807 1057 c 1,23,-1
 739 1057 l 1,24,25
 739 1168 739 1168 698 1229 c 1,26,27
 668 1266 668 1266 624 1286 c 0,28,29
 580 1305 580 1305 522 1305 c 1,30,-1
 522 788 l 1,31,32
 754 664 754 664 826 574 c 0,33,34
 897 483 897 483 897 371 c 0,35,36
 897 229 897 229 798 118 c 0,37,38
 698 6 698 6 522 -32 c 1,39,-1
 522 -196 l 1,40,-1
 430 -196 l 1,41,-1
 430 -40 l 1,42,43
 367 -40 367 -40 337 -38 c 128,-1,44
 307 -36 307 -36 256 -24 c 0,45,46
 186 -12 186 -12 74 25 c 1,47,-1
 104 164 l 1,48,-1
 123 307 l 1,0,-1
430 1296 m 1,49,50
 348 1280 348 1280 302 1228 c 128,-1,51
 256 1176 256 1176 256 1094 c 0,52,53
 256 1022 256 1022 293 964 c 0,54,55
 330 905 330 905 430 846 c 1,56,-1
 430 1296 l 1,49,50
522 61 m 1,57,58
 618 80 618 80 670 144 c 0,59,60
 721 207 721 207 721 301 c 0,61,62
 721 385 721 385 674 450 c 0,63,64
 627 516 627 516 522 571 c 1,65,-1
 522 61 l 1,57,58
EndSplineSet
EndChar

StartChar: percent
Encoding: 37 37 8
Width: 1820
Flags: W
LayerCount: 2
Fore
SplineSet
119 1114 m 0,0,1
 119 1270 119 1270 198 1380 c 0,2,3
 276 1491 276 1491 426 1491 c 0,4,5
 565 1491 565 1491 655 1392 c 0,6,7
 745 1292 745 1292 745 1104 c 0,8,9
 745 915 745 915 654 816 c 128,-1,10
 563 717 563 717 428 717 c 0,11,12
 297 717 297 717 208 816 c 128,-1,13
 119 915 119 915 119 1114 c 0,0,1
432 1366 m 0,14,15
 365 1366 365 1366 320 1310 c 0,16,17
 276 1253 276 1253 276 1096 c 0,18,19
 276 954 276 954 320 897 c 0,20,21
 365 840 365 840 432 840 c 0,22,23
 500 840 500 840 545 899 c 128,-1,24
 590 958 590 958 590 1110 c 0,25,26
 590 1247 590 1247 545 1306 c 0,27,28
 500 1366 500 1366 432 1366 c 0,14,15
432 -53 m 1,29,-1
 1235 1491 l 1,30,-1
 1380 1491 l 1,31,-1
 582 -53 l 1,32,-1
 432 -53 l 1,29,-1
1067 344 m 0,33,34
 1067 502 1067 502 1146 612 c 0,35,36
 1225 721 1225 721 1376 721 c 0,37,38
 1513 721 1513 721 1604 622 c 0,39,40
 1696 524 1696 524 1696 334 c 0,41,42
 1696 150 1696 150 1604 48 c 0,43,44
 1511 -53 1511 -53 1376 -53 c 0,45,46
 1245 -53 1245 -53 1156 46 c 128,-1,47
 1067 145 1067 145 1067 344 c 0,33,34
1380 598 m 0,48,49
 1315 598 1315 598 1270 540 c 0,50,51
 1225 483 1225 483 1225 326 c 0,52,53
 1225 186 1225 186 1269 128 c 128,-1,54
 1313 70 1313 70 1380 70 c 0,55,56
 1448 70 1448 70 1493 129 c 0,57,58
 1538 182 1538 182 1538 340 c 0,59,60
 1538 481 1538 481 1492 540 c 0,61,62
 1446 598 1446 598 1380 598 c 0,48,49
EndSplineSet
EndChar

StartChar: ampersand
Encoding: 38 38 9
Width: 1366
Flags: W
LayerCount: 2
Fore
SplineSet
973 172 m 1,0,1
 883 72 883 72 778 24 c 0,2,3
 674 -24 674 -24 553 -24 c 0,4,5
 326 -24 326 -24 195 127 c 0,6,7
 88 252 88 252 88 403 c 0,8,9
 88 539 88 539 175 650 c 0,10,11
 262 760 262 760 436 842 c 1,12,13
 340 952 340 952 306 1023 c 128,-1,14
 272 1094 272 1094 272 1163 c 0,15,16
 272 1296 272 1296 375.5 1393.5 c 128,-1,17
 479 1491 479 1491 637 1491 c 0,18,19
 784 1491 784 1491 880 1399 c 0,20,21
 977 1307 977 1307 977 1178 c 0,22,23
 977 969 977 969 700 821 c 1,24,-1
 963 485 l 1,25,26
 1008 571 1008 571 1032 690 c 1,27,-1
 1221 649 l 1,28,29
 1171 459 1171 459 1090 334 c 1,30,31
 1194 199 1194 199 1319 109 c 1,32,-1
 1198 -34 l 1,33,34
 1090 37 1090 37 973 172 c 1,0,1
606 938 m 1,35,36
 723 1006 723 1006 758 1058 c 128,-1,37
 793 1110 793 1110 793 1174 c 0,38,39
 793 1247 793 1247 746 1295 c 0,40,41
 698 1343 698 1343 627 1343 c 0,42,43
 557 1343 557 1343 507 1296 c 128,-1,44
 457 1249 457 1249 457 1182 c 0,45,46
 457 1149 457 1149 473 1113 c 128,-1,47
 489 1077 489 1077 526 1030 c 2,48,-1
 606 938 l 1,35,36
860 315 m 1,49,-1
 530 725 l 1,50,51
 385 637 385 637 334 563 c 128,-1,52
 283 489 283 489 283 416 c 0,53,54
 283 326 283 326 354 230 c 0,55,56
 424 133 424 133 555 133 c 0,57,58
 637 133 637 133 723 184 c 0,59,60
 809 236 809 236 860 315 c 1,49,-1
EndSplineSet
EndChar

StartChar: quotesingle
Encoding: 39 39 10
Width: 391
Flags: W
LayerCount: 2
Fore
SplineSet
135 946 m 1,0,-1
 90 1221 l 1,1,-1
 90 1466 l 1,2,-1
 295 1466 l 1,3,-1
 295 1221 l 1,4,-1
 248 946 l 1,5,-1
 135 946 l 1,0,-1
EndSplineSet
EndChar

StartChar: parenleft
Encoding: 40 40 11
Width: 681
Flags: W
LayerCount: 2
Fore
SplineSet
479 -430 m 1,0,1
 332 -241 332 -241 228 10 c 0,2,3
 125 262 125 262 125 530 c 0,4,5
 125 772 125 772 201 987 c 0,6,7
 291 1241 291 1241 479 1491 c 1,8,-1
 608 1491 l 1,9,10
 492 1292 492 1292 449 1194 c 0,11,12
 391 1067 391 1067 350 894 c 128,-1,13
 309 721 309 721 309 530 c 0,14,15
 309 45 309 45 608 -430 c 1,16,-1
 479 -430 l 1,0,1
EndSplineSet
EndChar

StartChar: parenright
Encoding: 41 41 12
Width: 681
Flags: W
LayerCount: 2
Fore
SplineSet
254 -430 m 1,0,-1
 125 -430 l 1,1,2
 424 51 424 51 424 530 c 0,3,4
 424 715 424 715 381 903 c 0,5,6
 346 1063 346 1063 285 1192 c 0,7,8
 248 1272 248 1272 207 1350 c 2,9,-1
 125 1491 l 1,10,-1
 254 1491 l 1,11,12
 346 1368 346 1368 416 1241 c 0,13,14
 485 1114 485 1114 530 987 c 0,15,16
 608 766 608 766 608 530 c 0,17,18
 608 260 608 260 506 10 c 0,19,20
 403 -239 403 -239 254 -430 c 1,0,-1
EndSplineSet
EndChar

StartChar: asterisk
Encoding: 42 42 13
Width: 796
Flags: W
LayerCount: 2
Fore
SplineSet
63 1196 m 1,0,-1
 111 1339 l 1,1,2
 270 1284 270 1284 342 1241 c 1,3,-1
 322 1491 l 1,4,-1
 467 1491 l 1,5,6
 467 1436 467 1436 460 1374 c 0,7,8
 453 1313 453 1313 442 1243 c 1,9,10
 485 1266 485 1266 546 1290 c 0,11,12
 608 1315 608 1315 680 1339 c 1,13,-1
 725 1196 l 1,14,15
 600 1157 600 1157 475 1141 c 1,16,17
 535 1092 535 1092 647 952 c 1,18,-1
 528 866 l 1,19,20
 467 950 467 950 391 1081 c 1,21,22
 319 946 319 946 260 866 c 1,23,-1
 143 952 l 1,24,25
 260 1098 260 1098 309 1141 c 1,26,27
 180 1165 180 1165 63 1196 c 1,0,-1
EndSplineSet
EndChar

StartChar: plus
Encoding: 43 43 14
Width: 1196
Flags: W
LayerCount: 2
Fore
SplineSet
512 238 m 1,0,-1
 512 639 l 1,1,-1
 115 639 l 1,2,-1
 115 807 l 1,3,-1
 512 807 l 1,4,-1
 512 1206 l 1,5,-1
 682 1206 l 1,6,-1
 682 807 l 1,7,-1
 1081 807 l 1,8,-1
 1081 639 l 1,9,-1
 682 639 l 1,10,-1
 682 238 l 1,11,-1
 512 238 l 1,0,-1
EndSplineSet
EndChar

StartChar: comma
Encoding: 44 44 15
Width: 569
Flags: W
LayerCount: 2
Fore
SplineSet
182 0 m 1,0,-1
 182 205 l 1,1,-1
 387 205 l 1,2,-1
 387 0 l 2,3,4
 387 -114 387 -114 346 -182 c 0,5,6
 309 -249 309 -249 219 -290 c 1,7,-1
 170 -212 l 1,8,9
 225 -190 225 -190 255 -136 c 0,10,11
 285 -83 285 -83 285 0 c 1,12,-1
 182 0 l 1,0,-1
EndSplineSet
EndChar

StartChar: hyphen
Encoding: 45 45 16
Width: 681
Flags: W
LayerCount: 2
Fore
SplineSet
66 440 m 1,0,-1
 66 621 l 1,1,-1
 618 621 l 1,2,-1
 618 440 l 1,3,-1
 66 440 l 1,0,-1
EndSplineSet
EndChar

StartChar: period
Encoding: 46 46 17
Width: 569
Flags: W
LayerCount: 2
Fore
SplineSet
186 0 m 1,0,-1
 186 205 l 1,1,-1
 391 205 l 1,2,-1
 391 0 l 1,3,-1
 186 0 l 1,0,-1
EndSplineSet
EndChar

StartChar: slash
Encoding: 47 47 18
Width: 569
Flags: W
LayerCount: 2
Fore
SplineSet
0 -24 m 1,0,-1
 426 1491 l 1,1,-1
 569 1491 l 1,2,-1
 145 -24 l 1,3,-1
 0 -24 l 1,0,-1
EndSplineSet
EndChar

StartChar: zero
Encoding: 48 48 19
Width: 1138
Flags: W
LayerCount: 2
Fore
SplineSet
86 723 m 0,0,1
 86 985 86 985 138 1140 c 0,2,3
 190 1296 190 1296 296 1384 c 0,4,5
 401 1473 401 1473 563 1473 c 0,6,7
 680 1473 680 1473 770 1424 c 0,8,9
 860 1376 860 1376 916 1287 c 0,10,11
 973 1198 973 1198 1006 1071 c 0,12,13
 1040 944 1040 944 1040 723 c 0,14,15
 1040 590 1040 590 1028 488 c 0,16,17
 1016 387 1016 387 987 305 c 0,18,19
 936 152 936 152 830 64 c 0,20,21
 725 -24 725 -24 563 -24 c 0,22,23
 350 -24 350 -24 229 127 c 0,24,25
 86 309 86 309 86 723 c 0,0,1
270 723 m 0,26,27
 270 367 270 367 354 245 c 128,-1,28
 438 123 438 123 563 123 c 0,29,30
 686 123 686 123 771 244 c 128,-1,31
 856 365 856 365 856 723 c 0,32,33
 856 1083 856 1083 771 1203 c 128,-1,34
 686 1323 686 1323 561 1323 c 0,35,36
 440 1323 440 1323 362 1219 c 1,37,38
 270 1083 270 1083 270 723 c 0,26,27
EndSplineSet
EndChar

StartChar: one
Encoding: 49 49 20
Width: 1138
Flags: W
LayerCount: 2
Fore
SplineSet
764 0 m 1,0,-1
 584 0 l 1,1,-1
 584 1147 l 1,2,3
 520 1085 520 1085 412 1024 c 0,4,5
 367 995 367 995 314 970 c 0,6,7
 260 944 260 944 223 930 c 1,8,-1
 223 1104 l 1,9,10
 375 1176 375 1176 486 1277 c 0,11,12
 598 1378 598 1378 647 1473 c 1,13,-1
 764 1473 l 1,14,-1
 764 0 l 1,0,-1
EndSplineSet
EndChar

StartChar: two
Encoding: 50 50 21
Width: 1138
Flags: W
LayerCount: 2
Fore
SplineSet
1030 172 m 1,0,-1
 1030 0 l 1,1,-1
 61 0 l 1,2,3
 61 39 61 39 65.5 64.5 c 128,-1,4
 70 90 70 90 84 125 c 0,5,6
 119 225 119 225 201 322 c 0,7,8
 283 418 283 418 436 543 c 0,9,10
 672 733 672 733 758 850 c 128,-1,11
 844 967 844 967 844 1069 c 0,12,13
 844 1176 844 1176 767 1250 c 0,14,15
 690 1323 690 1323 567 1323 c 0,16,17
 442 1323 442 1323 362 1245 c 0,18,19
 281 1167 281 1167 281 1028 c 1,20,-1
 96 1049 l 1,21,22
 115 1253 115 1253 240 1363 c 128,-1,23
 365 1473 365 1473 571 1473 c 0,24,25
 782 1473 782 1473 905 1356 c 128,-1,26
 1028 1239 1028 1239 1028 1065 c 0,27,28
 1028 975 1028 975 992 890 c 128,-1,29
 956 805 956 805 873.5 713 c 128,-1,30
 791 621 791 621 596 455 c 2,31,-1
 492 367 l 2,32,33
 428 311 428 311 387 270 c 0,34,35
 369 250 369 250 348 224 c 2,36,-1
 311 172 l 1,37,-1
 1030 172 l 1,0,-1
EndSplineSet
EndChar

StartChar: three
Encoding: 51 51 22
Width: 1138
Flags: W
LayerCount: 2
Fore
SplineSet
86 387 m 1,0,-1
 266 412 l 1,1,2
 297 258 297 258 373 190 c 0,3,4
 449 123 449 123 553 123 c 0,5,6
 680 123 680 123 767 210 c 128,-1,7
 854 297 854 297 854 428 c 0,8,9
 854 553 854 553 773 634 c 128,-1,10
 692 715 692 715 567 715 c 0,11,12
 514 715 514 715 440 694 c 1,13,-1
 461 852 l 1,14,-1
 489 850 l 1,15,16
 602 850 602 850 695 910 c 0,17,18
 788 971 788 971 788 1096 c 0,19,20
 788 1194 788 1194 722 1258 c 0,21,22
 657 1323 657 1323 549 1323 c 0,23,24
 494 1323 494 1323 453 1308 c 0,25,26
 412 1292 412 1292 375 1257 c 0,27,28
 307 1196 307 1196 285 1061 c 1,29,-1
 104 1092 l 1,30,31
 137 1272 137 1272 255 1372 c 0,32,33
 373 1473 373 1473 545 1473 c 0,34,35
 664 1473 664 1473 765 1422 c 0,36,37
 866 1370 866 1370 920 1280 c 0,38,39
 975 1190 975 1190 975 1092 c 0,40,41
 975 1001 975 1001 924 918 c 1,42,43
 870 840 870 840 772 795 c 1,44,45
 901 764 901 764 974 668 c 0,46,47
 1047 573 1047 573 1047 432 c 0,48,49
 1047 242 1047 242 906 108 c 0,50,51
 766 -26 766 -26 553 -26 c 0,52,53
 362 -26 362 -26 233 90 c 0,54,55
 104 207 104 207 86 387 c 1,0,-1
EndSplineSet
EndChar

StartChar: four
Encoding: 52 52 23
Width: 1138
Flags: W
LayerCount: 2
Fore
SplineSet
662 0 m 1,0,-1
 662 350 l 1,1,-1
 27 350 l 1,2,-1
 27 516 l 1,3,-1
 694 1466 l 1,4,-1
 842 1466 l 1,5,-1
 842 516 l 1,6,-1
 1040 516 l 1,7,-1
 1040 350 l 1,8,-1
 842 350 l 1,9,-1
 842 0 l 1,10,-1
 662 0 l 1,0,-1
662 516 m 1,11,-1
 662 1178 l 1,12,-1
 203 516 l 1,13,-1
 662 516 l 1,11,-1
EndSplineSet
EndChar

StartChar: five
Encoding: 53 53 24
Width: 1138
Flags: W
LayerCount: 2
Fore
SplineSet
86 385 m 1,0,-1
 274 399 l 1,1,2
 295 262 295 262 370 192 c 0,3,4
 446 123 446 123 555 123 c 0,5,6
 684 123 684 123 775 222 c 0,7,8
 866 322 866 322 866 481 c 0,9,10
 866 635 866 635 780 724 c 128,-1,11
 694 813 694 813 553 813 c 0,12,13
 463 813 463 813 395 772 c 0,14,15
 328 735 328 735 287 672 c 1,16,-1
 117 692 l 1,17,-1
 258 1446 l 1,18,-1
 987 1446 l 1,19,-1
 987 1274 l 1,20,-1
 403 1274 l 1,21,-1
 324 881 l 1,22,23
 461 973 461 973 600 973 c 0,24,25
 793 973 793 973 925 841 c 128,-1,26
 1057 709 1057 709 1057 498 c 0,27,28
 1057 297 1057 297 940 154 c 1,29,30
 801 -24 801 -24 555 -24 c 0,31,32
 356 -24 356 -24 229 86 c 0,33,34
 164 145 164 145 125 221 c 128,-1,35
 86 297 86 297 86 385 c 1,0,-1
EndSplineSet
EndChar

StartChar: six
Encoding: 54 54 25
Width: 1138
Flags: W
LayerCount: 2
Fore
SplineSet
1020 1108 m 1,0,-1
 840 1094 l 1,1,2
 813 1202 813 1202 772 1247 c 0,3,4
 702 1323 702 1323 592 1323 c 0,5,6
 506 1323 506 1323 440 1276 c 0,7,8
 360 1217 360 1217 308 1094 c 128,-1,9
 256 971 256 971 256 756 c 1,10,11
 322 854 322 854 413 902 c 128,-1,12
 504 950 504 950 612 950 c 0,13,14
 793 950 793 950 918 817 c 0,15,16
 1044 684 1044 684 1044 475 c 0,17,18
 1044 342 1044 342 985 222 c 128,-1,19
 926 102 926 102 824 39 c 0,20,21
 721 -24 721 -24 586 -24 c 0,22,23
 360 -24 360 -24 219 140 c 0,24,25
 78 305 78 305 78 686 c 0,26,27
 78 1112 78 1112 233 1305 c 0,28,29
 373 1473 373 1473 602 1473 c 0,30,31
 772 1473 772 1473 884 1376 c 0,32,33
 995 1280 995 1280 1020 1108 c 1,0,-1
285 475 m 0,34,35
 285 381 285 381 322 298 c 0,36,37
 360 215 360 215 432 169 c 128,-1,38
 504 123 504 123 584 123 c 0,39,40
 698 123 698 123 779 214 c 128,-1,41
 860 305 860 305 860 465 c 0,42,43
 860 614 860 614 778 704 c 0,44,45
 696 793 696 793 575 793 c 0,46,47
 455 793 455 793 370 703.5 c 128,-1,48
 285 614 285 614 285 475 c 0,34,35
EndSplineSet
EndChar

StartChar: seven
Encoding: 55 55 26
Width: 1138
Flags: W
LayerCount: 2
Fore
SplineSet
96 1274 m 1,0,-1
 96 1448 l 1,1,-1
 1047 1448 l 1,2,-1
 1047 1307 l 1,3,4
 979 1235 979 1235 910 1136 c 0,5,6
 840 1038 840 1038 768 911 c 0,7,8
 631 664 631 664 555 403 c 0,9,10
 514 260 514 260 500 170 c 0,11,12
 487 80 487 80 487 0 c 1,13,-1
 301 0 l 1,14,15
 301 164 301 164 371 418 c 0,16,17
 434 657 434 657 556 888 c 0,18,19
 678 1118 678 1118 815 1274 c 1,20,-1
 96 1274 l 1,0,-1
EndSplineSet
EndChar

StartChar: eight
Encoding: 56 56 27
Width: 1138
Flags: W
LayerCount: 2
Fore
SplineSet
362 795 m 1,0,1
 252 836 252 836 196 912 c 0,2,3
 141 989 141 989 141 1094 c 0,4,5
 141 1249 141 1249 256 1364 c 1,6,7
 375 1473 375 1473 563 1473 c 0,8,9
 758 1473 758 1473 874 1361 c 0,10,11
 989 1249 989 1249 989 1090 c 0,12,13
 989 989 989 989 936 914 c 0,14,15
 883 838 883 838 772 795 c 1,16,17
 909 752 909 752 979 652 c 0,18,19
 1049 553 1049 553 1049 420 c 0,20,21
 1049 229 1049 229 916 102 c 0,22,23
 782 -24 782 -24 565 -24 c 128,-1,24
 348 -24 348 -24 216 104 c 0,25,26
 84 233 84 233 84 424 c 0,27,28
 84 567 84 567 154 662 c 0,29,30
 225 758 225 758 362 795 c 1,0,1
326 1100 m 0,31,32
 326 997 326 997 392 930 c 0,33,34
 459 864 459 864 567 864 c 0,35,36
 672 864 672 864 738 930 c 0,37,38
 805 997 805 997 805 1090 c 0,39,40
 805 1186 805 1186 736 1254 c 0,41,42
 668 1323 668 1323 565 1323 c 0,43,44
 461 1323 461 1323 394 1258 c 0,45,46
 326 1192 326 1192 326 1100 c 0,31,32
268 424 m 0,47,48
 268 350 268 350 303 274 c 0,49,50
 340 203 340 203 412 163 c 0,51,52
 483 123 483 123 567 123 c 0,53,54
 698 123 698 123 780 207 c 1,55,56
 864 285 864 285 864 418 c 0,57,58
 864 543 864 543 778 633 c 1,59,60
 690 717 690 717 561 717 c 0,61,62
 438 717 438 717 350 633 c 1,63,64
 268 547 268 547 268 424 c 0,47,48
EndSplineSet
EndChar

StartChar: nine
Encoding: 57 57 28
Width: 1138
Flags: W
LayerCount: 2
Fore
SplineSet
113 340 m 1,0,-1
 285 354 l 1,1,2
 307 233 307 233 368 178 c 0,3,4
 430 123 430 123 528 123 c 0,5,6
 610 123 610 123 673.5 162 c 128,-1,7
 737 201 737 201 774 258 c 128,-1,8
 811 315 811 315 844 434 c 1,9,10
 870 551 870 551 870 653 c 1,11,-1
 868 690 l 1,12,13
 817 608 817 608 725 553 c 128,-1,14
 633 498 633 498 518 498 c 0,15,16
 340 498 340 498 213 629 c 128,-1,17
 86 760 86 760 86 977 c 0,18,19
 86 1196 86 1196 217 1334 c 0,20,21
 348 1473 348 1473 547 1473 c 0,22,23
 618 1473 618 1473 682 1454 c 0,24,25
 745 1436 745 1436 807 1395 c 0,26,27
 926 1319 926 1319 988 1176 c 0,28,29
 1049 1034 1049 1034 1049 764 c 0,30,31
 1049 481 1049 481 990 316 c 0,32,33
 930 150 930 150 807 63 c 128,-1,34
 684 -24 684 -24 524 -24 c 0,35,36
 352 -24 352 -24 244 69 c 0,37,38
 137 162 137 162 113 340 c 1,0,-1
850 985 m 256,39,40
 850 1139 850 1139 768 1231 c 128,-1,41
 686 1323 686 1323 567 1323 c 0,42,43
 451 1323 451 1323 360 1226 c 0,44,45
 270 1128 270 1128 270 971 c 0,46,47
 270 834 270 834 353 744 c 0,48,49
 436 655 436 655 563 655 c 0,50,51
 688 655 688 655 769 743 c 128,-1,52
 850 831 850 831 850 985 c 256,39,40
EndSplineSet
EndChar

StartChar: colon
Encoding: 58 58 29
Width: 575
Flags: W
LayerCount: 2
Fore
SplineSet
289 981 m 0,0,1
 332 981 332 981 365 946 c 0,2,3
 399 915 399 915 399 868 c 0,4,5
 399 823 399 823 367 788 c 1,6,7
 332 758 332 758 289 758 c 128,-1,8
 246 758 246 758 209 788 c 1,9,10
 176 821 176 821 176 868 c 0,11,12
 176 913 176 913 208 947 c 128,-1,13
 240 981 240 981 289 981 c 0,0,1
289 188 m 0,14,15
 328 188 328 188 367 156 c 1,16,17
 399 117 399 117 399 76 c 128,-1,18
 399 35 399 35 365 0 c 0,19,20
 334 -36 334 -36 289 -36 c 128,-1,21
 244 -36 244 -36 210 -4 c 0,22,23
 176 29 176 29 176 76 c 128,-1,24
 176 123 176 123 209 156 c 0,25,26
 242 188 242 188 289 188 c 0,14,15
EndSplineSet
EndChar

StartChar: semicolon
Encoding: 59 59 30
Width: 575
Flags: W
LayerCount: 2
Fore
SplineSet
289 981 m 0,0,1
 330 981 330 981 365 946 c 0,2,3
 401 915 401 915 401 868 c 0,4,5
 401 823 401 823 369 788 c 1,6,7
 334 758 334 758 289 758 c 0,8,9
 246 758 246 758 209 788 c 1,10,11
 176 821 176 821 176 868 c 128,-1,12
 176 915 176 915 211 948 c 128,-1,13
 246 981 246 981 289 981 c 0,0,1
172 10 m 1,14,-1
 141 47 l 1,15,16
 203 117 203 117 260 213 c 1,17,18
 328 195 328 195 377 131 c 0,19,20
 395 104 395 104 408 72 c 0,21,22
 420 39 420 39 420 4 c 0,23,24
 420 -178 420 -178 223 -361 c 0,25,26
 217 -366 217 -366 211 -372 c 1,27,-1
 168 -319 l 1,28,29
 291 -192 291 -192 291 -81 c 0,30,31
 291 -38 291 -38 264 -10 c 0,32,33
 244 16 244 16 209 16 c 1,34,-1
 172 10 l 1,14,-1
EndSplineSet
EndChar

StartChar: less
Encoding: 60 60 31
Width: 1366
Flags: W
LayerCount: 2
Fore
SplineSet
139 723 m 1,0,-1
 1227 1180 l 1,1,-1
 1227 1036 l 1,2,-1
 315 664 l 1,3,-1
 1227 289 l 1,4,-1
 1227 147 l 1,5,-1
 139 604 l 1,6,-1
 139 723 l 1,0,-1
EndSplineSet
EndChar

StartChar: equal
Encoding: 61 61 32
Width: 1366
Flags: W
LayerCount: 2
Fore
SplineSet
139 956 m 1,0,-1
 1227 956 l 1,1,-1
 1227 825 l 1,2,-1
 139 825 l 1,3,-1
 139 956 l 1,0,-1
139 498 m 1,4,-1
 1227 498 l 1,5,-1
 1227 367 l 1,6,-1
 139 367 l 1,7,-1
 139 498 l 1,4,-1
EndSplineSet
EndChar

StartChar: greater
Encoding: 62 62 33
Width: 1366
Flags: W
LayerCount: 2
Fore
SplineSet
1225 602 m 1,0,-1
 139 147 l 1,1,-1
 139 289 l 1,2,-1
 1049 664 l 1,3,-1
 139 1036 l 1,4,-1
 139 1180 l 1,5,-1
 1227 721 l 1,6,-1
 1225 602 l 1,0,-1
EndSplineSet
EndChar

StartChar: question
Encoding: 63 63 34
Width: 788
Flags: W
LayerCount: 2
Fore
SplineSet
119 1092 m 1,0,-1
 47 1092 l 1,1,-1
 66 1202 l 1,2,-1
 80 1329 l 1,3,4
 160 1384 160 1384 221 1409 c 1,5,6
 311 1438 311 1438 385 1438 c 0,7,8
 530 1438 530 1438 626 1346 c 0,9,10
 723 1255 723 1255 723 1124 c 0,11,12
 723 1067 723 1067 703.5 1008.5 c 128,-1,13
 684 950 684 950 657 905 c 2,14,-1
 537 735 l 2,15,16
 471 643 471 643 434 557 c 1,17,18
 410 489 410 489 387 336 c 1,19,-1
 305 336 l 1,20,21
 305 453 305 453 334 539 c 1,22,23
 344 582 344 582 370 640 c 0,24,25
 395 698 395 698 442 786 c 0,26,27
 506 905 506 905 530 985 c 2,28,-1
 543 1032 l 1,29,-1
 547 1083 l 1,30,31
 547 1176 547 1176 489 1235 c 0,32,33
 438 1292 438 1292 348 1292 c 0,34,35
 270 1292 270 1292 214 1248 c 128,-1,36
 158 1204 158 1204 119 1092 c 1,0,-1
350 188 m 0,37,38
 393 188 393 188 428 154 c 0,39,40
 463 123 463 123 463 76 c 0,41,42
 463 33 463 33 431 0 c 0,43,44
 399 -34 399 -34 350 -34 c 0,45,46
 307 -34 307 -34 274 -2 c 0,47,48
 240 31 240 31 240 76 c 0,49,50
 240 119 240 119 270 156 c 1,51,52
 309 188 309 188 350 188 c 0,37,38
EndSplineSet
EndChar

StartChar: at
Encoding: 64 64 35
Width: 1878
Flags: W
LayerCount: 2
Fore
SplineSet
1409 958 m 1,0,-1
 1290 559 l 2,1,2
 1198 240 1198 240 1198 180 c 0,3,4
 1198 152 1198 152 1217 127 c 0,5,6
 1235 109 1235 109 1274 102 c 1,7,8
 1346 102 1346 102 1446 174 c 128,-1,9
 1546 246 1546 246 1622 414 c 128,-1,10
 1698 582 1698 582 1698 756 c 0,11,12
 1698 924 1698 924 1616 1072 c 0,13,14
 1534 1219 1534 1219 1382 1294 c 0,15,16
 1231 1370 1231 1370 1049 1370 c 0,17,18
 817 1370 817 1370 622 1252 c 0,19,20
 426 1133 426 1133 308 898 c 0,21,22
 190 664 190 664 190 418 c 0,23,24
 190 303 190 303 215 199 c 0,25,26
 227 145 227 145 246 99 c 0,27,28
 264 53 264 53 293 0 c 0,29,30
 391 -184 391 -184 578 -284 c 0,31,32
 662 -327 662 -327 763 -354 c 0,33,34
 864 -380 864 -380 975 -380 c 0,35,36
 1233 -380 1233 -380 1445 -240 c 128,-1,37
 1657 -100 1657 -100 1778 172 c 1,38,-1
 1835 172 l 1,39,40
 1749 -97 1749 -97 1510 -270 c 0,41,42
 1272 -442 1272 -442 969 -442 c 0,43,44
 598 -442 598 -442 347 -188 c 128,-1,45
 96 66 96 66 96 444 c 0,46,47
 96 709 96 709 219 937 c 128,-1,48
 342 1165 342 1165 568 1293 c 0,49,50
 793 1421 793 1421 1042 1421 c 0,51,52
 1151 1421 1151 1421 1241 1401 c 0,53,54
 1286 1393 1286 1393 1329 1376 c 0,55,56
 1372 1360 1372 1360 1415 1335 c 0,57,58
 1581 1255 1581 1255 1669 1088 c 0,59,60
 1757 922 1757 922 1757 737 c 0,61,62
 1757 555 1757 555 1677 376 c 128,-1,63
 1597 197 1597 197 1470 114 c 128,-1,64
 1343 31 1343 31 1206 31 c 0,65,66
 1133 31 1133 31 1092 66 c 0,67,68
 1053 104 1053 104 1053 170 c 0,69,70
 1053 211 1053 211 1055 232 c 0,71,72
 1057 252 1057 252 1069 315 c 1,73,74
 938 154 938 154 846 92 c 0,75,76
 754 31 754 31 678 31 c 0,77,78
 608 31 608 31 552 94 c 0,79,80
 496 156 496 156 496 264 c 0,81,82
 496 403 496 403 588 584 c 0,83,84
 680 764 680 764 840 881 c 0,85,86
 954 965 954 965 1047 965 c 0,87,88
 1108 965 1108 965 1153 933 c 128,-1,89
 1198 901 1198 901 1219 825 c 1,90,-1
 1251 936 l 1,91,-1
 1409 958 l 1,0,-1
1057 918 m 0,92,93
 989 918 989 918 905 840 c 1,94,95
 799 731 799 731 713 524 c 0,96,97
 653 375 653 375 653 297 c 0,98,99
 653 229 653 229 688 188 c 1,100,101
 725 152 725 152 768 152 c 0,102,103
 823 152 823 152 890 194 c 0,104,105
 956 236 956 236 1024 332 c 1,106,107
 1092 418 1092 418 1126 518 c 0,108,109
 1182 676 1182 676 1182 770 c 0,110,111
 1182 838 1182 838 1147 879 c 1,112,113
 1108 918 1108 918 1057 918 c 0,92,93
EndSplineSet
EndChar

StartChar: A
Encoding: 65 65 36
Width: 1366
Flags: W
LayerCount: 2
Fore
SplineSet
-2 0 m 1,0,-1
 559 1466 l 1,1,-1
 768 1466 l 1,2,-1
 1368 0 l 1,3,-1
 1149 0 l 1,4,-1
 977 444 l 1,5,-1
 365 444 l 1,6,-1
 203 0 l 1,7,-1
 -2 0 l 1,0,-1
420 602 m 1,8,-1
 918 602 l 1,9,-1
 764 1008 l 2,10,11
 698 1186 698 1186 659 1313 c 1,12,13
 645 1243 645 1243 626 1172 c 0,14,15
 608 1102 608 1102 582 1032 c 2,16,-1
 420 602 l 1,8,-1
EndSplineSet
EndChar

StartChar: B
Encoding: 66 66 37
Width: 1366
Flags: W
LayerCount: 2
Fore
SplineSet
150 0 m 1,0,-1
 150 1466 l 1,1,-1
 700 1466 l 2,2,3
 862 1466 862 1466 966 1422 c 0,4,5
 1071 1378 1071 1378 1128 1283 c 0,6,7
 1186 1188 1186 1188 1186 1092 c 0,8,9
 1186 997 1186 997 1136 916 c 0,10,11
 1087 834 1087 834 981 780 c 1,12,13
 1114 739 1114 739 1186 646 c 0,14,15
 1257 553 1257 553 1257 426 c 0,16,17
 1257 322 1257 322 1212 233 c 1,18,19
 1174 145 1174 145 1108 97 c 128,-1,20
 1042 49 1042 49 945 24 c 0,21,22
 848 0 848 0 709 0 c 2,23,-1
 150 0 l 1,0,-1
344 850 m 1,24,-1
 662 850 l 2,25,26
 797 850 797 850 846 866 c 0,27,28
 920 889 920 889 958 942 c 0,29,30
 995 995 995 995 995 1067 c 0,31,32
 995 1137 995 1137 962 1193 c 0,33,34
 928 1249 928 1249 864 1270 c 0,35,36
 799 1292 799 1292 637 1292 c 2,37,-1
 344 1292 l 1,38,-1
 344 850 l 1,24,-1
344 172 m 1,39,-1
 709 172 l 2,40,41
 739 172 739 172 775 173 c 128,-1,42
 811 174 811 174 842 180 c 0,43,44
 909 193 909 193 954 220 c 0,45,46
 999 248 999 248 1028 302 c 128,-1,47
 1057 356 1057 356 1057 426 c 0,48,49
 1057 506 1057 506 1014 566 c 0,50,51
 971 627 971 627 894 652 c 0,52,53
 817 678 817 678 682 678 c 2,54,-1
 344 678 l 1,55,-1
 344 172 l 1,39,-1
EndSplineSet
EndChar

StartChar: C
Encoding: 67 67 38
Width: 1478
Flags: W
LayerCount: 2
Fore
SplineSet
1204 514 m 1,0,-1
 1399 465 l 1,1,2
 1337 227 1337 227 1180 102 c 0,3,4
 1022 -24 1022 -24 791 -24 c 0,5,6
 553 -24 553 -24 406 72 c 0,7,8
 258 168 258 168 180 354 c 0,9,10
 102 541 102 541 102 743 c 0,11,12
 102 971 102 971 190 1143 c 0,13,14
 279 1315 279 1315 442 1403 c 0,15,16
 604 1491 604 1491 795 1491 c 0,17,18
 1014 1491 1014 1491 1164 1380 c 0,19,20
 1315 1268 1315 1268 1372 1065 c 1,21,-1
 1182 1020 l 1,22,23
 1133 1178 1133 1178 1036 1252 c 0,24,25
 938 1325 938 1325 791 1325 c 0,26,27
 621 1325 621 1325 507 1244 c 128,-1,28
 393 1163 393 1163 347 1026 c 128,-1,29
 301 889 301 889 301 745 c 0,30,31
 301 559 301 559 356 419 c 0,32,33
 410 279 410 279 524 210 c 0,34,35
 639 141 639 141 774 141 c 0,36,37
 938 141 938 141 1052 234 c 0,38,39
 1165 328 1165 328 1204 514 c 1,0,-1
EndSplineSet
EndChar

StartChar: D
Encoding: 68 68 39
Width: 1478
Flags: W
LayerCount: 2
Fore
SplineSet
158 0 m 1,0,-1
 158 1466 l 1,1,-1
 664 1466 l 2,2,3
 825 1466 825 1466 924 1446 c 1,4,5
 1051 1415 1051 1415 1139 1339 c 0,6,7
 1253 1245 1253 1245 1312 1088 c 0,8,9
 1370 930 1370 930 1370 741 c 0,10,11
 1370 573 1370 573 1331 445 c 128,-1,12
 1292 317 1292 317 1234 234 c 0,13,14
 1176 150 1176 150 1098 98 c 0,15,16
 1030 53 1030 53 924 26 c 0,17,18
 819 0 819 0 686 0 c 2,19,-1
 158 0 l 1,0,-1
352 172 m 1,20,-1
 666 172 l 2,21,22
 803 172 803 172 888 198 c 0,23,24
 973 225 973 225 1024 276 c 0,25,26
 1094 346 1094 346 1132 460 c 0,27,28
 1169 575 1169 575 1169 743 c 0,29,30
 1169 973 1169 973 1094 1097 c 0,31,32
 1020 1221 1020 1221 911 1264 c 1,33,34
 829 1292 829 1292 659 1292 c 2,35,-1
 352 1292 l 1,36,-1
 352 172 l 1,20,-1
EndSplineSet
EndChar

StartChar: E
Encoding: 69 69 40
Width: 1366
Flags: W
LayerCount: 2
Fore
SplineSet
162 0 m 1,0,-1
 162 1466 l 1,1,-1
 1223 1466 l 1,2,-1
 1223 1292 l 1,3,-1
 356 1292 l 1,4,-1
 356 844 l 1,5,-1
 1167 844 l 1,6,-1
 1167 672 l 1,7,-1
 356 672 l 1,8,-1
 356 172 l 1,9,-1
 1255 172 l 1,10,-1
 1255 0 l 1,11,-1
 162 0 l 1,0,-1
EndSplineSet
EndChar

StartChar: F
Encoding: 70 70 41
Width: 1251
Flags: W
LayerCount: 2
Fore
SplineSet
168 0 m 1,0,-1
 168 1466 l 1,1,-1
 1157 1466 l 1,2,-1
 1157 1292 l 1,3,-1
 362 1292 l 1,4,-1
 362 840 l 1,5,-1
 1051 840 l 1,6,-1
 1051 666 l 1,7,-1
 362 666 l 1,8,-1
 362 0 l 1,9,-1
 168 0 l 1,0,-1
EndSplineSet
EndChar

StartChar: G
Encoding: 71 71 42
Width: 1593
Flags: W
LayerCount: 2
Fore
SplineSet
844 575 m 1,0,-1
 844 748 l 1,1,-1
 1464 748 l 1,2,-1
 1464 205 l 1,3,4
 1323 92 1323 92 1172 34 c 0,5,6
 1022 -24 1022 -24 858 -24 c 0,7,8
 743 -24 743 -24 651 -3 c 128,-1,9
 559 18 559 18 465 68 c 0,10,11
 289 160 289 160 199 335 c 128,-1,12
 109 510 109 510 109 725 c 0,13,14
 109 944 109 944 199 1128 c 0,15,16
 289 1313 289 1313 457 1402 c 128,-1,17
 625 1491 625 1491 844 1491 c 0,18,19
 1004 1491 1004 1491 1130 1440 c 0,20,21
 1257 1389 1257 1389 1330 1298 c 0,22,23
 1403 1206 1403 1206 1444 1057 c 1,24,-1
 1268 1008 l 1,25,26
 1233 1122 1233 1122 1186 1184 c 0,27,28
 1139 1247 1139 1247 1048 1286 c 0,29,30
 956 1325 956 1325 844 1325 c 0,31,32
 770 1325 770 1325 720 1317 c 128,-1,33
 670 1309 670 1309 614 1284 c 0,34,35
 516 1243 516 1243 458 1178 c 0,36,37
 399 1114 399 1114 365 1032 c 0,38,39
 309 897 309 897 309 737 c 0,40,41
 309 545 309 545 376 410 c 0,42,43
 444 276 444 276 576 213 c 0,44,45
 707 150 707 150 848 150 c 0,46,47
 973 150 973 150 1090 196 c 0,48,49
 1208 242 1208 242 1276 301 c 1,50,-1
 1276 575 l 1,51,-1
 844 575 l 1,0,-1
EndSplineSet
EndChar

StartChar: H
Encoding: 72 72 43
Width: 1478
Flags: W
LayerCount: 2
Fore
SplineSet
164 0 m 1,0,-1
 164 1466 l 1,1,-1
 358 1466 l 1,2,-1
 358 864 l 1,3,-1
 1120 864 l 1,4,-1
 1120 1466 l 1,5,-1
 1315 1466 l 1,6,-1
 1315 0 l 1,7,-1
 1120 0 l 1,8,-1
 1120 690 l 1,9,-1
 358 690 l 1,10,-1
 358 0 l 1,11,-1
 164 0 l 1,0,-1
EndSplineSet
EndChar

StartChar: I
Encoding: 73 73 44
Width: 569
Flags: W
LayerCount: 2
Fore
SplineSet
190 0 m 1,0,-1
 190 1466 l 1,1,-1
 385 1466 l 1,2,-1
 385 0 l 1,3,-1
 190 0 l 1,0,-1
EndSplineSet
EndChar

StartChar: J
Encoding: 74 74 45
Width: 1024
Flags: W
LayerCount: 2
Fore
SplineSet
59 416 m 1,0,-1
 233 440 l 1,1,2
 233 356 233 356 250 300 c 0,3,4
 266 244 266 244 297 211 c 0,5,6
 354 147 354 147 453 147 c 0,7,8
 522 147 522 147 576 181 c 0,9,10
 631 215 631 215 652 274 c 0,11,12
 672 334 672 334 672 457 c 2,13,-1
 672 1466 l 1,14,-1
 864 1466 l 1,15,-1
 864 467 l 2,16,17
 864 281 864 281 820 182 c 0,18,19
 776 82 776 82 678 29 c 128,-1,20
 580 -24 580 -24 453 -24 c 0,21,22
 262 -24 262 -24 158 86 c 0,23,24
 106 141 106 141 82 221 c 0,25,26
 59 301 59 301 59 416 c 1,0,-1
EndSplineSet
EndChar

StartChar: K
Encoding: 75 75 46
Width: 1366
Flags: W
LayerCount: 2
Fore
SplineSet
150 0 m 1,0,-1
 150 1466 l 1,1,-1
 344 1466 l 1,2,-1
 344 739 l 1,3,-1
 1071 1466 l 1,4,-1
 1335 1466 l 1,5,-1
 721 872 l 1,6,-1
 1362 0 l 1,7,-1
 1106 0 l 1,8,-1
 584 741 l 1,9,-1
 344 508 l 1,10,-1
 344 0 l 1,11,-1
 150 0 l 1,0,-1
EndSplineSet
EndChar

StartChar: L
Encoding: 76 76 47
Width: 1138
Flags: W
LayerCount: 2
Fore
SplineSet
150 0 m 1,0,-1
 150 1466 l 1,1,-1
 344 1466 l 1,2,-1
 344 172 l 1,3,-1
 1067 172 l 1,4,-1
 1067 0 l 1,5,-1
 150 0 l 1,0,-1
EndSplineSet
EndChar

StartChar: M
Encoding: 77 77 48
Width: 1705
Flags: W
LayerCount: 2
Fore
SplineSet
152 0 m 1,0,-1
 152 1466 l 1,1,-1
 444 1466 l 1,2,-1
 791 428 l 1,3,-1
 860 211 l 1,4,-1
 938 446 l 1,5,-1
 1290 1466 l 1,6,-1
 1550 1466 l 1,7,-1
 1550 0 l 1,8,-1
 1364 0 l 1,9,-1
 1364 1227 l 1,10,-1
 938 0 l 1,11,-1
 764 0 l 1,12,-1
 340 1247 l 1,13,-1
 340 0 l 1,14,-1
 152 0 l 1,0,-1
EndSplineSet
EndChar

StartChar: N
Encoding: 78 78 49
Width: 1478
Flags: W
LayerCount: 2
Fore
SplineSet
156 0 m 1,0,-1
 156 1466 l 1,1,-1
 354 1466 l 1,2,-1
 1124 315 l 1,3,-1
 1124 1466 l 1,4,-1
 1311 1466 l 1,5,-1
 1311 0 l 1,6,-1
 1112 0 l 1,7,-1
 342 1153 l 1,8,-1
 342 0 l 1,9,-1
 156 0 l 1,0,-1
EndSplineSet
EndChar

StartChar: O
Encoding: 79 79 50
Width: 1593
Flags: W
LayerCount: 2
Fore
SplineSet
98 715 m 0,0,1
 98 1077 98 1077 295 1285 c 128,-1,2
 492 1493 492 1493 801 1493 c 0,3,4
 1004 1493 1004 1493 1166 1396 c 0,5,6
 1329 1300 1329 1300 1415 1126 c 128,-1,7
 1501 952 1501 952 1501 731 c 0,8,9
 1501 512 1501 512 1412 336 c 128,-1,10
 1323 160 1323 160 1155 66 c 0,11,12
 1077 20 1077 20 987 -2 c 128,-1,13
 897 -24 897 -24 801 -24 c 0,14,15
 592 -24 592 -24 430 75 c 128,-1,16
 268 174 268 174 183 348 c 128,-1,17
 98 522 98 522 98 715 c 0,0,1
299 711 m 0,18,19
 299 446 299 446 442 294 c 0,20,21
 586 141 586 141 799 141 c 0,22,23
 1018 141 1018 141 1159 295 c 128,-1,24
 1300 449 1300 449 1300 731 c 0,25,26
 1300 909 1300 909 1240 1044 c 0,27,28
 1180 1178 1180 1178 1063 1252 c 0,29,30
 946 1325 946 1325 803 1325 c 0,31,32
 598 1325 598 1325 523 1254.5 c 128,-1,33
 448 1184 448 1184 373.5 1113 c 128,-1,34
 299 1042 299 1042 299 711 c 0,18,19
EndSplineSet
EndChar

StartChar: P
Encoding: 80 80 51
Width: 1366
Flags: W
LayerCount: 2
Fore
SplineSet
158 0 m 1,0,-1
 158 1466 l 1,1,-1
 711 1466 l 2,2,3
 862 1466 862 1466 934 1452 c 0,4,5
 1047 1434 1047 1434 1114 1382 c 1,6,7
 1186 1335 1186 1335 1233 1241 c 0,8,9
 1253 1198 1253 1198 1266 1148 c 0,10,11
 1278 1098 1278 1098 1278 1042 c 0,12,13
 1278 858 1278 858 1159 727 c 128,-1,14
 1040 596 1040 596 727 596 c 2,15,-1
 352 596 l 1,16,-1
 352 0 l 1,17,-1
 158 0 l 1,0,-1
352 768 m 1,18,-1
 731 768 l 2,19,20
 915 768 915 768 996 838 c 0,21,22
 1077 907 1077 907 1077 1036 c 0,23,24
 1077 1128 1077 1128 1030 1194 c 128,-1,25
 983 1260 983 1260 907 1280 c 0,26,27
 860 1292 860 1292 727 1292 c 2,28,-1
 352 1292 l 1,29,-1
 352 768 l 1,18,-1
EndSplineSet
EndChar

StartChar: Q
Encoding: 81 81 52
Width: 1593
Flags: W
LayerCount: 2
Fore
SplineSet
1270 158 m 1,0,1
 1403 63 1403 63 1518 20 c 1,2,-1
 1460 -114 l 1,3,4
 1300 -55 1300 -55 1147 66 c 1,5,6
 983 -24 983 -24 786 -24 c 0,7,8
 586 -24 586 -24 425 72 c 128,-1,9
 264 168 264 168 176 341 c 128,-1,10
 88 514 88 514 88 733 c 0,11,12
 88 950 88 950 175 1126 c 0,13,14
 262 1303 262 1303 426 1399 c 0,15,16
 506 1444 506 1444 598 1468 c 0,17,18
 690 1493 690 1493 791 1493 c 0,19,20
 991 1493 991 1493 1153 1396 c 0,21,22
 1315 1300 1315 1300 1403 1123 c 128,-1,23
 1491 946 1491 946 1491 733 c 0,24,25
 1491 555 1491 555 1436 410 c 0,26,27
 1382 266 1382 266 1270 158 c 1,0,1
842 406 m 1,28,29
 1012 360 1012 360 1118 264 c 1,30,31
 1290 422 1290 422 1290 733 c 0,32,33
 1290 909 1290 909 1230 1042 c 0,34,35
 1171 1174 1171 1174 1054 1250 c 0,36,37
 936 1325 936 1325 791 1325 c 0,38,39
 573 1325 573 1325 431 1176.5 c 128,-1,40
 289 1028 289 1028 289 733 c 0,41,42
 289 451 289 451 429 296 c 128,-1,43
 569 141 569 141 791 141 c 0,44,45
 897 141 897 141 987 180 c 1,46,47
 897 240 897 240 795 264 c 1,48,-1
 842 406 l 1,28,29
EndSplineSet
EndChar

StartChar: R
Encoding: 82 82 53
Width: 1479
Flags: W
LayerCount: 2
Fore
SplineSet
161 0 m 1,0,-1
 161 1466 l 1,1,-1
 811 1466 l 2,2,3
 1007 1466 1007 1466 1109 1426.5 c 128,-1,4
 1211 1387 1211 1387 1272 1287 c 128,-1,5
 1333 1187 1333 1187 1333 1066 c 0,6,7
 1333 910 1333 910 1232 803 c 128,-1,8
 1131 696 1131 696 920 667 c 1,9,10
 997 630 997 630 1037 594 c 0,11,12
 1122 516 1122 516 1198 399 c 2,13,-1
 1453 0 l 1,14,-1
 1209 0 l 1,15,-1
 1015 305 l 2,16,17
 930 437 930 437 875 507 c 128,-1,18
 820 577 820 577 776.5 605 c 128,-1,19
 733 633 733 633 688 644 c 0,20,21
 655 651 655 651 580 651 c 2,22,-1
 355 651 l 1,23,-1
 355 0 l 1,24,-1
 161 0 l 1,0,-1
355 819 m 1,25,-1
 772 819 l 2,26,27
 905 819 905 819 980 846.5 c 128,-1,28
 1055 874 1055 874 1094 934.5 c 128,-1,29
 1133 995 1133 995 1133 1066 c 0,30,31
 1133 1170 1133 1170 1057.5 1237 c 128,-1,32
 982 1304 982 1304 819 1304 c 2,33,-1
 355 1304 l 1,34,-1
 355 819 l 1,25,-1
EndSplineSet
EndChar

StartChar: S
Encoding: 83 83 54
Width: 1366
Flags: W
LayerCount: 2
Fore
SplineSet
92 471 m 1,0,-1
 274 487 l 1,1,2
 287 379 287 379 335 308 c 0,3,4
 383 236 383 236 482 193 c 0,5,6
 582 150 582 150 709 150 c 0,7,8
 823 150 823 150 906 182 c 0,9,10
 989 215 989 215 1030 272 c 0,11,12
 1049 297 1049 297 1060 330 c 0,13,14
 1071 362 1071 362 1071 397 c 0,15,16
 1071 467 1071 467 1031 519 c 128,-1,17
 991 571 991 571 899 604 c 0,18,19
 850 625 850 625 639 676 c 0,20,21
 541 700 541 700 468 724 c 128,-1,22
 395 748 395 748 356 768 c 0,23,24
 250 823 250 823 199 903 c 0,25,26
 147 989 147 989 147 1087 c 0,27,28
 147 1196 147 1196 212 1294 c 0,29,30
 276 1391 276 1391 396 1441 c 128,-1,31
 516 1491 516 1491 664 1491 c 0,32,33
 745 1491 745 1491 815 1478 c 0,34,35
 885 1466 885 1466 950 1438 c 0,36,37
 1075 1389 1075 1389 1144 1282 c 0,38,39
 1214 1176 1214 1176 1214 1053 c 1,40,-1
 1028 1038 l 1,41,42
 1016 1174 1016 1174 928 1248 c 0,43,44
 840 1321 840 1321 672 1321 c 0,45,46
 498 1321 498 1321 417 1256 c 0,47,48
 336 1190 336 1190 336 1100 c 0,49,50
 336 1024 336 1024 390 972 c 128,-1,51
 444 920 444 920 683 866 c 0,52,53
 922 813 922 813 1010 772 c 0,54,55
 1135 715 1135 715 1198 623 c 0,56,57
 1229 575 1229 575 1244 524 c 0,58,59
 1260 473 1260 473 1260 414 c 0,60,61
 1260 297 1260 297 1194 194 c 0,62,63
 1128 92 1128 92 1002 34 c 0,64,65
 877 -24 877 -24 717 -24 c 0,66,67
 516 -24 516 -24 382 34 c 128,-1,68
 248 92 248 92 172 207 c 0,69,70
 135 264 135 264 114 332 c 0,71,72
 92 401 92 401 92 471 c 1,0,-1
EndSplineSet
EndChar

StartChar: T
Encoding: 84 84 55
Width: 1251
Flags: W
LayerCount: 2
Fore
SplineSet
530 0 m 1,0,-1
 530 1292 l 1,1,-1
 47 1292 l 1,2,-1
 47 1466 l 1,3,-1
 1210 1466 l 1,4,-1
 1210 1292 l 1,5,-1
 725 1292 l 1,6,-1
 725 0 l 1,7,-1
 530 0 l 1,0,-1
EndSplineSet
EndChar

StartChar: U
Encoding: 85 85 56
Width: 1478
Flags: W
LayerCount: 2
Fore
SplineSet
1120 1466 m 1,0,-1
 1315 1466 l 1,1,-1
 1315 618 l 2,2,3
 1315 395 1315 395 1264 268 c 0,4,5
 1214 141 1214 141 1084 58 c 0,6,7
 954 -24 954 -24 741 -24 c 0,8,9
 535 -24 535 -24 406 46 c 0,10,11
 276 115 276 115 219 251 c 128,-1,12
 162 387 162 387 162 618 c 2,13,-1
 162 1466 l 1,14,-1
 354 1466 l 1,15,-1
 354 621 l 2,16,17
 354 432 354 432 389 338 c 0,18,19
 426 248 426 248 512 199 c 0,20,21
 604 150 604 150 725 150 c 0,22,23
 936 150 936 150 1028 247 c 128,-1,24
 1120 344 1120 344 1120 621 c 2,25,-1
 1120 1466 l 1,0,-1
EndSplineSet
EndChar

StartChar: V
Encoding: 86 86 57
Width: 1366
Flags: W
LayerCount: 2
Fore
SplineSet
578 0 m 1,0,-1
 8 1466 l 1,1,-1
 219 1466 l 1,2,-1
 600 401 l 2,3,4
 602 397 602 397 631 307 c 0,5,6
 676 170 676 170 678 162 c 1,7,8
 692 217 692 217 712 278 c 0,9,10
 731 338 731 338 756 401 c 2,11,-1
 1153 1466 l 1,12,-1
 1350 1466 l 1,13,-1
 776 0 l 1,14,-1
 578 0 l 1,0,-1
EndSplineSet
EndChar

StartChar: W
Encoding: 87 87 58
Width: 1933
Flags: W
LayerCount: 2
Fore
SplineSet
414 0 m 1,0,-1
 25 1466 l 1,1,-1
 223 1466 l 1,2,-1
 446 506 l 2,3,4
 479 373 479 373 510 205 c 1,5,-1
 575 475 l 1,6,-1
 854 1466 l 1,7,-1
 1087 1466 l 1,8,-1
 1298 725 l 2,9,10
 1378 434 1378 434 1411 205 c 1,11,12
 1440 344 1440 344 1485 524 c 2,13,-1
 1714 1466 l 1,14,-1
 1911 1466 l 1,15,-1
 1507 0 l 1,16,-1
 1321 0 l 1,17,-1
 1012 1116 l 1,18,-1
 967 1288 l 1,19,-1
 924 1116 l 1,20,-1
 612 0 l 1,21,-1
 414 0 l 1,0,-1
EndSplineSet
EndChar

StartChar: X
Encoding: 88 88 59
Width: 1366
Flags: W
LayerCount: 2
Fore
SplineSet
8 0 m 1,0,-1
 575 764 l 1,1,-1
 76 1466 l 1,2,-1
 307 1466 l 1,3,-1
 573 1090 l 2,4,5
 657 971 657 971 690 909 c 1,6,7
 735 983 735 983 807 1077 c 2,8,-1
 1102 1466 l 1,9,-1
 1313 1466 l 1,10,-1
 799 774 l 1,11,-1
 1354 0 l 1,12,-1
 1112 0 l 1,13,-1
 743 522 l 1,14,-1
 680 621 l 1,15,-1
 610 512 l 1,16,-1
 242 0 l 1,17,-1
 8 0 l 1,0,-1
EndSplineSet
EndChar

StartChar: Y
Encoding: 89 89 60
Width: 1366
Flags: W
LayerCount: 2
Fore
SplineSet
571 0 m 1,0,-1
 571 621 l 1,1,-1
 6 1466 l 1,2,-1
 242 1466 l 1,3,-1
 530 1024 l 2,4,5
 606 905 606 905 680 776 c 1,6,-1
 752 897 l 2,7,8
 782 948 782 948 840 1034 c 2,9,-1
 1124 1466 l 1,10,-1
 1350 1466 l 1,11,-1
 766 621 l 1,12,-1
 766 0 l 1,13,-1
 571 0 l 1,0,-1
EndSplineSet
EndChar

StartChar: Z
Encoding: 90 90 61
Width: 1251
Flags: W
LayerCount: 2
Fore
SplineSet
41 0 m 1,0,-1
 41 180 l 1,1,-1
 793 1118 l 1,2,-1
 872 1214 l 2,3,4
 911 1260 911 1260 944 1292 c 1,5,-1
 127 1292 l 1,6,-1
 127 1466 l 1,7,-1
 1176 1466 l 1,8,-1
 1176 1292 l 1,9,-1
 352 276 l 1,10,-1
 264 172 l 1,11,-1
 1200 172 l 1,12,-1
 1200 0 l 1,13,-1
 41 0 l 1,0,-1
EndSplineSet
EndChar

StartChar: bracketleft
Encoding: 91 91 62
Width: 569
Flags: W
LayerCount: 2
Fore
SplineSet
139 -407 m 1,0,-1
 139 1466 l 1,1,-1
 537 1466 l 1,2,-1
 537 1317 l 1,3,-1
 319 1317 l 1,4,-1
 319 -258 l 1,5,-1
 537 -258 l 1,6,-1
 537 -407 l 1,7,-1
 139 -407 l 1,0,-1
EndSplineSet
EndChar

StartChar: backslash
Encoding: 92 92 63
Width: 569
Flags: W
LayerCount: 2
Fore
SplineSet
426 -24 m 1,0,-1
 0 1491 l 1,1,-1
 145 1491 l 1,2,-1
 569 -24 l 1,3,-1
 426 -24 l 1,0,-1
EndSplineSet
EndChar

StartChar: bracketright
Encoding: 93 93 64
Width: 569
Flags: W
LayerCount: 2
Fore
SplineSet
436 -407 m 1,0,-1
 39 -407 l 1,1,-1
 39 -258 l 1,2,-1
 256 -258 l 1,3,-1
 256 1317 l 1,4,-1
 39 1317 l 1,5,-1
 39 1466 l 1,6,-1
 436 1466 l 1,7,-1
 436 -407 l 1,0,-1
EndSplineSet
EndChar

StartChar: asciicircum
Encoding: 94 94 65
Width: 960
Flags: W
LayerCount: 2
Fore
SplineSet
240 690 m 1,0,-1
 53 690 l 1,1,-1
 408 1491 l 1,2,-1
 553 1491 l 1,3,-1
 907 690 l 1,4,-1
 725 690 l 1,5,-1
 479 1286 l 1,6,-1
 240 690 l 1,0,-1
EndSplineSet
EndChar

StartChar: underscore
Encoding: 95 95 66
Width: 1138
Flags: W
LayerCount: 2
Fore
SplineSet
-30 -407 m 1,0,-1
 -30 -276 l 1,1,-1
 1161 -276 l 1,2,-1
 1161 -407 l 1,3,-1
 -30 -407 l 1,0,-1
EndSplineSet
EndChar

StartChar: grave
Encoding: 96 96 67
Width: 681
Flags: W
LayerCount: 2
Fore
SplineSet
465 1194 m 1,0,-1
 319 1194 l 1,1,-1
 88 1475 l 1,2,-1
 330 1475 l 1,3,-1
 465 1194 l 1,0,-1
EndSplineSet
EndChar

StartChar: a
Encoding: 97 97 68
Width: 1138
Flags: W
LayerCount: 2
Fore
SplineSet
827 131 m 1,0,1
 725 45 725 45 633 10 c 0,2,3
 541 -24 541 -24 436 -24 c 0,4,5
 264 -24 264 -24 169 63 c 128,-1,6
 74 150 74 150 74 281 c 0,7,8
 74 356 74 356 110 422 c 0,9,10
 145 487 145 487 200 525 c 0,11,12
 254 563 254 563 332 586 c 1,13,-1
 492 612 l 1,14,15
 709 637 709 637 813 674 c 1,16,-1
 813 721 l 2,17,18
 813 829 813 829 764 877 c 1,19,20
 690 938 690 938 557 938 c 0,21,22
 434 938 434 938 372.5 893 c 128,-1,23
 311 848 311 848 281 735 c 1,24,-1
 104 760 l 1,25,26
 129 872 129 872 184 940 c 1,27,28
 233 1008 233 1008 340 1046 c 0,29,30
 446 1085 446 1085 584 1085 c 0,31,32
 719 1085 719 1085 805 1055 c 1,33,34
 887 1022 887 1022 929 973 c 128,-1,35
 971 924 971 924 985 852 c 0,36,37
 993 813 993 813 994 769 c 128,-1,38
 995 725 995 725 995 684 c 2,39,-1
 995 444 l 2,40,41
 995 184 995 184 1004 137 c 0,42,43
 1012 90 1012 90 1022 62 c 0,44,45
 1032 35 1032 35 1053 0 c 1,46,-1
 864 0 l 1,47,48
 836 55 836 55 827 131 c 1,0,1
813 532 m 1,49,50
 715 496 715 496 518 465 c 0,51,52
 410 451 410 451 362 428 c 0,53,54
 317 410 317 410 292 370 c 0,55,56
 266 330 266 330 266 285 c 0,57,58
 266 213 266 213 320 165 c 0,59,60
 375 117 375 117 479 117 c 0,61,62
 584 117 584 117 664 162 c 0,63,64
 745 207 745 207 784 287 c 0,65,66
 813 350 813 350 813 467 c 2,67,-1
 813 532 l 1,49,50
EndSplineSet
EndChar

StartChar: b
Encoding: 98 98 69
Width: 1138
Flags: W
LayerCount: 2
Fore
SplineSet
301 0 m 1,0,-1
 133 0 l 1,1,-1
 133 1466 l 1,2,-1
 313 1466 l 1,3,-1
 313 942 l 1,4,5
 426 1085 426 1085 604 1085 c 0,6,7
 705 1085 705 1085 793 1046 c 0,8,9
 881 1006 881 1006 934 936 c 1,10,11
 989 870 989 870 1022 766 c 128,-1,12
 1055 662 1055 662 1055 547 c 0,13,14
 1055 276 1055 276 918 126 c 0,15,16
 782 -24 782 -24 596 -24 c 128,-1,17
 410 -24 410 -24 301 133 c 1,18,-1
 301 0 l 1,0,-1
299 539 m 0,19,20
 299 346 299 346 350 262 c 0,21,22
 436 125 436 125 582 125 c 0,23,24
 698 125 698 125 784 228 c 0,25,26
 870 330 870 330 870 532 c 0,27,28
 870 739 870 739 788 838 c 0,29,30
 705 938 705 938 590 938 c 0,31,32
 471 938 471 938 385 836 c 0,33,34
 299 733 299 733 299 539 c 0,19,20
EndSplineSet
EndChar

StartChar: c
Encoding: 99 99 70
Width: 1024
Flags: W
LayerCount: 2
Fore
SplineSet
827 389 m 1,0,-1
 1006 367 l 1,1,2
 975 180 975 180 855 78 c 128,-1,3
 735 -24 735 -24 563 -24 c 0,4,5
 344 -24 344 -24 212 119 c 128,-1,6
 80 262 80 262 80 526 c 0,7,8
 80 700 80 700 136 829 c 0,9,10
 193 958 193 958 308 1022 c 0,11,12
 424 1085 424 1085 563 1085 c 0,13,14
 735 1085 735 1085 846 997 c 0,15,16
 956 909 956 909 987 750 c 1,17,-1
 813 723 l 1,18,19
 788 829 788 829 724 884 c 0,20,21
 659 938 659 938 571 938 c 0,22,23
 436 938 436 938 350 840 c 0,24,25
 264 741 264 741 264 532 c 0,26,27
 264 322 264 322 347 224 c 0,28,29
 430 125 430 125 561 125 c 0,30,31
 668 125 668 125 738 190 c 0,32,33
 809 254 809 254 827 389 c 1,0,-1
EndSplineSet
EndChar

StartChar: d
Encoding: 100 100 71
Width: 1138
Flags: W
LayerCount: 2
Fore
SplineSet
823 0 m 1,0,-1
 823 133 l 1,1,2
 725 -24 725 -24 526 -24 c 0,3,4
 403 -24 403 -24 294 46 c 0,5,6
 186 117 186 117 128 244 c 128,-1,7
 70 371 70 371 70 530 c 0,8,9
 70 692 70 692 123 820 c 128,-1,10
 176 948 176 948 282 1016 c 0,11,12
 387 1085 387 1085 518 1085 c 0,13,14
 621 1085 621 1085 690 1044 c 1,15,16
 762 1008 762 1008 811 940 c 1,17,-1
 811 1466 l 1,18,-1
 991 1466 l 1,19,-1
 991 0 l 1,20,-1
 823 0 l 1,0,-1
256 530 m 0,21,22
 256 324 256 324 340 224 c 0,23,24
 424 125 424 125 545 125 c 0,25,26
 662 125 662 125 744 222 c 0,27,28
 827 319 827 319 827 514 c 0,29,30
 827 729 827 729 742 834 c 0,31,32
 657 938 657 938 537 938 c 0,33,34
 416 938 416 938 336 840 c 0,35,36
 256 741 256 741 256 530 c 0,21,22
EndSplineSet
EndChar

StartChar: e
Encoding: 101 101 72
Width: 1138
Flags: W
LayerCount: 2
Fore
SplineSet
862 342 m 1,0,-1
 1049 319 l 1,1,2
 1006 160 1006 160 886 68 c 128,-1,3
 766 -24 766 -24 582 -24 c 0,4,5
 348 -24 348 -24 212 120 c 128,-1,6
 76 264 76 264 76 522 c 0,7,8
 76 788 76 788 214 936 c 0,9,10
 352 1085 352 1085 571 1085 c 0,11,12
 786 1085 786 1085 920 942 c 0,13,14
 1055 799 1055 799 1055 532 c 1,15,-1
 1053 485 l 1,16,-1
 260 485 l 1,17,18
 260 399 260 399 285.5 333.5 c 128,-1,19
 311 268 311 268 360 217 c 0,20,21
 451 125 451 125 582 125 c 0,22,23
 682 125 682 125 752 177 c 0,24,25
 821 229 821 229 862 342 c 1,0,-1
270 633 m 1,26,-1
 864 633 l 1,27,28
 852 766 852 766 797 834 c 0,29,30
 711 938 711 938 573 938 c 0,31,32
 449 938 449 938 360 852 c 0,33,34
 270 766 270 766 270 633 c 1,26,-1
EndSplineSet
EndChar

StartChar: f
Encoding: 102 102 73
Width: 569
Flags: W
LayerCount: 2
Fore
SplineSet
178 0 m 1,0,-1
 178 922 l 1,1,-1
 18 922 l 1,2,-1
 18 1063 l 1,3,-1
 178 1063 l 1,4,-1
 178 1176 l 2,5,6
 178 1280 178 1280 200 1340 c 0,7,8
 221 1401 221 1401 288 1446 c 0,9,10
 354 1491 354 1491 471 1491 c 0,11,12
 545 1491 545 1491 641 1473 c 1,13,-1
 612 1317 l 1,14,15
 590 1321 590 1321 561 1323 c 128,-1,16
 532 1325 532 1325 508 1325 c 0,17,18
 426 1325 426 1325 391 1290 c 128,-1,19
 356 1255 356 1255 356 1159 c 2,20,-1
 356 1063 l 1,21,-1
 563 1063 l 1,22,-1
 563 922 l 1,23,-1
 356 922 l 1,24,-1
 356 0 l 1,25,-1
 178 0 l 1,0,-1
EndSplineSet
EndChar

StartChar: g
Encoding: 103 103 74
Width: 1138
Flags: W
LayerCount: 2
Fore
SplineSet
102 -88 m 1,0,-1
 276 -114 l 1,1,2
 289 -196 289 -196 338 -231 c 0,3,4
 408 -282 408 -282 520 -282 c 0,5,6
 645 -282 645 -282 712 -233 c 0,7,8
 778 -184 778 -184 807 -92 c 1,9,10
 819 -36 819 -36 819 139 c 1,11,12
 702 0 702 0 524 0 c 0,13,14
 305 0 305 0 186 158 c 0,15,16
 66 315 66 315 66 537 c 0,17,18
 66 688 66 688 121 816 c 128,-1,19
 176 944 176 944 280 1014 c 0,20,21
 383 1085 383 1085 526 1085 c 0,22,23
 715 1085 715 1085 836 934 c 1,24,-1
 836 1063 l 1,25,-1
 1001 1063 l 1,26,-1
 1001 143 l 2,27,28
 1001 -104 1001 -104 952 -206 c 0,29,30
 903 -309 903 -309 794 -370 c 0,31,32
 686 -430 686 -430 522 -430 c 0,33,34
 426 -430 426 -430 350 -410 c 0,35,36
 274 -389 274 -389 215 -344 c 0,37,38
 102 -264 102 -264 102 -88 c 1,0,-1
252 551 m 0,39,40
 252 340 252 340 334 245 c 128,-1,41
 416 150 416 150 543 150 c 0,42,43
 664 150 664 150 749 243 c 128,-1,44
 834 336 834 336 834 545 c 0,45,46
 834 739 834 739 746 838 c 0,47,48
 659 938 659 938 539 938 c 0,49,50
 420 938 420 938 336 840 c 0,51,52
 252 743 252 743 252 551 c 0,39,40
EndSplineSet
EndChar

StartChar: h
Encoding: 104 104 75
Width: 1138
Flags: W
LayerCount: 2
Fore
SplineSet
135 0 m 1,0,-1
 135 1466 l 1,1,-1
 315 1466 l 1,2,-1
 315 940 l 1,3,4
 442 1085 442 1085 633 1085 c 0,5,6
 752 1085 752 1085 838 1038 c 1,7,8
 926 995 926 995 962 911 c 0,9,10
 999 827 999 827 999 674 c 2,11,-1
 999 0 l 1,12,-1
 819 0 l 1,13,-1
 819 674 l 2,14,15
 819 809 819 809 760.5 870.5 c 128,-1,16
 702 932 702 932 596 932 c 0,17,18
 518 932 518 932 448 891 c 0,19,20
 377 850 377 850 344 776 c 0,21,22
 315 702 315 702 315 582 c 2,23,-1
 315 0 l 1,24,-1
 135 0 l 1,0,-1
EndSplineSet
EndChar

StartChar: i
Encoding: 105 105 76
Width: 454
Flags: W
LayerCount: 2
Fore
SplineSet
135 1260 m 1,0,-1
 135 1466 l 1,1,-1
 315 1466 l 1,2,-1
 315 1260 l 1,3,-1
 135 1260 l 1,0,-1
135 0 m 1,4,-1
 135 1063 l 1,5,-1
 315 1063 l 1,6,-1
 315 0 l 1,7,-1
 135 0 l 1,4,-1
EndSplineSet
EndChar

StartChar: j
Encoding: 106 106 77
Width: 454
Flags: W
LayerCount: 2
Fore
SplineSet
133 1257 m 1,0,-1
 133 1466 l 1,1,-1
 313 1466 l 1,2,-1
 313 1257 l 1,3,-1
 133 1257 l 1,0,-1
-94 -411 m 1,4,-1
 -59 -258 l 1,5,6
 -10 -272 -10 -272 25 -272 c 0,7,8
 78 -272 78 -272 106 -237 c 0,9,10
 133 -202 133 -202 133 -53 c 2,11,-1
 133 1063 l 1,12,-1
 313 1063 l 1,13,-1
 313 -57 l 2,14,15
 313 -253 313 -253 262 -331 c 0,16,17
 197 -430 197 -430 47 -430 c 0,18,19
 -4 -430 -4 -430 -28 -426 c 0,20,21
 -51 -423 -51 -423 -94 -411 c 1,4,-1
EndSplineSet
EndChar

StartChar: k
Encoding: 107 107 78
Width: 1024
Flags: W
LayerCount: 2
Fore
SplineSet
135 0 m 1,0,-1
 135 1466 l 1,1,-1
 315 1466 l 1,2,-1
 315 631 l 1,3,-1
 741 1063 l 1,4,-1
 975 1063 l 1,5,-1
 569 668 l 1,6,-1
 1016 0 l 1,7,-1
 795 0 l 1,8,-1
 442 543 l 1,9,-1
 315 422 l 1,10,-1
 315 0 l 1,11,-1
 135 0 l 1,0,-1
EndSplineSet
EndChar

StartChar: l
Encoding: 108 108 79
Width: 454
Flags: W
LayerCount: 2
Fore
SplineSet
131 0 m 1,0,-1
 131 1466 l 1,1,-1
 311 1466 l 1,2,-1
 311 0 l 1,3,-1
 131 0 l 1,0,-1
EndSplineSet
EndChar

StartChar: m
Encoding: 109 109 80
Width: 1705
Flags: W
LayerCount: 2
Fore
SplineSet
135 0 m 1,0,-1
 135 1063 l 1,1,-1
 297 1063 l 1,2,-1
 297 913 l 1,3,4
 346 989 346 989 429 1037 c 128,-1,5
 512 1085 512 1085 618 1085 c 0,6,7
 733 1085 733 1085 810 1037 c 128,-1,8
 887 989 887 989 918 899 c 1,9,10
 1042 1085 1042 1085 1245 1085 c 0,11,12
 1403 1085 1403 1085 1489 996 c 128,-1,13
 1575 907 1575 907 1575 729 c 2,14,-1
 1575 0 l 1,15,-1
 1395 0 l 1,16,-1
 1395 670 l 2,17,18
 1395 776 1395 776 1376 823 c 1,19,20
 1362 870 1362 870 1315 900 c 128,-1,21
 1268 930 1268 930 1206 930 c 0,22,23
 1094 930 1094 930 1020 856 c 128,-1,24
 946 782 946 782 946 616 c 2,25,-1
 946 0 l 1,26,-1
 766 0 l 1,27,-1
 766 690 l 2,28,29
 766 809 766 809 723 870 c 0,30,31
 676 930 676 930 578 930 c 0,32,33
 502 930 502 930 436 891 c 1,34,35
 375 850 375 850 345 773 c 128,-1,36
 315 696 315 696 315 551 c 2,37,-1
 315 0 l 1,38,-1
 135 0 l 1,0,-1
EndSplineSet
EndChar

StartChar: n
Encoding: 110 110 81
Width: 1138
Flags: W
LayerCount: 2
Fore
SplineSet
135 0 m 1,0,-1
 135 1063 l 1,1,-1
 297 1063 l 1,2,-1
 297 911 l 1,3,4
 416 1085 416 1085 635 1085 c 0,5,6
 735 1085 735 1085 811 1051 c 0,7,8
 895 1016 895 1016 932 961 c 0,9,10
 973 905 973 905 987 827 c 0,11,12
 995 786 995 786 996 741 c 128,-1,13
 997 696 997 696 997 653 c 2,14,-1
 997 0 l 1,15,-1
 817 0 l 1,16,-1
 817 645 l 2,17,18
 817 756 817 756 796 810 c 0,19,20
 776 864 776 864 723 897 c 128,-1,21
 670 930 670 930 598 930 c 0,22,23
 483 930 483 930 399 858 c 128,-1,24
 315 786 315 786 315 580 c 2,25,-1
 315 0 l 1,26,-1
 135 0 l 1,0,-1
EndSplineSet
EndChar

StartChar: o
Encoding: 111 111 82
Width: 1138
Flags: W
LayerCount: 2
Fore
SplineSet
68 530 m 0,0,1
 68 823 68 823 231 969 c 1,2,3
 371 1085 371 1085 565 1085 c 0,4,5
 786 1085 786 1085 924 942 c 0,6,7
 1063 799 1063 799 1063 547 c 0,8,9
 1063 344 1063 344 1002 226 c 0,10,11
 942 109 942 109 822 42 c 0,12,13
 702 -24 702 -24 565 -24 c 0,14,15
 346 -24 346 -24 207 119 c 128,-1,16
 68 262 68 262 68 530 c 0,0,1
254 530 m 0,17,18
 254 326 254 326 342 226 c 0,19,20
 430 125 430 125 565 125 c 128,-1,21
 700 125 700 125 788 225 c 0,22,23
 834 279 834 279 856 354 c 0,24,25
 879 430 879 430 879 537 c 0,26,27
 879 733 879 733 788 836 c 0,28,29
 698 938 698 938 565 938 c 128,-1,30
 432 938 432 938 343 836 c 0,31,32
 254 735 254 735 254 530 c 0,17,18
EndSplineSet
EndChar

StartChar: p
Encoding: 112 112 83
Width: 1138
Flags: W
LayerCount: 2
Fore
SplineSet
135 -407 m 1,0,-1
 135 1063 l 1,1,-1
 299 1063 l 1,2,-1
 299 924 l 1,3,4
 356 1004 356 1004 429 1044 c 0,5,6
 502 1085 502 1085 606 1085 c 0,7,8
 741 1085 741 1085 846 1016 c 0,9,10
 950 946 950 946 1004 817 c 0,11,12
 1057 688 1057 688 1057 539 c 0,13,14
 1057 373 1057 373 1000 245 c 0,15,16
 942 117 942 117 828 46 c 0,17,18
 713 -24 713 -24 594 -24 c 0,19,20
 502 -24 502 -24 432 13.5 c 128,-1,21
 362 51 362 51 315 111 c 1,22,-1
 315 -407 l 1,23,-1
 135 -407 l 1,0,-1
299 524 m 0,24,25
 299 322 299 322 382 224 c 0,26,27
 465 125 465 125 582 125 c 0,28,29
 700 125 700 125 786 226 c 0,30,31
 872 328 872 328 872 541 c 0,32,33
 872 745 872 745 790 844 c 0,34,35
 707 944 707 944 590 944 c 0,36,37
 477 944 477 944 385 838 c 1,38,39
 299 729 299 729 299 524 c 0,24,25
EndSplineSet
EndChar

StartChar: q
Encoding: 113 113 84
Width: 1138
Flags: W
LayerCount: 2
Fore
SplineSet
811 -407 m 1,0,-1
 811 113 l 1,1,2
 774 59 774 59 694 14 c 0,3,4
 653 -6 653 -6 616 -15 c 0,5,6
 580 -24 580 -24 535 -24 c 0,7,8
 344 -24 344 -24 208 128 c 0,9,10
 72 281 72 281 72 541 c 0,11,12
 72 698 72 698 128 827 c 128,-1,13
 184 956 184 956 286 1020 c 0,14,15
 389 1085 389 1085 520 1085 c 0,16,17
 715 1085 715 1085 829 920 c 1,18,-1
 829 1063 l 1,19,-1
 991 1063 l 1,20,-1
 991 -407 l 1,21,-1
 811 -407 l 1,0,-1
256 535 m 0,22,23
 256 334 256 334 342 225 c 1,24,25
 428 125 428 125 549 125 c 0,26,27
 664 125 664 125 746 221 c 0,28,29
 829 317 829 317 829 518 c 0,30,31
 829 731 829 731 741 838 c 0,32,33
 653 944 653 944 537 944 c 0,34,35
 420 944 420 944 338 844 c 0,36,37
 256 743 256 743 256 535 c 0,22,23
EndSplineSet
EndChar

StartChar: r
Encoding: 114 114 85
Width: 681
Flags: W
LayerCount: 2
Fore
SplineSet
133 0 m 1,0,-1
 133 1063 l 1,1,-1
 295 1063 l 1,2,-1
 295 901 l 1,3,4
 324 954 324 954 354 993 c 0,5,6
 385 1032 385 1032 410 1051 c 0,7,8
 463 1085 463 1085 524 1085 c 0,9,10
 614 1085 614 1085 711 1028 c 1,11,-1
 647 860 l 1,12,13
 584 899 584 899 516 899 c 0,14,15
 457 899 457 899 411 865 c 128,-1,16
 365 831 365 831 342 766 c 0,17,18
 313 668 313 668 313 555 c 2,19,-1
 313 0 l 1,20,-1
 133 0 l 1,0,-1
EndSplineSet
EndChar

StartChar: s
Encoding: 115 115 86
Width: 1024
Flags: W
LayerCount: 2
Fore
SplineSet
63 317 m 1,0,-1
 242 344 l 1,1,2
 258 238 258 238 324 180 c 1,3,4
 395 125 395 125 516 125 c 0,5,6
 643 125 643 125 702 176 c 0,7,8
 760 227 760 227 760 293 c 0,9,10
 760 354 760 354 707 389 c 0,11,12
 668 416 668 416 522 451 c 0,13,14
 324 500 324 500 250 534 c 0,15,16
 176 569 176 569 131 637 c 1,17,18
 92 705 92 705 92 780 c 0,19,20
 92 852 92 852 125 910 c 0,21,22
 158 969 158 969 213 1012 c 0,23,24
 250 1038 250 1038 328 1065 c 0,25,26
 362 1073 362 1073 403 1079 c 128,-1,27
 444 1085 444 1085 483 1085 c 0,28,29
 608 1085 608 1085 700.5 1050.5 c 128,-1,30
 793 1016 793 1016 844 952 c 1,31,32
 887 891 887 891 905 788 c 1,33,-1
 729 764 l 1,34,35
 717 844 717 844 659 893 c 1,36,37
 598 938 598 938 498 938 c 0,38,39
 373 938 373 938 320 897 c 0,40,41
 266 856 266 856 266 801 c 0,42,43
 266 786 266 786 272 770 c 0,44,45
 279 754 279 754 289 737 c 0,46,47
 311 709 311 709 358 690 c 1,48,-1
 516 643 l 1,49,50
 698 596 698 596 782 559 c 0,51,52
 858 528 858 528 901 467 c 128,-1,53
 944 406 944 406 944 311 c 0,54,55
 944 223 944 223 893 141 c 0,56,57
 840 63 840 63 741 18 c 0,58,59
 694 0 694 0 634.5 -12 c 128,-1,60
 575 -24 575 -24 516 -24 c 0,61,62
 311 -24 311 -24 202 60 c 0,63,64
 94 145 94 145 63 317 c 1,0,-1
EndSplineSet
EndChar

StartChar: t
Encoding: 116 116 87
Width: 569
Flags: W
LayerCount: 2
Fore
SplineSet
528 162 m 1,0,-1
 555 2 l 1,1,2
 514 -6 514 -6 484 -10 c 0,3,4
 453 -14 453 -14 418 -14 c 0,5,6
 322 -14 322 -14 266 16 c 0,7,8
 211 47 211 47 190 98 c 0,9,10
 168 150 168 150 168 311 c 2,11,-1
 168 922 l 1,12,-1
 37 922 l 1,13,-1
 37 1063 l 1,14,-1
 168 1063 l 1,15,-1
 168 1325 l 1,16,-1
 346 1434 l 1,17,-1
 346 1063 l 1,18,-1
 528 1063 l 1,19,-1
 528 922 l 1,20,-1
 346 922 l 1,21,-1
 346 301 l 2,22,23
 346 227 346 227 356 204 c 0,24,25
 367 180 367 180 390 167 c 0,26,27
 412 154 412 154 449 154 c 2,28,-1
 483 154 l 1,29,30
 512 160 512 160 528 162 c 1,0,-1
EndSplineSet
EndChar

StartChar: u
Encoding: 117 117 88
Width: 1138
Flags: W
LayerCount: 2
Fore
SplineSet
831 0 m 1,0,-1
 831 156 l 1,1,2
 707 -24 707 -24 494 -24 c 0,3,4
 403 -24 403 -24 318 13.5 c 128,-1,5
 233 51 233 51 197 102 c 0,6,7
 178 127 178 127 165 161 c 128,-1,8
 152 195 152 195 141 236 c 0,9,10
 131 293 131 293 131 403 c 2,11,-1
 131 1063 l 1,12,-1
 311 1063 l 1,13,-1
 311 473 l 2,14,15
 311 324 311 324 322 283 c 0,16,17
 340 211 340 211 393 170 c 1,18,19
 453 131 453 131 530 131 c 0,20,21
 614 131 614 131 683 173 c 128,-1,22
 752 215 752 215 782 284 c 0,23,24
 811 354 811 354 811 494 c 2,25,-1
 811 1063 l 1,26,-1
 991 1063 l 1,27,-1
 991 0 l 1,28,-1
 831 0 l 1,0,-1
EndSplineSet
EndChar

StartChar: v
Encoding: 118 118 89
Width: 1024
Flags: W
LayerCount: 2
Fore
SplineSet
430 0 m 1,0,-1
 27 1063 l 1,1,-1
 215 1063 l 1,2,-1
 444 426 l 2,3,4
 455 397 455 397 485 297 c 0,5,6
 504 240 504 240 512 213 c 1,7,-1
 580 414 l 1,8,-1
 815 1063 l 1,9,-1
 999 1063 l 1,10,-1
 598 0 l 1,11,-1
 430 0 l 1,0,-1
EndSplineSet
EndChar

StartChar: w
Encoding: 119 119 90
Width: 1478
Flags: W
LayerCount: 2
Fore
SplineSet
332 0 m 1,0,-1
 6 1063 l 1,1,-1
 193 1063 l 1,2,-1
 360 449 l 1,3,-1
 424 221 l 1,4,-1
 479 440 l 1,5,-1
 647 1063 l 1,6,-1
 834 1063 l 1,7,-1
 991 446 l 1,8,-1
 1044 244 l 1,9,-1
 1106 449 l 1,10,-1
 1288 1063 l 1,11,-1
 1462 1063 l 1,12,-1
 1130 0 l 1,13,-1
 944 0 l 1,14,-1
 774 637 l 1,15,-1
 733 817 l 1,16,-1
 518 0 l 1,17,-1
 332 0 l 1,0,-1
EndSplineSet
EndChar

StartChar: x
Encoding: 120 120 91
Width: 1024
Flags: W
LayerCount: 2
Fore
SplineSet
14 0 m 1,0,-1
 403 553 l 1,1,-1
 43 1063 l 1,2,-1
 268 1063 l 1,3,-1
 432 813 l 1,4,-1
 506 694 l 1,5,-1
 588 811 l 1,6,-1
 766 1063 l 1,7,-1
 981 1063 l 1,8,-1
 614 561 l 1,9,-1
 1010 0 l 1,10,-1
 788 0 l 1,11,-1
 569 330 l 1,12,-1
 512 420 l 1,13,-1
 233 0 l 1,14,-1
 14 0 l 1,0,-1
EndSplineSet
EndChar

StartChar: y
Encoding: 121 121 92
Width: 1024
Flags: W
LayerCount: 2
Fore
SplineSet
127 -409 m 1,0,-1
 106 -239 l 1,1,2
 168 -256 168 -256 211 -256 c 0,3,4
 272 -256 272 -256 305 -235 c 1,5,6
 340 -219 340 -219 365 -180 c 0,7,8
 379 -159 379 -159 420 -45 c 2,9,-1
 436 -2 l 1,10,-1
 33 1063 l 1,11,-1
 227 1063 l 1,12,-1
 449 446 l 2,13,14
 467 395 467 395 488 328 c 0,15,16
 508 262 508 262 524 201 c 1,17,18
 555 319 555 319 598 442 c 2,19,-1
 825 1063 l 1,20,-1
 1006 1063 l 1,21,-1
 602 -18 l 2,22,23
 535 -196 535 -196 502 -258 c 0,24,25
 453 -346 453 -346 392 -388 c 0,26,27
 332 -430 332 -430 244 -430 c 0,28,29
 188 -430 188 -430 127 -409 c 1,0,-1
EndSplineSet
EndChar

StartChar: z
Encoding: 122 122 93
Width: 1024
Flags: W
LayerCount: 2
Fore
SplineSet
41 0 m 1,0,-1
 41 145 l 1,1,-1
 717 922 l 1,2,-1
 512 915 l 1,3,-1
 80 915 l 1,4,-1
 80 1063 l 1,5,-1
 948 1063 l 1,6,-1
 948 942 l 1,7,-1
 373 268 l 1,8,-1
 262 145 l 1,9,10
 317 145 317 145 350 147 c 0,11,12
 483 156 483 156 489 156 c 2,13,-1
 981 156 l 1,14,-1
 981 0 l 1,15,-1
 41 0 l 1,0,-1
EndSplineSet
EndChar

StartChar: braceleft
Encoding: 123 123 94
Width: 684
Flags: W
LayerCount: 2
Fore
SplineSet
57 612 m 1,0,1
 131 612 131 612 180 653 c 128,-1,2
 229 694 229 694 248 762 c 1,3,4
 254 803 254 803 259 876 c 0,5,6
 264 948 264 948 264 997 c 0,7,8
 264 1163 264 1163 272 1234 c 0,9,10
 281 1305 281 1305 304 1354 c 0,11,12
 328 1403 328 1403 362 1432 c 0,13,14
 395 1460 395 1460 457 1481 c 0,15,16
 498 1491 498 1491 580 1491 c 2,17,-1
 637 1491 l 1,18,-1
 637 1333 l 1,19,-1
 604 1333 l 2,20,21
 498 1333 498 1333 465 1295 c 128,-1,22
 432 1257 432 1257 432 1128 c 2,23,-1
 432 1067 l 1,24,-1
 432 1018 l 1,25,-1
 432 979 l 1,26,-1
 432 946 l 1,27,-1
 432 920 l 2,28,29
 432 827 432 827 422 799 c 1,30,31
 403 692 403 692 359 634 c 0,32,33
 315 575 315 575 223 530 c 1,34,35
 334 485 334 485 383 391 c 128,-1,36
 432 297 432 297 432 80 c 2,37,-1
 436 -151 l 1,38,39
 444 -219 444 -219 477 -247 c 0,40,41
 514 -274 514 -274 604 -274 c 2,42,-1
 637 -274 l 1,43,-1
 637 -430 l 1,44,-1
 580 -430 l 2,45,46
 481 -430 481 -430 438 -415 c 0,47,48
 375 -391 375 -391 334 -342 c 0,49,50
 293 -292 293 -292 276 -210 c 1,51,52
 264 -131 264 -131 264 49 c 0,53,54
 264 223 264 223 248 295 c 0,55,56
 231 367 231 367 182 408 c 0,57,58
 127 449 127 449 57 449 c 1,59,-1
 57 612 l 1,0,1
EndSplineSet
EndChar

StartChar: bar
Encoding: 124 124 95
Width: 532
Flags: W
LayerCount: 2
Fore
SplineSet
188 -430 m 1,0,-1
 188 1491 l 1,1,-1
 344 1491 l 1,2,-1
 344 -430 l 1,3,-1
 188 -430 l 1,0,-1
EndSplineSet
EndChar

StartChar: braceright
Encoding: 125 125 96
Width: 684
Flags: W
LayerCount: 2
Fore
SplineSet
627 612 m 1,0,-1
 627 449 l 1,1,2
 551 449 551 449 501 408 c 128,-1,3
 451 367 451 367 436 297 c 0,4,5
 420 227 420 227 420 63 c 2,6,-1
 420 25 l 1,7,-1
 420 -8 l 1,8,-1
 420 -34 l 2,9,10
 420 -120 420 -120 414 -157 c 0,11,12
 406 -237 406 -237 380 -288 c 128,-1,13
 354 -339 354 -339 319 -372 c 0,14,15
 287 -399 287 -399 227 -419 c 0,16,17
 205 -425 205 -425 182 -428 c 0,18,19
 158 -430 158 -430 102 -430 c 2,20,-1
 47 -430 l 1,21,-1
 47 -274 l 1,22,-1
 78 -274 l 2,23,24
 182 -274 182 -274 215 -235 c 1,25,26
 250 -200 250 -200 250 -67 c 0,27,28
 250 55 250 55 252 127 c 128,-1,29
 254 199 254 199 258 250 c 0,30,31
 272 360 272 360 324 426 c 0,32,33
 371 492 371 492 459 530 c 1,34,35
 348 582 348 582 299 674 c 128,-1,36
 250 766 250 766 250 981 c 2,37,-1
 250 1104 l 2,38,39
 250 1182 250 1182 245 1230 c 128,-1,40
 240 1278 240 1278 208 1306 c 0,41,42
 176 1333 176 1333 78 1333 c 2,43,-1
 47 1333 l 1,44,-1
 47 1491 l 1,45,-1
 102 1491 l 2,46,47
 205 1491 205 1491 258 1472 c 0,48,49
 311 1452 311 1452 352 1400 c 128,-1,50
 393 1348 393 1348 406 1270 c 0,51,52
 412 1231 412 1231 416 1166 c 0,53,54
 420 1102 420 1102 420 1012 c 0,55,56
 420 825 420 825 436 760 c 0,57,58
 451 696 451 696 500 653 c 0,59,60
 524 635 524 635 557 624 c 0,61,62
 590 612 590 612 627 612 c 1,0,-1
EndSplineSet
EndChar

StartChar: asciitilde
Encoding: 126 126 97
Width: 1196
Flags: W
LayerCount: 2
Fore
SplineSet
86 557 m 1,0,-1
 86 762 l 1,1,2
 195 883 195 883 365 883 c 0,3,4
 424 883 424 883 492 864 c 0,5,6
 547 852 547 852 680 795 c 1,7,-1
 782 758 l 2,8,9
 815 750 815 750 826 749 c 0,10,11
 838 748 838 748 852 748 c 0,12,13
 911 748 911 748 985 786 c 0,14,15
 1053 825 1053 825 1110 885 c 1,16,-1
 1110 674 l 1,17,18
 1047 614 1047 614 984 586 c 0,19,20
 920 559 920 559 834 559 c 0,21,22
 770 559 770 559 718 572 c 0,23,24
 666 586 666 586 548 639 c 128,-1,25
 430 692 430 692 348 692 c 0,26,27
 283 692 283 692 228 666 c 0,28,29
 174 639 174 639 86 557 c 1,0,-1
EndSplineSet
EndChar

StartChar: copyright
Encoding: 169 169 98
Width: 1556
Flags: W
LayerCount: 2
Fore
SplineSet
778 1386 m 0,0,1
 963 1386 963 1386 1130 1295 c 0,2,3
 1296 1204 1296 1204 1392 1033 c 0,4,5
 1489 862 1489 862 1489 678 c 0,6,7
 1489 498 1489 498 1396 328 c 128,-1,8
 1303 158 1303 158 1133 63 c 0,9,10
 1051 18 1051 18 962 -6 c 0,11,12
 872 -30 872 -30 778 -30 c 0,13,14
 598 -30 598 -30 428 64 c 128,-1,15
 258 158 258 158 164 324 c 0,16,17
 70 489 70 489 70 678 c 0,18,19
 70 864 70 864 164 1034 c 128,-1,20
 258 1204 258 1204 429 1295 c 128,-1,21
 600 1386 600 1386 778 1386 c 0,0,1
778 1325 m 0,22,23
 608 1325 608 1325 458 1243 c 0,24,25
 307 1161 307 1161 219 1004 c 0,26,27
 176 926 176 926 154 845 c 0,28,29
 131 764 131 764 131 678 c 0,30,31
 131 510 131 510 216 356 c 0,32,33
 301 203 301 203 454 117 c 0,34,35
 608 31 608 31 778 31 c 0,36,37
 952 31 952 31 1100 114 c 0,38,39
 1247 197 1247 197 1336 354 c 0,40,41
 1425 512 1425 512 1425 678 c 128,-1,42
 1425 844 1425 844 1338 1002 c 0,43,44
 1251 1159 1251 1159 1098 1242 c 0,45,46
 944 1325 944 1325 778 1325 c 0,22,23
1128 1135 m 1,47,-1
 1149 854 l 1,48,-1
 1110 854 l 1,49,50
 1073 969 1073 969 992 1030 c 0,51,52
 911 1090 911 1090 807 1090 c 0,53,54
 723 1090 723 1090 660 1058 c 0,55,56
 598 1026 598 1026 555 965 c 0,57,58
 530 928 530 928 506 852 c 0,59,60
 498 819 498 819 492 777 c 0,61,62
 485 735 485 735 485 700 c 0,63,64
 485 492 485 492 578 390 c 0,65,66
 670 289 670 289 817 289 c 0,67,68
 1010 289 1010 289 1128 451 c 1,69,-1
 1165 430 l 1,70,71
 1024 227 1024 227 782 227 c 0,72,73
 588 227 588 227 453.5 356 c 128,-1,74
 319 485 319 485 319 672 c 0,75,76
 319 862 319 862 460 998 c 0,77,78
 600 1135 600 1135 817 1135 c 1,79,-1
 895 1128 l 1,80,-1
 1004 1098 l 1,81,-1
 1040 1090 l 2,82,83
 1057 1090 1057 1090 1067 1099 c 128,-1,84
 1077 1108 1077 1108 1090 1135 c 1,85,-1
 1128 1135 l 1,47,-1
EndSplineSet
EndChar

StartChar: spext001
Encoding: 65537 -1 99
Width: 1984
Flags: W
LayerCount: 2
Fore
SplineSet
1286 582 m 0,0,1
 1286 629 1286 629 1284 652 c 0,2,3
 1282 674 1282 674 1271 724 c 128,-1,4
 1260 774 1260 774 1227 821 c 0,5,6
 1153 942 1153 942 1069 942 c 0,7,8
 991 942 991 942 936 748 c 1,9,-1
 852 362 l 1,10,-1
 852 311 l 1,11,12
 895 299 895 299 999 299 c 0,13,14
 1176 299 1176 299 1235 377 c 0,15,16
 1286 446 1286 446 1286 582 c 0,0,1
1438 1466 m 1,17,-1
 1438 1505 l 1,18,-1
 1329 1501 l 1,19,-1
 1313 1446 l 1,20,-1
 1305 1421 l 1,21,-1
 1319 1395 l 1,22,-1
 1341 1376 l 1,23,24
 1362 1376 1362 1376 1386 1388 c 0,25,26
 1409 1399 1409 1399 1415 1413 c 2,27,-1
 1425 1440 l 1,28,-1
 1438 1466 l 1,17,-1
1378 1665 m 1,29,-1
 1401 1671 l 1,30,-1
 1438 1675 l 1,31,-1
 1493 1673 l 2,32,33
 1591 1673 1591 1673 1645 1614 c 0,34,35
 1669 1585 1669 1585 1669 1571 c 2,36,-1
 1667 1524 l 1,37,-1
 1667 1495 l 2,38,39
 1667 1450 1667 1450 1659 1426 c 0,40,41
 1651 1401 1651 1401 1608 1329 c 1,42,-1
 1872 1327 l 1,43,-1
 1849 1243 l 1,44,-1
 1442 1243 l 1,45,46
 1475 1255 1475 1255 1491 1278 c 2,47,-1
 1524 1323 l 1,48,-1
 1571 1419 l 2,49,50
 1579 1440 1579 1440 1583 1462 c 0,51,52
 1587 1483 1587 1483 1587 1516 c 1,53,-1
 1593 1546 l 1,54,-1
 1577 1569 l 2,55,56
 1561 1591 1561 1591 1530 1610 c 1,57,58
 1505 1620 1505 1620 1468 1624 c 0,59,60
 1434 1624 1434 1624 1403 1612 c 1,61,-1
 1376 1591 l 1,62,-1
 1350 1563 l 1,63,-1
 1374 1552 l 1,64,-1
 1405 1550 l 1,65,-1
 1430 1550 l 1,66,-1
 1456 1550 l 1,67,-1
 1481 1550 l 1,68,-1
 1509 1544 l 1,69,-1
 1509 1524 l 1,70,-1
 1458 1366 l 1,71,72
 1440 1331 1440 1331 1414 1312 c 0,73,74
 1389 1292 1389 1292 1354 1288 c 0,75,76
 1329 1288 1329 1288 1296 1302 c 0,77,78
 1264 1315 1264 1315 1250 1332 c 0,79,80
 1237 1348 1237 1348 1231 1366 c 2,81,-1
 1225 1407 l 1,82,-1
 1227 1430 l 1,83,-1
 1237 1464 l 1,84,-1
 1182 1466 l 1,85,-1
 1147 1466 l 2,86,87
 1130 1466 1130 1466 1071 1423 c 1,88,89
 1004 1368 1004 1368 1004 1286 c 0,90,91
 1004 1182 1004 1182 1102 1090 c 0,92,93
 1268 942 1268 942 1288 915 c 0,94,95
 1389 778 1389 778 1389 561 c 0,96,97
 1389 432 1389 432 1310 314 c 0,98,99
 1231 197 1231 197 1135 197 c 2,100,-1
 20 197 l 1,101,-1
 20 311 l 1,102,103
 35 346 35 346 60 464 c 0,104,105
 84 582 84 582 123 795 c 0,106,107
 170 1069 170 1069 260 1069 c 0,108,109
 324 1069 324 1069 336 1059 c 1,110,111
 342 1040 342 1040 352 1030 c 1,112,-1
 209 338 l 1,113,-1
 219 311 l 1,114,-1
 238 287 l 1,115,-1
 623 287 l 1,116,117
 666 336 666 336 705 530 c 2,118,-1
 788 928 l 1,119,120
 813 971 813 971 872 1012 c 2,121,-1
 981 1081 l 1,122,-1
 958 1128 l 1,123,-1
 938 1190 l 1,124,-1
 918 1286 l 1,125,126
 918 1397 918 1397 997 1483 c 0,127,128
 1028 1513 1028 1513 1120 1526 c 0,129,130
 1212 1540 1212 1540 1253 1575 c 2,131,-1
 1319 1624 l 1,132,-1
 1378 1665 l 1,29,-1
EndSplineSet
EndChar

StartChar: spext002
Encoding: 65538 -1 100
Width: 1341
Flags: W
LayerCount: 2
Fore
SplineSet
1106 1157 m 1,0,-1
 1225 868 l 1,1,-1
 516 317 l 1,2,-1
 354 274 l 1,3,-1
 20 608 l 1,4,-1
 119 905 l 1,5,-1
 408 616 l 1,6,-1
 1106 1157 l 1,0,-1
EndSplineSet
EndChar

StartChar: spext003
Encoding: 65539 -1 101
Width: 1157
Flags: W
LayerCount: 2
Fore
SplineSet
403 66 m 1,0,-1
 369 70 l 1,1,-1
 332 74 l 1,2,-1
 303 74 l 1,3,-1
 281 72 l 1,4,-1
 250 74 l 1,5,-1
 219 74 l 1,6,-1
 201 74 l 2,7,8
 186 74 186 74 182 70 c 2,9,-1
 162 61 l 1,10,-1
 223 33 l 1,11,-1
 272 18 l 1,12,-1
 299 20 l 1,13,-1
 332 29 l 1,14,-1
 369 43 l 1,15,-1
 403 66 l 1,0,-1
705 233 m 1,16,17
 733 324 733 324 756 432 c 2,18,-1
 813 739 l 1,19,-1
 840 899 l 1,20,21
 862 969 862 969 934 969 c 2,22,-1
 979 967 l 1,23,-1
 1001 969 l 1,24,-1
 1012 969 l 2,25,26
 1016 969 1016 969 1020 956 c 1,27,-1
 948 608 l 1,28,-1
 885 291 l 2,29,30
 872 223 872 223 853 196 c 0,31,32
 834 170 834 170 795 137 c 2,33,-1
 733 92 l 1,34,-1
 668 51 l 1,35,-1
 582 10 l 1,36,-1
 500 -24 l 1,37,38
 403 -73 403 -73 289 -73 c 0,39,40
 207 -73 207 -73 109 -30 c 0,41,42
 -8 25 -8 25 -8 106 c 0,43,44
 -8 121 -8 121 6 141 c 1,45,46
 31 156 31 156 68 156 c 2,47,-1
 451 156 l 1,48,-1
 457 201 l 1,49,-1
 451 209 l 1,50,-1
 432 227 l 1,51,-1
 418 240 l 1,52,-1
 410 246 l 1,53,-1
 395 233 l 1,54,55
 391 223 391 223 307 211 c 1,56,-1
 172 201 l 1,57,58
 96 201 96 201 47 281 c 1,59,60
 16 342 16 342 16 432 c 0,61,62
 16 455 16 455 66 736 c 0,63,64
 115 1016 115 1016 147 1069 c 1,65,-1
 301 1069 l 1,66,-1
 301 1006 l 1,67,-1
 238 723 l 1,68,-1
 217 616 l 1,69,-1
 184 465 l 1,70,71
 184 442 184 442 213 393 c 0,72,73
 223 377 223 377 289 358 c 1,74,-1
 379 344 l 1,75,76
 436 344 436 344 455 381 c 1,77,-1
 485 500 l 1,78,-1
 549 807 l 1,79,80
 586 1028 586 1028 608 1069 c 1,81,-1
 762 1069 l 1,82,-1
 762 993 l 1,83,-1
 569 172 l 1,84,-1
 625 174 l 1,85,86
 684 186 684 186 705 233 c 1,16,17
EndSplineSet
EndChar

StartChar: spext004
Encoding: 65540 -1 102
Width: 2113
Flags: W
LayerCount: 2
Fore
SplineSet
430 487 m 0,0,1
 430 549 430 549 420 572 c 0,2,3
 410 594 410 594 365 594 c 0,4,5
 328 594 328 594 295 528 c 1,6,-1
 274 479 l 2,7,8
 262 449 262 449 262 428 c 0,9,10
 262 389 262 389 272 373 c 2,11,-1
 301 326 l 1,12,13
 362 356 362 356 389 383 c 0,14,15
 430 424 430 424 430 487 c 0,0,1
1333 508 m 1,16,-1
 1333 561 l 1,17,-1
 1178 557 l 1,18,-1
 1153 477 l 1,19,-1
 1141 442 l 1,20,-1
 1161 401 l 1,21,-1
 1194 377 l 1,22,23
 1221 377 1221 377 1256 392 c 0,24,25
 1292 408 1292 408 1305 428 c 1,26,27
 1311 461 1311 461 1316 475 c 128,-1,28
 1321 489 1321 489 1333 508 c 1,16,-1
1006 197 m 1,29,-1
 864 197 l 1,30,-1
 864 274 l 1,31,-1
 1004 924 l 1,32,-1
 981 952 l 2,33,34
 967 967 967 967 930 967 c 2,35,-1
 467 967 l 2,36,37
 354 967 354 967 227 860 c 0,38,39
 83 739 83 739 82 596 c 0,40,41
 82 545 82 545 94 502 c 128,-1,42
 106 459 106 459 147 416 c 1,43,-1
 209 633 l 1,44,45
 258 774 258 774 422 774 c 0,46,47
 475 774 475 774 547 713 c 1,48,49
 618 637 618 637 618 530 c 0,50,51
 618 393 618 393 534 295 c 0,52,53
 451 197 451 197 338 197 c 0,54,55
 195 197 195 197 94 320 c 0,56,57
 -8 444 -8 444 -8 602 c 0,58,59
 -8 815 -8 815 186 954 c 0,60,61
 348 1069 348 1069 494 1069 c 2,62,-1
 1403 1069 l 1,63,64
 1407 1038 1407 1038 1413 1032 c 1,65,66
 1413 991 1413 991 1392 979 c 0,67,68
 1372 967 1372 967 1335 963 c 1,69,-1
 1294 965 l 1,70,-1
 1251 967 l 2,71,72
 1217 967 1217 967 1202 954 c 0,73,74
 1188 942 1188 942 1163 860 c 1,75,76
 1159 831 1159 831 1154 815 c 128,-1,77
 1149 799 1149 799 1135 768 c 2,78,-1
 1096 686 l 1,79,-1
 1110 694 l 1,80,-1
 1178 748 l 1,81,-1
 1247 791 l 1,82,-1
 1286 803 l 1,83,-1
 1343 805 l 1,84,-1
 1411 805 l 2,85,86
 1550 805 1550 805 1628 719 c 0,87,88
 1665 674 1665 674 1667 653 c 2,89,-1
 1665 588 l 1,90,-1
 1665 547 l 2,91,92
 1665 483 1665 483 1652 448 c 0,93,94
 1640 414 1640 414 1577 307 c 1,95,-1
 1958 305 l 1,96,-1
 1925 184 l 1,97,-1
 1339 184 l 1,98,99
 1380 203 1380 203 1409 233 c 1,100,-1
 1454 299 l 1,101,102
 1505 383 1505 383 1522 426 c 0,103,104
 1548 500 1548 500 1548 575 c 1,105,-1
 1550 604 l 1,106,-1
 1559 621 l 1,107,-1
 1534 653 l 1,108,109
 1479 731 1479 731 1376 731 c 0,110,111
 1358 731 1358 731 1338 730 c 0,112,113
 1317 729 1317 729 1280 715 c 1,114,-1
 1235 676 l 1,115,-1
 1204 643 l 1,116,-1
 1239 629 l 1,117,-1
 1284 625 l 1,118,-1
 1321 625 l 1,119,-1
 1360 629 l 1,120,-1
 1395 625 l 1,121,-1
 1436 618 l 1,122,-1
 1436 588 l 1,123,-1
 1364 362 l 1,124,125
 1333 313 1333 313 1295 282 c 0,126,127
 1257 250 1257 250 1212 250 c 0,128,129
 1176 250 1176 250 1126.5 269.5 c 128,-1,130
 1077 289 1077 289 1059 315 c 1,131,132
 1040 238 1040 238 1006 197 c 1,29,-1
EndSplineSet
EndChar

StartChar: spext005
Encoding: 65541 -1 103
Width: 1282
Flags: W
LayerCount: 2
Fore
SplineSet
988 324 m 1,0,-1
 878 214 l 1,1,-1
 595 496 l 1,2,-1
 313 214 l 1,3,-1
 202 324 l 1,4,-1
 485 607 l 1,5,-1
 199 893 l 1,6,-1
 309 1003 l 1,7,-1
 592 721 l 1,8,-1
 874 1003 l 1,9,-1
 985 893 l 1,10,-1
 702 610 l 1,11,-1
 988 324 l 1,0,-1
EndSplineSet
EndChar

StartChar: Odieresis
Encoding: 65542 -1 104
Width: 1282
Flags: W
LayerCount: 2
Fore
SplineSet
755 967 m 256,0,1
 755 914 755 914 718 878 c 0,2,3
 681 841 681 841 629 841 c 0,4,5
 576 841 576 841 539 878 c 0,6,7
 502 914 502 914 502 967 c 128,-1,8
 502 1020 502 1020 539 1057 c 128,-1,9
 576 1094 576 1094 629 1094 c 0,10,11
 681 1094 681 1094 718 1057 c 128,-1,12
 755 1020 755 1020 755 967 c 256,0,1
1150 489 m 1,13,-1
 152 489 l 1,14,-1
 152 665 l 1,15,-1
 1150 665 l 1,16,-1
 1150 489 l 1,13,-1
740 213 m 0,17,18
 740 161 740 161 704 125 c 128,-1,19
 668 89 668 89 616 89 c 128,-1,20
 564 89 564 89 528 125 c 128,-1,21
 492 161 492 161 492 213 c 0,22,23
 492 264 492 264 528 300 c 0,24,25
 564 337 564 337 616 337 c 128,-1,26
 668 337 668 337 704 300 c 0,27,28
 740 264 740 264 740 213 c 0,17,18
EndSplineSet
EndChar

StartChar: uni0901
Encoding: 2305 2305 105
Width: 0
GlyphClass: 4
Flags: W
AnchorPoint: "Anchor-6" -390 1170 mark 0
AnchorPoint: "Anchor-3" -390 1170 mark 0
AnchorPoint: "Anchor-0" -390 1170 mark 0
LayerCount: 2
Fore
SplineSet
-380 1300 m 256,0,1
 -493 1300 -493 1300 -610 1392 c 0,2,3
 -728 1484 -728 1484 -821 1643 c 1,4,-1
 -760 1668 l 1,5,6
 -703 1572 -703 1572 -602 1516 c 0,7,8
 -500 1459 -500 1459 -380 1459 c 128,-1,9
 -260 1459 -260 1459 -158 1516 c 0,10,11
 -57 1572 -57 1572 0 1668 c 1,12,-1
 61 1643 l 1,13,14
 -32 1484 -32 1484 -150 1392 c 0,15,16
 -267 1300 -267 1300 -380 1300 c 256,0,1
-380 1570 m 1,17,-1
 -490 1692 l 1,18,-1
 -380 1814 l 1,19,-1
 -270 1692 l 1,20,-1
 -380 1570 l 1,17,-1
EndSplineSet
EndChar

StartChar: uni0902
Encoding: 2306 2306 106
Width: 0
GlyphClass: 4
Flags: W
AnchorPoint: "Anchor-6" -240 1305 mark 0
AnchorPoint: "Anchor-3" -240 1305 mark 0
AnchorPoint: "Anchor-0" -240 1305 mark 0
LayerCount: 2
Fore
SplineSet
-233 1530 m 1,0,-1
 -341 1638 l 1,1,-1
 -233 1756 l 1,2,-1
 -125 1638 l 1,3,-1
 -233 1530 l 1,0,-1
EndSplineSet
EndChar

StartChar: uni0903
Encoding: 2307 2307 107
Width: 465
Flags: W
LayerCount: 2
Fore
SplineSet
235 183 m 1,0,-1
 130 291 l 1,1,-1
 235 408 l 1,2,-1
 343 291 l 1,3,-1
 235 183 l 1,0,-1
238 573 m 1,4,-1
 130 680 l 1,5,-1
 238 798 l 1,6,-1
 346 680 l 1,7,-1
 238 573 l 1,4,-1
EndSplineSet
EndChar

StartChar: uni0905
Encoding: 2309 2309 108
Width: 1424
Flags: W
AnchorPoint: "Anchor-2" 1275 975 basechar 0
AnchorPoint: "Anchor-1" 1260 1170 basechar 0
AnchorPoint: "Anchor-0" 1260 1140 basechar 0
LayerCount: 2
Fore
SplineSet
577 173 m 0,0,1
 442 173 442 173 297 288 c 0,2,3
 152 404 152 404 37 602 c 1,4,-1
 111 652 l 1,5,6
 196 504 196 504 308 418 c 128,-1,7
 420 332 420 332 528 332 c 0,8,9
 614 332 614 332 676 393 c 0,10,11
 737 455 737 455 737 541 c 0,12,13
 737 585 737 585 707 624 c 0,14,15
 678 664 678 664 627 689 c 1,16,17
 582 664 582 664 530 648 c 0,18,19
 476 632 476 632 417 627 c 1,20,-1
 356 750 l 1,21,22
 492 762 492 762 584 832 c 0,23,24
 676 903 676 903 676 996 c 0,25,26
 676 1047 676 1047 632 1083 c 0,27,28
 589 1118 589 1118 528 1118 c 0,29,30
 447 1118 447 1118 372 1100 c 0,31,32
 297 1081 297 1081 233 1045 c 1,33,-1
 123 1180 l 1,34,35
 187 1217 187 1217 258 1235 c 0,36,37
 329 1254 329 1254 405 1254 c 0,38,39
 518 1254 518 1254 658 1141 c 128,-1,40
 798 1028 798 1028 798 934 c 0,41,42
 798 883 798 883 779 837 c 0,43,44
 759 791 759 791 724 762 c 1,45,46
 788 708 788 708 853 680 c 0,47,48
 916 652 916 652 970 652 c 0,49,50
 1020 652 1020 652 1076 674 c 0,51,52
 1133 695 1133 695 1192 737 c 1,53,-1
 1192 1106 l 1,54,-1
 921 1105 l 1,55,-1
 835 1220 l 1,56,-1
 1437 1220 l 1,57,-1
 1523 1105 l 1,58,-1
 1326 1106 l 1,59,-1
 1326 0 l 1,60,-1
 1192 74 l 1,61,-1
 1192 553 l 1,62,63
 1162 523 1162 523 1124 508 c 0,64,65
 1085 492 1085 492 1044 492 c 0,66,67
 992 492 992 492 941 510 c 0,68,69
 890 529 890 529 848 565 c 1,70,71
 872 475 872 475 872 467 c 0,72,73
 872 345 872 345 786 258 c 0,74,75
 700 173 700 173 577 173 c 0,0,1
EndSplineSet
EndChar

StartChar: uni0906
Encoding: 2310 2310 109
Width: 1740
Flags: W
AnchorPoint: "Anchor-2" 1335 1170 basechar 0
AnchorPoint: "Anchor-1" 1575 1140 basechar 0
AnchorPoint: "Anchor-0" 1575 1200 basechar 0
LayerCount: 2
Fore
SplineSet
1503 1105 m 1,0,-1
 1328 1105 l 1,1,-1
 1328 0 l 1,2,-1
 1193 74 l 1,3,-1
 1193 553 l 1,4,5
 1163 523 1163 523 1125 508 c 0,6,7
 1086 492 1086 492 1045 492 c 0,8,9
 993 492 993 492 942 510 c 0,10,11
 891 529 891 529 849 565 c 1,12,13
 873 475 873 475 873 467 c 0,14,15
 873 343 873 343 787 258 c 128,-1,16
 701 173 701 173 578 173 c 0,17,18
 443 173 443 173 298 288 c 0,19,20
 153 404 153 404 38 602 c 1,21,-1
 112 652 l 1,22,23
 197 504 197 504 309 418 c 128,-1,24
 421 332 421 332 529 332 c 0,25,26
 615 332 615 332 677 393 c 0,27,28
 738 455 738 455 738 541 c 0,29,30
 738 583 738 583 708 624 c 0,31,32
 679 664 679 664 628 689 c 1,33,34
 583 664 583 664 531 648 c 0,35,36
 460 627 460 627 418 627 c 1,37,-1
 357 750 l 1,38,39
 477 750 477 750 585 832 c 0,40,41
 677 902 677 902 677 996 c 0,42,43
 677 1047 677 1047 633 1083 c 0,44,45
 590 1118 590 1118 529 1118 c 0,46,47
 448 1118 448 1118 373 1100 c 0,48,49
 298 1081 298 1081 234 1045 c 1,50,-1
 124 1180 l 1,51,52
 188 1217 188 1217 259 1235 c 0,53,54
 330 1254 330 1254 406 1254 c 0,55,56
 519 1254 519 1254 659 1141 c 128,-1,57
 799 1028 799 1028 799 934 c 0,58,59
 799 883 799 883 780 837 c 0,60,61
 760 791 760 791 725 762 c 1,62,63
 789 708 789 708 854 680 c 0,64,65
 917 652 917 652 971 652 c 0,66,67
 1017 652 1017 652 1077 674 c 0,68,69
 1134 695 1134 695 1193 737 c 1,70,-1
 1193 1106 l 1,71,-1
 922 1106 l 1,72,-1
 836 1220 l 1,73,-1
 1438 1220 l 1,74,-1
 1748 1220 l 1,75,-1
 1834 1105 l 1,76,-1
 1638 1105 l 1,77,-1
 1638 0 l 1,78,-1
 1503 74 l 1,79,-1
 1503 1105 l 1,0,-1
EndSplineSet
EndChar

StartChar: uni0907
Encoding: 2311 2311 110
Width: 787
Flags: W
AnchorPoint: "Anchor-2" 465 1155 basechar 0
AnchorPoint: "Anchor-1" 645 1170 basechar 0
AnchorPoint: "Anchor-0" 390 1185 basechar 0
LayerCount: 2
Fore
SplineSet
623 -217 m 1,0,-1
 398 104 l 1,1,2
 289 104 289 104 213 152 c 0,3,4
 137 201 137 201 137 270 c 0,5,6
 137 313 137 313 167 338 c 0,7,8
 199 365 199 365 243 365 c 0,9,10
 286 365 286 365 328 329 c 0,11,12
 370 294 370 294 398 234 c 1,13,14
 490 234 490 234 557 294 c 0,15,16
 623 353 623 353 623 436 c 0,17,18
 623 470 623 470 606 494 c 0,19,20
 588 519 588 519 564 519 c 0,21,22
 538 519 538 519 487 502 c 0,23,24
 436 484 436 484 410 484 c 0,25,26
 322 484 322 484 223 594 c 0,27,28
 125 704 125 704 125 804 c 0,29,30
 125 869 125 869 173 913 c 0,31,32
 222 959 222 959 291 959 c 2,33,-1
 552 959 l 1,34,-1
 552 1105 l 1,35,-1
 -5 1105 l 1,36,-1
 -91 1220 l 1,37,-1
 797 1220 l 1,38,-1
 883 1105 l 1,39,-1
 687 1105 l 1,40,-1
 687 816 l 1,41,-1
 362 816 l 2,42,43
 313 816 313 816 278 791 c 128,-1,44
 243 766 243 766 243 733 c 0,45,46
 243 688 243 688 278 657 c 128,-1,47
 313 626 313 626 362 626 c 0,48,49
 386 626 386 626 433 638 c 0,50,51
 481 650 481 650 505 650 c 0,52,53
 579 650 579 650 660 560 c 0,54,55
 742 470 742 470 742 389 c 0,56,57
 742 276 742 276 669 213 c 0,58,59
 548 108 548 108 523 123 c 1,60,-1
 718 -143 l 1,61,-1
 623 -217 l 1,0,-1
EndSplineSet
EndChar

StartChar: uni0908
Encoding: 2312 2312 111
Width: 807
Flags: W
AnchorPoint: "Anchor-2" 450 1170 basechar 0
AnchorPoint: "Anchor-1" 630 1200 basechar 0
AnchorPoint: "Anchor-0" 315 1290 basechar 0
LayerCount: 2
Fore
SplineSet
562 1220 m 1,0,1
 494 1284 494 1284 471 1350 c 0,2,3
 440 1439 440 1439 440 1476 c 0,4,5
 440 1540 440 1540 488 1583 c 0,6,7
 540 1629 540 1629 661 1629 c 0,8,9
 693 1628 693 1628 760 1572 c 0,10,11
 805 1534 805 1534 837 1444 c 1,12,-1
 744 1427 l 1,13,14
 718 1472 718 1472 688 1497 c 0,15,16
 653 1527 653 1527 633 1527 c 0,17,18
 599 1527 599 1527 576 1494 c 1,19,-1
 576 1415 l 2,20,21
 576 1374 576 1374 617 1325 c 0,22,23
 702 1223 702 1223 702 1220 c 2,24,-1
 803 1220 l 1,25,-1
 889 1105 l 1,26,-1
 693 1105 l 1,27,-1
 693 816 l 1,28,-1
 368 816 l 2,29,30
 319 816 319 816 284 791 c 128,-1,31
 249 766 249 766 249 733 c 0,32,33
 249 688 249 688 284 657 c 128,-1,34
 319 626 319 626 368 626 c 0,35,36
 392 626 392 626 439 638 c 0,37,38
 487 650 487 650 511 650 c 0,39,40
 585 650 585 650 666 560 c 0,41,42
 748 470 748 470 748 389 c 0,43,44
 748 276 748 276 675 213 c 0,45,46
 554 108 554 108 529 123 c 1,47,-1
 724 -143 l 1,48,-1
 629 -217 l 1,49,-1
 404 104 l 1,50,51
 295 104 295 104 219 152 c 0,52,53
 143 201 143 201 143 270 c 0,54,55
 143 313 143 313 173 338 c 0,56,57
 205 365 205 365 249 365 c 0,58,59
 292 365 292 365 334 329 c 0,60,61
 376 294 376 294 404 234 c 1,62,63
 496 234 496 234 563 294 c 0,64,65
 629 353 629 353 629 436 c 0,66,67
 629 470 629 470 612 494 c 0,68,69
 594 519 594 519 570 519 c 0,70,71
 544 519 544 519 493 502 c 0,72,73
 442 484 442 484 416 484 c 0,74,75
 328 484 328 484 229 594 c 0,76,77
 131 704 131 704 131 804 c 0,78,79
 131 869 131 869 179 913 c 0,80,81
 228 959 228 959 297 959 c 2,82,-1
 558 959 l 1,83,-1
 558 1105 l 1,84,-1
 1 1105 l 1,85,-1
 -85 1220 l 1,86,-1
 562 1220 l 1,0,1
EndSplineSet
EndChar

StartChar: uni0909
Encoding: 2313 2313 112
Width: 974
Flags: W
AnchorPoint: "Anchor-2" 480 1155 basechar 0
AnchorPoint: "Anchor-1" 660 1170 basechar 0
AnchorPoint: "Anchor-0" 585 1320 basechar 0
LayerCount: 2
Fore
SplineSet
589 68 m 0,0,1
 436 68 436 68 299 189 c 0,2,3
 161 309 161 309 85 467 c 1,4,-1
 176 541 l 1,5,6
 227 391 227 391 349 308 c 0,7,8
 502 203 502 203 577 203 c 0,9,10
 648 203 648 203 698 257 c 0,11,12
 749 311 749 311 749 387 c 0,13,14
 749 461 749 461 697 524 c 0,15,16
 646 588 646 588 560 620 c 1,17,18
 469 595 469 595 406 595 c 1,19,-1
 332 723 l 1,20,-1
 455 730 l 1,21,22
 550 730 550 730 619 795 c 0,23,24
 687 860 687 860 687 950 c 0,25,26
 687 997 687 997 662 1031 c 0,27,28
 640 1060 640 1060 589 1105 c 1,29,-1
 6 1105 l 1,30,-1
 -104 1220 l 1,31,-1
 978 1220 l 1,32,-1
 1064 1105 l 1,33,-1
 724 1105 l 1,34,35
 780 1029 780 1029 806 970 c 0,36,37
 834 906 834 906 834 852 c 0,38,39
 834 804 834 804 791 751 c 0,40,41
 749 698 749 698 675 656 c 1,42,43
 780 617 780 617 844 536 c 0,44,45
 908 456 908 456 908 362 c 0,46,47
 908 240 908 240 815 154 c 128,-1,48
 722 68 722 68 589 68 c 0,0,1
EndSplineSet
EndChar

StartChar: uni090A
Encoding: 2314 2314 113
Width: 1310
Flags: W
AnchorPoint: "Anchor-2" 630 960 basechar 0
AnchorPoint: "Anchor-1" 660 1185 basechar 0
AnchorPoint: "Anchor-0" 630 1290 basechar 0
LayerCount: 2
Fore
SplineSet
752 717 m 1,0,-1
 873 759 l 1,1,2
 945 794 945 794 1004 794 c 0,3,4
 1160 794 1160 794 1224 672 c 0,5,6
 1273 575 1273 575 1273 463 c 0,7,8
 1273 358 1273 358 1151 144 c 1,9,-1
 1004 218 l 1,10,11
 1075 321 1075 321 1113 408 c 128,-1,12
 1151 495 1151 495 1151 561 c 0,13,14
 1151 603 1151 603 1122 631 c 0,15,16
 1094 659 1094 659 1053 659 c 0,17,18
 1025 659 1025 659 960 645 c 0,19,20
 809 613 809 613 825 575 c 1,21,-1
 832 536 l 1,22,23
 896 456 896 456 896 362 c 0,24,25
 896 240 896 240 803 154 c 128,-1,26
 710 68 710 68 577 68 c 0,27,28
 424 68 424 68 287 189 c 0,29,30
 149 309 149 309 73 467 c 1,31,-1
 164 541 l 1,32,33
 215 391 215 391 337 308 c 0,34,35
 490 203 490 203 565 203 c 0,36,37
 636 203 636 203 686 257 c 0,38,39
 737 311 737 311 737 387 c 0,40,41
 737 461 737 461 685 524 c 0,42,43
 634 588 634 588 548 620 c 1,44,45
 457 595 457 595 394 595 c 1,46,-1
 320 723 l 1,47,-1
 443 730 l 1,48,49
 538 730 538 730 607 795 c 0,50,51
 675 860 675 860 675 950 c 0,52,53
 675 997 675 997 650 1031 c 0,54,55
 628 1060 628 1060 577 1105 c 1,56,-1
 -6 1105 l 1,57,-1
 -116 1220 l 1,58,-1
 1325 1220 l 1,59,-1
 1411 1105 l 1,60,-1
 712 1105 l 1,61,62
 768 1029 768 1029 794 970 c 0,63,64
 821 908 821 908 822 852 c 0,65,66
 823 815 823 815 792 768 c 0,67,68
 776 744 776 744 752 717 c 1,0,-1
EndSplineSet
EndChar

StartChar: uni090B
Encoding: 2315 2315 114
Width: 1496
Flags: W
AnchorPoint: "Anchor-2" 735 930 basechar 0
AnchorPoint: "Anchor-1" 780 1170 basechar 0
AnchorPoint: "Anchor-0" 750 1275 basechar 0
LayerCount: 2
Fore
SplineSet
-86 1220 m 1,0,-1
 1500 1220 l 1,1,-1
 1586 1105 l 1,2,-1
 840 1105 l 1,3,-1
 840 735 l 1,4,5
 867 723 867 723 910 717 c 0,6,7
 940 710 940 710 974 710 c 0,8,9
 1004 710 1004 710 1035 720 c 0,10,11
 1065 730 1065 730 1097 747 c 1,12,13
 1085 764 1085 764 1079 796 c 0,14,15
 1072 828 1072 828 1072 870 c 0,16,17
 1072 894 1072 894 1095 913 c 0,18,19
 1117 931 1117 931 1146 931 c 0,20,21
 1197 931 1197 931 1251 870 c 0,22,23
 1305 808 1305 808 1305 747 c 0,24,25
 1305 711 1305 711 1281 684 c 0,26,27
 1256 657 1256 657 1220 649 c 1,28,29
 1337 532 1337 532 1401 420 c 0,30,31
 1464 309 1464 309 1464 220 c 0,32,33
 1464 145 1464 145 1411 91 c 0,34,35
 1357 37 1357 37 1281 37 c 0,36,37
 1215 37 1215 37 1145 89 c 0,38,39
 1075 142 1075 142 1024 233 c 1,40,-1
 1085 270 l 1,41,42
 1124 211 1124 211 1167 179 c 128,-1,43
 1210 147 1210 147 1244 147 c 0,44,45
 1286 147 1286 147 1314 183 c 0,46,47
 1342 218 1342 218 1342 270 c 0,48,49
 1342 375 1342 375 1158 637 c 1,50,51
 1131 625 1131 625 1104 619 c 0,52,53
 1077 612 1077 612 1048 612 c 0,54,55
 894 612 894 612 840 637 c 1,56,-1
 840 0 l 1,57,-1
 705 74 l 1,58,-1
 705 502 l 1,59,-1
 215 208 l 1,60,-1
 142 331 l 1,61,-1
 705 637 l 1,62,63
 636 686 636 686 564 710 c 0,64,65
 492 735 492 735 423 735 c 0,66,67
 345 735 345 735 273 713 c 0,68,69
 200 691 200 691 142 649 c 1,70,-1
 56 808 l 1,71,72
 225 870 225 870 362 870 c 0,73,74
 436 870 436 870 524 828 c 128,-1,75
 612 786 612 786 705 710 c 1,76,-1
 705 1105 l 1,77,-1
 0 1105 l 1,78,-1
 -86 1220 l 1,0,-1
EndSplineSet
EndChar

StartChar: uni090C
Encoding: 2316 2316 115
Width: 1278
Flags: W
AnchorPoint: "Anchor-2" 915 990 basechar 0
AnchorPoint: "Anchor-1" 990 1170 basechar 0
AnchorPoint: "Anchor-0" 570 1185 basechar 0
LayerCount: 2
Fore
SplineSet
893 180 m 2,0,1
 941 237 941 237 1064 402 c 0,2,3
 1126 484 1126 484 1126 571 c 0,4,5
 1126 632 1126 632 1094 675 c 128,-1,6
 1062 718 1062 718 1015 718 c 0,7,8
 893 718 893 718 802 613 c 0,9,10
 712 508 712 508 697 351 c 1,11,-1
 562 412 l 1,12,13
 594 535 594 535 623 596 c 1,14,15
 584 655 584 655 528 686 c 0,16,17
 472 718 472 718 415 718 c 0,18,19
 339 718 339 718 285 657 c 128,-1,20
 231 596 231 596 231 510 c 0,21,22
 231 397 231 397 339 269 c 0,23,24
 447 140 447 140 636 32 c 1,25,-1
 587 -41 l 1,26,27
 354 93 354 93 219 254 c 0,28,29
 84 414 84 414 84 559 c 0,30,31
 84 682 84 682 174 767 c 0,32,33
 263 853 263 853 391 853 c 0,34,35
 476 853 476 853 551 806 c 0,36,37
 626 760 626 760 672 682 c 1,38,39
 724 757 724 757 789 799 c 128,-1,40
 854 841 854 841 917 841 c 1,41,-1
 917 1105 l 1,42,-1
 0 1105 l 1,43,-1
 -86 1220 l 1,44,-1
 1278 1220 l 1,45,-1
 1364 1105 l 1,46,-1
 1052 1105 l 1,47,-1
 1052 828 l 1,48,49
 1145 804 1145 804 1178 715 c 1,50,51
 1236 625 1236 625 1236 510 c 0,52,53
 1236 410 1236 410 1172 301 c 0,54,55
 1109 191 1109 191 991 94 c 1,56,-1
 994 83 l 2,57,58
 994 80 994 80 909 -22 c 0,59,60
 868 -71 868 -71 868 -112 c 2,61,-1
 868 -191 l 1,62,63
 891 -224 891 -224 925 -224 c 0,64,65
 945 -224 945 -224 980 -194 c 0,66,67
 1010 -169 1010 -169 1036 -124 c 1,68,-1
 1129 -141 l 1,69,70
 1097 -231 1097 -231 1052 -269 c 0,71,72
 985 -325 985 -325 953 -326 c 0,73,74
 875 -328 875 -328 824 -307 c 1,75,-1
 794 -291 l 1,76,-1
 780 -280 l 2,77,78
 751 -254 751 -254 732 -173 c 0,79,80
 703 -50 703 -50 748 0 c 2,81,-1
 893 180 l 2,0,1
EndSplineSet
EndChar

StartChar: uni090D
Encoding: 2317 2317 116
Width: 909
Flags: W
AnchorPoint: "Anchor-2" 450 1185 basechar 0
AnchorPoint: "Anchor-1" 735 1185 basechar 0
AnchorPoint: "Anchor-0" 450 1590 basechar 0
LayerCount: 2
Fore
SplineSet
467 1331 m 0,0,1
 367 1331 367 1331 274 1404 c 0,2,3
 180 1478 180 1478 124 1600 c 1,4,-1
 251 1637 l 1,5,6
 291 1590 291 1590 379 1511 c 0,7,8
 414 1476 414 1476 472 1478 c 0,9,10
 528 1478 528 1478 576 1512 c 0,11,12
 641 1558 641 1558 688 1637 c 1,13,-1
 810 1563 l 1,14,15
 761 1458 761 1458 668 1394 c 0,16,17
 575 1331 575 1331 467 1331 c 0,0,1
984 -279 m 1,18,-1
 849 -181 l 1,19,20
 886 -130 886 -130 886 -108 c 0,21,22
 886 -104 886 -104 838 -32 c 0,23,24
 813 8 813 8 766 40 c 1,25,-1
 325 272 l 1,26,27
 221 352 221 352 190 398 c 0,28,29
 163 441 163 441 163 505 c 2,30,-1
 163 1105 l 1,31,-1
 0 1105 l 1,32,-1
 -86 1220 l 1,33,-1
 908 1220 l 1,34,-1
 994 1105 l 1,35,-1
 800 1105 l 1,36,-1
 800 578 l 2,37,38
 800 515 800 515 766 475 c 0,39,40
 727 428 727 428 662 428 c 2,41,-1
 589 428 l 1,42,-1
 494 542 l 1,43,-1
 592 542 l 2,44,45
 621 542 621 542 643 570 c 0,46,47
 666 598 666 598 666 640 c 2,48,-1
 666 1105 l 1,49,-1
 298 1105 l 1,50,-1
 298 566 l 2,51,52
 298 493 298 493 351 420 c 0,53,54
 400 353 400 353 494 297 c 2,55,-1
 862 76 l 2,56,57
 958 19 958 19 1005 -35 c 0,58,59
 1057 -95 1057 -95 1058 -144 c 0,60,61
 1058 -174 1058 -174 1038 -209 c 0,62,63
 1018 -245 1018 -245 984 -279 c 1,18,-1
EndSplineSet
EndChar

StartChar: uni090E
Encoding: 2318 2318 117
Width: 909
Flags: W
AnchorPoint: "Anchor-2" 435 1185 basechar 0
AnchorPoint: "Anchor-1" 720 1170 basechar 0
AnchorPoint: "Anchor-0" 510 1425 basechar 0
LayerCount: 2
Fore
SplineSet
800 1220 m 1,0,-1
 908 1220 l 1,1,-1
 994 1105 l 1,2,-1
 800 1105 l 1,3,-1
 800 578 l 2,4,5
 800 515 800 515 766 475 c 0,6,7
 727 428 727 428 662 428 c 2,8,-1
 589 428 l 1,9,-1
 494 542 l 1,10,-1
 592 542 l 2,11,12
 621 542 621 542 643 570 c 0,13,14
 666 598 666 598 666 640 c 2,15,-1
 666 1105 l 1,16,-1
 298 1105 l 1,17,-1
 298 566 l 2,18,19
 298 493 298 493 351 420 c 0,20,21
 400 353 400 353 494 297 c 2,22,-1
 862 76 l 2,23,24
 958 19 958 19 1005 -35 c 0,25,26
 1057 -95 1057 -95 1058 -144 c 0,27,28
 1058 -174 1058 -174 1038 -209 c 0,29,30
 1018 -245 1018 -245 984 -279 c 1,31,-1
 849 -181 l 1,32,33
 886 -130 886 -130 886 -108 c 0,34,35
 886 -104 886 -104 838 -32 c 0,36,37
 813 8 813 8 766 40 c 1,38,-1
 325 272 l 1,39,40
 221 352 221 352 190 398 c 0,41,42
 163 441 163 441 163 505 c 2,43,-1
 163 1105 l 1,44,-1
 0 1105 l 1,45,-1
 -86 1220 l 1,46,-1
 665 1220 l 1,47,-1
 190 1384 l 2,48,49
 99 1416 99 1416 34 1478 c 0,50,51
 -29 1539 -29 1539 -49 1612 c 0,52,53
 -56 1638 -56 1638 -54 1664 c 0,54,55
 -54 1670 -54 1670 -53 1676 c 0,56,57
 -49 1708 -49 1708 -33 1743 c 1,58,-1
 149 1678 l 1,59,60
 137 1657 137 1657 135 1626 c 0,61,62
 134 1606 134 1606 137 1584 c 0,63,64
 139 1573 139 1573 142 1562 c 0,65,66
 153 1522 153 1522 189 1487 c 0,67,68
 223 1454 223 1454 278 1433 c 2,69,-1
 632 1301 l 1,70,-1
 708 1268 l 1,71,-1
 800 1220 l 1,0,-1
EndSplineSet
EndChar

StartChar: uni090F
Encoding: 2319 2319 118
Width: 909
Flags: W
AnchorPoint: "Anchor-2" 465 1140 basechar 0
AnchorPoint: "Anchor-1" 720 1155 basechar 0
AnchorPoint: "Anchor-0" 465 1305 basechar 0
LayerCount: 2
Fore
SplineSet
984 -279 m 1,0,-1
 849 -181 l 1,1,2
 886 -130 886 -130 886 -108 c 0,3,4
 886 -104 886 -104 838 -32 c 0,5,6
 813 8 813 8 766 40 c 1,7,-1
 325 272 l 1,8,9
 221 352 221 352 190 398 c 0,10,11
 163 441 163 441 163 505 c 2,12,-1
 163 1105 l 1,13,-1
 0 1105 l 1,14,-1
 -86 1220 l 1,15,-1
 908 1220 l 1,16,-1
 994 1105 l 1,17,-1
 800 1105 l 1,18,-1
 800 578 l 2,19,20
 800 515 800 515 766 475 c 0,21,22
 727 428 727 428 662 428 c 2,23,-1
 589 428 l 1,24,-1
 494 542 l 1,25,-1
 592 542 l 2,26,27
 621 542 621 542 643 570 c 0,28,29
 666 598 666 598 666 640 c 2,30,-1
 666 1105 l 1,31,-1
 298 1105 l 1,32,-1
 298 566 l 2,33,34
 298 493 298 493 351 420 c 0,35,36
 400 353 400 353 494 297 c 2,37,-1
 862 76 l 2,38,39
 958 19 958 19 1005 -35 c 0,40,41
 1057 -95 1057 -95 1058 -144 c 0,42,43
 1058 -174 1058 -174 1038 -209 c 0,44,45
 1018 -245 1018 -245 984 -279 c 1,0,-1
EndSplineSet
EndChar

StartChar: uni0910
Encoding: 2320 2320 119
Width: 909
Flags: W
AnchorPoint: "Anchor-2" 465 1230 basechar 0
AnchorPoint: "Anchor-1" 735 1230 basechar 0
AnchorPoint: "Anchor-0" 660 1500 basechar 0
LayerCount: 2
Fore
SplineSet
800 1220 m 1,0,-1
 908 1220 l 1,1,-1
 994 1105 l 1,2,-1
 800 1105 l 1,3,-1
 800 578 l 2,4,5
 800 515 800 515 766 475 c 0,6,7
 727 428 727 428 662 428 c 2,8,-1
 589 428 l 1,9,-1
 494 542 l 1,10,-1
 592 542 l 2,11,12
 621 542 621 542 643 570 c 0,13,14
 666 598 666 598 666 640 c 2,15,-1
 666 1105 l 1,16,-1
 298 1105 l 1,17,-1
 298 566 l 2,18,19
 298 493 298 493 351 420 c 0,20,21
 400 353 400 353 494 297 c 2,22,-1
 862 76 l 2,23,24
 958 19 958 19 1005 -35 c 0,25,26
 1057 -95 1057 -95 1058 -144 c 0,27,28
 1058 -174 1058 -174 1038 -209 c 0,29,30
 1018 -245 1018 -245 984 -279 c 1,31,-1
 849 -181 l 1,32,33
 886 -130 886 -130 886 -108 c 0,34,35
 886 -104 886 -104 838 -32 c 0,36,37
 813 8 813 8 766 40 c 1,38,-1
 325 272 l 1,39,40
 221 352 221 352 190 398 c 0,41,42
 163 441 163 441 163 505 c 2,43,-1
 163 1105 l 1,44,-1
 0 1105 l 1,45,-1
 -86 1220 l 1,46,-1
 665 1220 l 1,47,-1
 420 1563 l 2,48,49
 386 1611 386 1611 345 1635 c 0,50,51
 302 1661 302 1661 261 1661 c 0,52,53
 226 1661 226 1661 197 1651 c 128,-1,54
 168 1641 168 1641 150 1624 c 1,55,-1
 40 1784 l 1,56,57
 70 1808 70 1808 100 1820 c 0,58,59
 131 1832 131 1832 163 1832 c 0,60,61
 239 1832 239 1832 313 1787 c 0,62,63
 445 1707 445 1707 476 1661 c 2,64,-1
 737 1276 l 1,65,-1
 800 1220 l 1,0,-1
EndSplineSet
EndChar

StartChar: uni0911
Encoding: 2321 2321 120
Width: 1740
Flags: W
AnchorPoint: "Anchor-2" 1530 1305 basechar 0
AnchorPoint: "Anchor-1" 1590 1095 basechar 0
AnchorPoint: "Anchor-0" 1785 1515 basechar 0
LayerCount: 2
Fore
SplineSet
1360 1329 m 0,0,1
 1259 1329 1259 1329 1166 1402 c 0,2,3
 1073 1476 1073 1476 1016 1598 c 1,4,-1
 1144 1635 l 1,5,6
 1183 1588 1183 1588 1271 1509 c 0,7,8
 1307 1474 1307 1474 1364 1476 c 0,9,10
 1421 1476 1421 1476 1469 1510 c 0,11,12
 1533 1557 1533 1557 1580 1635 c 1,13,-1
 1702 1562 l 1,14,15
 1653 1456 1653 1456 1560 1392 c 0,16,17
 1467 1329 1467 1329 1360 1329 c 0,0,1
1503 1105 m 1,18,-1
 1328 1105 l 1,19,-1
 1328 0 l 1,20,-1
 1193 74 l 1,21,-1
 1193 553 l 1,22,23
 1163 523 1163 523 1125 508 c 0,24,25
 1086 492 1086 492 1045 492 c 0,26,27
 993 492 993 492 942 510 c 0,28,29
 891 529 891 529 849 565 c 1,30,31
 873 475 873 475 873 467 c 0,32,33
 873 343 873 343 787 258 c 128,-1,34
 701 173 701 173 578 173 c 0,35,36
 443 173 443 173 298 288 c 0,37,38
 153 404 153 404 38 602 c 1,39,-1
 112 652 l 1,40,41
 197 504 197 504 309 418 c 128,-1,42
 421 332 421 332 529 332 c 0,43,44
 615 332 615 332 677 393 c 0,45,46
 738 455 738 455 738 541 c 0,47,48
 738 583 738 583 708 624 c 0,49,50
 679 664 679 664 628 689 c 1,51,52
 583 664 583 664 531 648 c 0,53,54
 477 632 477 632 418 627 c 1,55,-1
 357 750 l 1,56,57
 493 762 493 762 585 832 c 128,-1,58
 677 902 677 902 677 996 c 0,59,60
 677 1047 677 1047 633 1083 c 0,61,62
 590 1118 590 1118 529 1118 c 0,63,64
 448 1118 448 1118 373 1100 c 0,65,66
 298 1081 298 1081 234 1045 c 1,67,-1
 124 1180 l 1,68,69
 188 1217 188 1217 259 1235 c 0,70,71
 330 1254 330 1254 406 1254 c 0,72,73
 519 1254 519 1254 659 1141 c 128,-1,74
 799 1028 799 1028 799 934 c 0,75,76
 799 883 799 883 780 837 c 0,77,78
 760 791 760 791 725 762 c 1,79,80
 789 708 789 708 854 680 c 0,81,82
 917 652 917 652 971 652 c 0,83,84
 1017 652 1017 652 1077 674 c 0,85,86
 1134 695 1134 695 1193 737 c 1,87,-1
 1193 1106 l 1,88,-1
 922 1105 l 1,89,-1
 836 1220 l 1,90,-1
 1438 1220 l 1,91,-1
 1748 1220 l 1,92,-1
 1834 1105 l 1,93,-1
 1638 1105 l 1,94,-1
 1638 0 l 1,95,-1
 1503 74 l 1,96,-1
 1503 1105 l 1,18,-1
EndSplineSet
EndChar

StartChar: uni0912
Encoding: 2322 2322 121
Width: 1740
Flags: W
AnchorPoint: "Anchor-2" 1590 990 basechar 0
AnchorPoint: "Anchor-1" 1650 1140 basechar 0
AnchorPoint: "Anchor-0" 1665 1260 basechar 0
LayerCount: 2
Fore
SplineSet
1638 1220 m 1,0,-1
 1748 1220 l 1,1,-1
 1834 1105 l 1,2,-1
 1638 1105 l 1,3,-1
 1638 0 l 1,4,-1
 1503 74 l 1,5,-1
 1503 1105 l 1,6,-1
 1328 1105 l 1,7,-1
 1328 0 l 1,8,-1
 1193 74 l 1,9,-1
 1193 553 l 1,10,11
 1163 523 1163 523 1125 508 c 0,12,13
 1086 492 1086 492 1045 492 c 0,14,15
 993 492 993 492 942 510 c 0,16,17
 891 529 891 529 849 565 c 1,18,19
 873 475 873 475 873 467 c 0,20,21
 873 343 873 343 787 258 c 128,-1,22
 701 173 701 173 578 173 c 0,23,24
 443 173 443 173 298 288 c 0,25,26
 153 404 153 404 38 602 c 1,27,-1
 112 652 l 1,28,29
 197 504 197 504 309 418 c 128,-1,30
 421 332 421 332 529 332 c 0,31,32
 615 332 615 332 677 393 c 0,33,34
 738 455 738 455 738 541 c 0,35,36
 738 583 738 583 708 624 c 0,37,38
 679 664 679 664 628 689 c 1,39,40
 583 664 583 664 531 648 c 0,41,42
 477 632 477 632 418 627 c 1,43,-1
 357 750 l 1,44,45
 493 762 493 762 585 832 c 128,-1,46
 677 902 677 902 677 996 c 0,47,48
 677 1047 677 1047 633 1083 c 0,49,50
 590 1118 590 1118 529 1118 c 0,51,52
 448 1118 448 1118 373 1100 c 0,53,54
 298 1081 298 1081 234 1045 c 1,55,-1
 124 1180 l 1,56,57
 188 1217 188 1217 259 1235 c 0,58,59
 330 1254 330 1254 406 1254 c 0,60,61
 519 1254 519 1254 659 1141 c 128,-1,62
 799 1028 799 1028 799 934 c 0,63,64
 799 883 799 883 780 837 c 0,65,66
 760 791 760 791 725 762 c 1,67,68
 789 708 789 708 854 680 c 0,69,70
 917 652 917 652 971 652 c 0,71,72
 1017 652 1017 652 1077 674 c 0,73,74
 1134 695 1134 695 1193 737 c 1,75,-1
 1193 1106 l 1,76,-1
 922 1105 l 1,77,-1
 836 1220 l 1,78,-1
 1438 1220 l 1,79,-1
 1503 1220 l 1,80,-1
 1028 1384 l 2,81,82
 937 1416 937 1416 872 1478 c 0,83,84
 809 1539 809 1539 789 1612 c 0,85,86
 782 1638 782 1638 784 1664 c 0,87,88
 784 1670 784 1670 785 1676 c 0,89,90
 789 1708 789 1708 805 1743 c 1,91,-1
 987 1678 l 1,92,93
 975 1657 975 1657 973 1626 c 0,94,95
 972 1606 972 1606 975 1584 c 0,96,97
 977 1573 977 1573 980 1562 c 0,98,99
 991 1522 991 1522 1027 1487 c 0,100,101
 1061 1454 1061 1454 1116 1433 c 2,102,-1
 1470 1301 l 1,103,-1
 1546 1268 l 1,104,-1
 1638 1220 l 1,0,-1
EndSplineSet
EndChar

StartChar: uni0913
Encoding: 2323 2323 122
Width: 1749
Flags: W
AnchorPoint: "Anchor-2" 1605 1005 basechar 0
AnchorPoint: "Anchor-1" 1665 1095 basechar 0
AnchorPoint: "Anchor-0" 1620 1245 basechar 0
LayerCount: 2
Fore
SplineSet
1498 1220 m 1,0,-1
 1258 1563 l 2,1,2
 1225 1610 1225 1610 1183 1635 c 0,3,4
 1134 1665 1134 1665 1104 1662 c 0,5,6
 1101 1662 1101 1662 1099 1661 c 0,7,8
 1054 1651 1054 1651 1035 1651 c 0,9,10
 989 1651 989 1651 988 1624 c 1,11,-1
 878 1784 l 1,12,13
 909 1814 909 1814 938 1820 c 0,14,15
 996 1832 996 1832 1001 1832 c 0,16,17
 1077 1832 1077 1832 1151 1787 c 0,18,19
 1283 1707 1283 1707 1314 1661 c 2,20,-1
 1575 1276 l 1,21,-1
 1638 1220 l 1,22,-1
 1748 1220 l 1,23,-1
 1834 1105 l 1,24,-1
 1638 1105 l 1,25,-1
 1638 0 l 1,26,-1
 1503 74 l 1,27,-1
 1503 1105 l 1,28,-1
 1328 1105 l 1,29,-1
 1328 0 l 1,30,-1
 1193 74 l 1,31,-1
 1193 553 l 1,32,33
 1163 523 1163 523 1125 508 c 0,34,35
 1086 492 1086 492 1045 492 c 0,36,37
 993 492 993 492 942 510 c 0,38,39
 891 529 891 529 849 565 c 1,40,41
 873 475 873 475 873 467 c 0,42,43
 873 343 873 343 787 258 c 128,-1,44
 701 173 701 173 578 173 c 0,45,46
 443 173 443 173 298 288 c 0,47,48
 153 404 153 404 38 602 c 1,49,-1
 112 652 l 1,50,51
 197 504 197 504 309 418 c 128,-1,52
 421 332 421 332 529 332 c 0,53,54
 615 332 615 332 677 393 c 0,55,56
 738 455 738 455 738 541 c 0,57,58
 738 583 738 583 708 624 c 0,59,60
 679 664 679 664 628 689 c 1,61,62
 583 664 583 664 531 648 c 0,63,64
 477 632 477 632 418 627 c 1,65,-1
 357 750 l 1,66,67
 493 762 493 762 585 832 c 128,-1,68
 677 902 677 902 677 996 c 0,69,70
 677 1047 677 1047 633 1083 c 0,71,72
 590 1118 590 1118 529 1118 c 0,73,74
 448 1118 448 1118 373 1100 c 0,75,76
 298 1081 298 1081 234 1045 c 1,77,-1
 124 1180 l 1,78,79
 188 1217 188 1217 259 1235 c 0,80,81
 330 1254 330 1254 406 1254 c 0,82,83
 519 1254 519 1254 659 1141 c 128,-1,84
 799 1028 799 1028 799 934 c 0,85,86
 799 883 799 883 780 837 c 0,87,88
 760 791 760 791 725 762 c 1,89,90
 789 708 789 708 854 680 c 0,91,92
 917 652 917 652 971 652 c 0,93,94
 1017 652 1017 652 1077 674 c 0,95,96
 1134 695 1134 695 1193 737 c 1,97,-1
 1193 1106 l 1,98,-1
 922 1105 l 1,99,-1
 836 1220 l 1,100,-1
 1498 1220 l 1,0,-1
EndSplineSet
EndChar

StartChar: uni0914
Encoding: 2324 2324 123
Width: 1749
Flags: W
AnchorPoint: "Anchor-2" 1650 975 basechar 0
AnchorPoint: "Anchor-1" 1680 1110 basechar 0
AnchorPoint: "Anchor-0" 1665 1260 basechar 0
LayerCount: 2
Fore
SplineSet
1658 1220 m 1,0,-1
 1748 1220 l 1,1,-1
 1834 1105 l 1,2,-1
 1638 1105 l 1,3,-1
 1638 0 l 1,4,-1
 1503 74 l 1,5,-1
 1503 1105 l 1,6,-1
 1328 1105 l 1,7,-1
 1328 0 l 1,8,-1
 1193 74 l 1,9,-1
 1193 553 l 1,10,11
 1163 523 1163 523 1125 508 c 0,12,13
 1086 492 1086 492 1045 492 c 0,14,15
 993 492 993 492 942 510 c 0,16,17
 891 529 891 529 849 565 c 1,18,19
 873 475 873 475 873 467 c 0,20,21
 873 343 873 343 787 258 c 128,-1,22
 701 173 701 173 578 173 c 0,23,24
 443 173 443 173 298 288 c 0,25,26
 153 404 153 404 38 602 c 1,27,-1
 112 652 l 1,28,29
 197 504 197 504 309 418 c 128,-1,30
 421 332 421 332 529 332 c 0,31,32
 615 332 615 332 677 393 c 0,33,34
 738 455 738 455 738 541 c 0,35,36
 738 583 738 583 708 624 c 0,37,38
 679 664 679 664 628 689 c 1,39,40
 583 664 583 664 531 648 c 0,41,42
 477 632 477 632 418 627 c 1,43,-1
 357 750 l 1,44,45
 493 762 493 762 585 832 c 128,-1,46
 677 902 677 902 677 996 c 0,47,48
 677 1047 677 1047 633 1083 c 0,49,50
 590 1118 590 1118 529 1118 c 0,51,52
 448 1118 448 1118 373 1100 c 0,53,54
 298 1081 298 1081 234 1045 c 1,55,-1
 124 1180 l 1,56,57
 188 1217 188 1217 259 1235 c 0,58,59
 330 1254 330 1254 406 1254 c 0,60,61
 519 1254 519 1254 659 1141 c 128,-1,62
 799 1028 799 1028 799 934 c 0,63,64
 799 883 799 883 780 837 c 0,65,66
 760 791 760 791 725 762 c 1,67,68
 789 708 789 708 854 680 c 0,69,70
 917 652 917 652 971 652 c 0,71,72
 1017 652 1017 652 1077 674 c 0,73,74
 1134 695 1134 695 1193 737 c 1,75,-1
 1193 1106 l 1,76,-1
 922 1105 l 1,77,-1
 836 1220 l 1,78,-1
 1503 1220 l 1,79,-1
 1224 1394 l 1,80,-1
 1053 1510 l 2,81,82
 991 1552 991 1552 963 1561 c 0,83,84
 914 1574 914 1574 874 1564 c 0,85,86
 838 1554 838 1554 815 1538 c 0,87,88
 776 1509 776 1509 777 1500 c 1,89,-1
 630 1625 l 1,90,91
 651 1662 651 1662 678 1676 c 0,92,93
 731 1703 731 1703 735 1704 c 0,94,95
 784 1717 784 1717 837 1711 c 0,96,97
 864 1707 864 1707 892 1699 c 0,98,99
 1024 1661 1024 1661 1083 1619 c 2,100,-1
 1324 1450 l 1,101,-1
 1497 1302 l 1,102,-1
 1335 1657 l 2,103,104
 1312 1708 1312 1708 1274 1741 c 0,105,106
 1237 1774 1237 1774 1196 1781 c 0,107,108
 1168 1786 1168 1786 1146 1784 c 0,109,110
 1138 1784 1138 1784 1131 1782 c 0,111,112
 1082 1773 1082 1773 1081 1764 c 1,113,-1
 1000 1940 l 1,114,115
 1035 1965 1035 1965 1065 1966 c 2,116,-1
 1129 1967 l 1,117,118
 1204 1954 1204 1954 1269 1896 c 0,119,120
 1389 1791 1389 1791 1408 1743 c 2,121,-1
 1494 1529 l 1,122,-1
 1566 1320 l 1,123,-1
 1658 1220 l 1,0,-1
EndSplineSet
EndChar

StartChar: uni0915
Encoding: 2325 2325 124
Width: 1351
Flags: W
AnchorPoint: "Anchor-10" 705 105 basechar 0
AnchorPoint: "Anchor-9" 735 1155 basechar 0
AnchorPoint: "Anchor-5" 735 900 basechar 0
AnchorPoint: "Anchor-4" 735 1155 basechar 0
AnchorPoint: "Anchor-3" 735 1215 basechar 0
LayerCount: 2
Fore
SplineSet
60 632 m 0,0,1
 60 745 60 745 138 823 c 0,2,3
 217 902 217 902 329 902 c 0,4,5
 420 902 420 902 508 850 c 0,6,7
 596 799 596 799 660 706 c 1,8,-1
 660 1105 l 1,9,-1
 0 1105 l 1,10,-1
 -86 1220 l 1,11,-1
 1351 1220 l 1,12,-1
 1437 1105 l 1,13,-1
 795 1105 l 1,14,-1
 795 706 l 1,15,16
 820 729 820 729 922 769 c 0,17,18
 979 791 979 791 1028 791 c 0,19,20
 1133 791 1133 791 1209 687 c 128,-1,21
 1285 583 1285 583 1285 436 c 0,22,23
 1285 345 1285 345 1253 261 c 0,24,25
 1221 176 1221 176 1162 105 c 1,26,-1
 1052 228 l 1,27,28
 1123 313 1123 313 1161 386 c 0,29,30
 1199 458 1199 458 1199 510 c 0,31,32
 1199 576 1199 576 1156 622 c 0,33,34
 1113 669 1113 669 1052 669 c 0,35,36
 976 669 976 669 795 517 c 1,37,-1
 795 -5 l 1,38,-1
 660 68 l 1,39,-1
 660 448 l 1,40,41
 596 385 596 385 529 349 c 0,42,43
 462 314 462 314 403 314 c 0,44,45
 226 314 226 314 160 384 c 0,46,47
 60 491 60 491 60 632 c 0,0,1
333 421 m 0,48,49
 397 421 397 421 484 472 c 128,-1,50
 571 523 571 523 664 617 c 1,51,52
 593 675 593 675 523 707 c 128,-1,53
 453 739 453 739 395 739 c 0,54,55
 299 739 299 739 230 692 c 0,56,57
 162 646 162 646 162 580 c 128,-1,58
 162 514 162 514 212 467 c 0,59,60
 262 421 262 421 333 421 c 0,48,49
EndSplineSet
EndChar

StartChar: uni0916
Encoding: 2326 2326 125
Width: 1424
Flags: W
AnchorPoint: "Anchor-10" 1230 120 basechar 0
AnchorPoint: "Anchor-9" 1215 1155 basechar 0
AnchorPoint: "Anchor-5" 1230 900 basechar 0
AnchorPoint: "Anchor-4" 1215 1155 basechar 0
AnchorPoint: "Anchor-3" 1215 1155 basechar 0
LayerCount: 2
Fore
SplineSet
785 24 m 0,0,1
 680 24 680 24 558 88 c 0,2,3
 437 152 437 152 320 270 c 0,4,5
 202 387 202 387 138 489 c 0,6,7
 74 590 74 590 74 662 c 0,8,9
 74 681 74 681 97 696 c 0,10,11
 119 710 119 710 148 710 c 1,12,13
 146 710 146 710 190 694 c 0,14,15
 212 686 212 686 246 674 c 1,16,17
 258 684 258 684 264 715 c 0,18,19
 270 747 270 747 270 796 c 2,20,-1
 270 972 l 1,21,22
 276 998 276 998 273 1021 c 0,23,24
 272 1033 272 1033 268 1044 c 0,25,26
 252 1087 252 1087 216 1105 c 1,27,-1
 0 1105 l 1,28,-1
 -86 1220 l 1,29,-1
 1422 1220 l 1,30,-1
 1508 1105 l 1,31,-1
 1272 1105 l 1,32,-1
 1272 0 l 1,33,-1
 1177 74 l 1,34,-1
 1177 184 l 1,35,36
 1067 105 1067 105 966 65 c 0,37,38
 866 24 866 24 785 24 c 0,0,1
736 147 m 0,39,40
 878 147 878 147 993 192 c 0,41,42
 1108 238 1108 238 1177 318 c 1,43,-1
 1177 466 l 1,44,45
 1123 412 1123 412 1067 383 c 0,46,47
 1010 355 1010 355 956 355 c 0,48,49
 805 355 805 355 697 452 c 128,-1,50
 589 549 589 549 589 686 c 0,51,52
 589 786 589 786 675 859 c 0,53,54
 761 931 761 931 883 931 c 0,55,56
 954 931 954 931 1031 886 c 0,57,58
 1108 840 1108 840 1177 760 c 1,59,-1
 1177 1102 l 1,60,-1
 332 1104 l 1,61,62
 369 1094 369 1094 388 1060 c 0,63,64
 402 1035 402 1035 406 984 c 1,65,-1
 406 735 l 2,66,67
 406 635 406 635 374 573 c 0,68,69
 334 500 334 500 295 461 c 1,70,71
 378 316 378 316 497 232 c 0,72,73
 616 147 616 147 736 147 c 0,39,40
858 466 m 0,74,75
 947 466 947 466 1031 514 c 0,76,77
 1116 564 1116 564 1177 649 c 1,78,-1
 1177 691 l 1,79,80
 1108 747 1108 747 1046 778 c 0,81,82
 983 808 983 808 932 808 c 0,83,84
 836 808 836 808 768 758 c 0,85,86
 699 708 699 708 699 637 c 128,-1,87
 699 566 699 566 746 516 c 0,88,89
 792 466 792 466 858 466 c 0,74,75
EndSplineSet
EndChar

StartChar: uni0917
Encoding: 2327 2327 126
Width: 983
Flags: W
AnchorPoint: "Anchor-10" 795 120 basechar 0
AnchorPoint: "Anchor-9" 780 1155 basechar 0
AnchorPoint: "Anchor-5" 795 885 basechar 0
AnchorPoint: "Anchor-4" 780 1155 basechar 0
AnchorPoint: "Anchor-3" 780 1170 basechar 0
LayerCount: 2
Fore
SplineSet
325 416 m 0,0,1
 254 416 254 416 167 495 c 0,2,3
 80 573 80 573 80 637 c 0,4,5
 80 661 80 661 105 680 c 0,6,7
 131 698 131 698 166 698 c 2,8,-1
 251 698 l 1,9,-1
 251 1105 l 1,10,-1
 0 1105 l 1,11,-1
 -86 1220 l 1,12,-1
 974 1220 l 1,13,-1
 1060 1105 l 1,14,-1
 864 1105 l 1,15,-1
 864 0 l 1,16,-1
 729 74 l 1,17,-1
 729 1105 l 1,18,-1
 386 1105 l 1,19,-1
 386 490 l 2,20,21
 386 461 386 461 367.5 438.5 c 128,-1,22
 349 416 349 416 325 416 c 0,0,1
EndSplineSet
EndChar

StartChar: uni0918
Encoding: 2328 2328 127
Width: 1066
Flags: W
AnchorPoint: "Anchor-10" 870 135 basechar 0
AnchorPoint: "Anchor-9" 885 1155 basechar 0
AnchorPoint: "Anchor-5" 855 915 basechar 0
AnchorPoint: "Anchor-4" 885 1155 basechar 0
AnchorPoint: "Anchor-3" 885 1155 basechar 0
LayerCount: 2
Fore
SplineSet
135 637 m 0,0,1
 135 684 135 684 168 726 c 0,2,3
 201 769 201 769 258 796 c 1,4,5
 189 835 189 835 150 892 c 0,6,7
 104 957 104 957 109 998 c 0,8,9
 110 1001 110 1001 110 1004 c 0,10,11
 118 1038 118 1038 120 1056 c 0,12,13
 123 1080 123 1080 196 1105 c 1,14,-1
 0 1105 l 1,15,-1
 -86 1220 l 1,16,-1
 1066 1220 l 1,17,-1
 1152 1105 l 1,18,-1
 956 1105 l 1,19,-1
 956 0 l 1,20,-1
 821 74 l 1,21,-1
 821 466 l 1,22,23
 762 394 762 394 691 356 c 128,-1,24
 620 318 620 318 552 318 c 0,25,26
 380 318 380 318 258 412 c 0,27,28
 135 505 135 505 135 637 c 0,0,1
454 416 m 0,29,30
 554 416 554 416 653 485 c 128,-1,31
 752 554 752 554 821 674 c 1,32,-1
 821 1102 l 1,33,-1
 331 1102 l 1,34,35
 287 1085 287 1085 260 1052 c 128,-1,36
 233 1019 233 1019 233 980 c 0,37,38
 233 946 233 946 265 903 c 128,-1,39
 297 860 297 860 356 821 c 1,40,41
 402 833 402 833 441 833 c 0,42,43
 471 833 471 833 493 829 c 0,44,45
 515 826 515 826 527 821 c 1,46,-1
 576 674 l 1,47,48
 554 686 554 686 523 692 c 0,49,50
 493 698 493 698 454 698 c 0,51,52
 373 698 373 698 315 655 c 0,53,54
 258 613 258 613 258 551 c 0,55,56
 258 495 258 495 315 456 c 0,57,58
 373 416 373 416 454 416 c 0,29,30
EndSplineSet
EndChar

StartChar: uni0919
Encoding: 2329 2329 128
Width: 1340
Flags: W
AnchorPoint: "Anchor-10" 690 45 basechar 0
AnchorPoint: "Anchor-9" 825 1155 basechar 0
AnchorPoint: "Anchor-5" 840 915 basechar 0
AnchorPoint: "Anchor-4" 825 1155 basechar 0
AnchorPoint: "Anchor-3" 780 1185 basechar 0
LayerCount: 2
Fore
SplineSet
701 0 m 0,0,1
 556 0 556 0 385 131 c 0,2,3
 213 260 213 260 52 491 c 1,4,-1
 113 540 l 1,5,6
 243 356 243 356 385 252 c 128,-1,7
 527 148 527 148 652 148 c 0,8,9
 757 148 757 148 831 209 c 0,10,11
 904 270 904 270 904 356 c 0,12,13
 904 400 904 400 866 431 c 0,14,15
 828 461 828 461 774 461 c 0,16,17
 733 461 733 461 652 439 c 128,-1,18
 571 417 571 417 530 417 c 0,19,20
 431 417 431 417 334 532 c 0,21,22
 236 648 236 648 236 760 c 0,23,24
 236 831 236 831 293 882 c 0,25,26
 351 932 351 932 432 932 c 2,27,-1
 750 932 l 1,28,-1
 750 1105 l 1,29,-1
 0 1105 l 1,30,-1
 -86 1220 l 1,31,-1
 1345 1220 l 1,32,-1
 1431 1105 l 1,33,-1
 885 1105 l 1,34,-1
 885 785 l 1,35,-1
 505 785 l 2,36,37
 444 785 444 785 401 749 c 0,38,39
 358 714 358 714 358 662 c 0,40,41
 358 621 358 621 401 592 c 0,42,43
 444 564 444 564 505 564 c 0,44,45
 544 564 544 564 621 583 c 0,46,47
 699 601 699 601 738 601 c 0,48,49
 821 601 821 601 914 496 c 0,50,51
 1007 390 1007 390 1007 295 c 0,52,53
 1007 172 1007 172 918 86 c 0,54,55
 828 1 828 1 701 0 c 0,0,1
1093 552 m 1,56,-1
 958 687 l 1,57,-1
 1093 834 l 1,58,-1
 1228 687 l 1,59,-1
 1093 552 l 1,56,-1
EndSplineSet
EndChar

StartChar: uni091A
Encoding: 2330 2330 129
Width: 1223
Flags: W
AnchorPoint: "Anchor-10" 1020 45 basechar 0
AnchorPoint: "Anchor-9" 1005 1140 basechar 0
AnchorPoint: "Anchor-5" 1035 930 basechar 0
AnchorPoint: "Anchor-4" 1005 1140 basechar 0
AnchorPoint: "Anchor-3" 1020 1155 basechar 0
LayerCount: 2
Fore
SplineSet
292 564 m 0,0,1
 292 605 292 605 311 643 c 0,2,3
 331 681 331 681 365 710 c 1,4,-1
 132 710 l 1,5,-1
 46 845 l 1,6,-1
 818 845 l 1,7,-1
 904 710 l 1,8,-1
 561 710 l 1,9,10
 505 679 505 679 472 632 c 0,11,12
 438 586 438 586 438 539 c 0,13,14
 438 473 438 473 481 426.5 c 128,-1,15
 524 380 524 380 586 380 c 0,16,17
 676 380 676 380 773 435 c 128,-1,18
 870 490 870 490 953 588 c 1,19,-1
 953 1105 l 1,20,-1
 0 1105 l 1,21,-1
 -86 1220 l 1,22,-1
 1222 1220 l 1,23,-1
 1308 1105 l 1,24,-1
 1088 1105 l 1,25,-1
 1088 0 l 1,26,-1
 953 74 l 1,27,-1
 953 404 l 1,28,29
 875 338 875 338 799 304 c 128,-1,30
 723 270 723 270 659 270 c 0,31,32
 546 270 546 270 419 371 c 0,33,34
 292 473 292 473 292 564 c 0,0,1
EndSplineSet
EndChar

StartChar: uni091B
Encoding: 2331 2331 130
Width: 1274
Flags: W
AnchorPoint: "Anchor-10" 675 45 basechar 0
AnchorPoint: "Anchor-9" 930 1140 basechar 0
AnchorPoint: "Anchor-5" 930 930 basechar 0
AnchorPoint: "Anchor-4" 930 1140 basechar 0
AnchorPoint: "Anchor-3" 930 1170 basechar 0
LayerCount: 2
Fore
SplineSet
651 20 m 0,0,1
 506 20 506 20 358 118 c 128,-1,2
 210 216 210 216 210 314 c 0,3,4
 210 368 210 368 230 411 c 0,5,6
 249 454 249 454 284 473 c 1,7,8
 193 515 193 515 140 575 c 0,9,10
 88 635 88 635 88 694 c 0,11,12
 88 784 88 784 166 849 c 128,-1,13
 244 914 244 914 357 914 c 0,14,15
 408 914 408 914 449 909 c 0,16,17
 489 904 489 904 516 895 c 1,18,-1
 578 755 l 1,19,20
 511 780 511 780 480 780 c 0,21,22
 374 780 374 780 298 740 c 0,23,24
 222 701 222 701 222 645 c 0,25,26
 222 618 222 618 251.5 582.5 c 128,-1,27
 281 547 281 547 332 510 c 1,28,29
 411 547 411 547 553 547 c 1,30,-1
 639 400 l 1,31,-1
 504 400 l 2,32,33
 443 400 443 400 400 361 c 0,34,35
 357 321 357 321 357 265 c 128,-1,36
 357 209 357 209 415 169 c 0,37,38
 472 130 472 130 553 130 c 0,39,40
 693 130 693 130 808 189 c 128,-1,41
 923 248 923 248 982 351 c 1,42,43
 842 417 842 417 759 512 c 0,44,45
 676 608 676 608 676 706 c 0,46,47
 676 794 676 794 724 860 c 0,48,49
 774 926 774 926 859 939 c 1,50,-1
 859 1105 l 1,51,-1
 0 1105 l 1,52,-1
 -86 1220 l 1,53,-1
 1274 1220 l 1,54,-1
 1360 1105 l 1,55,-1
 994 1105 l 1,56,-1
 994 926 l 1,57,58
 1097 868 1097 868 1156 782 c 0,59,60
 1214 696 1214 696 1214 608 c 0,61,62
 1214 365 1214 365 1049 193 c 0,63,64
 884 20 884 20 651 20 c 0,0,1
1006 412 m 1,65,66
 1048 461 1048 461 1070 525 c 0,67,68
 1092 588 1092 588 1092 657 c 0,69,70
 1092 733 1092 733 1056 787 c 0,71,72
 1021 841 1021 841 970 841 c 0,73,74
 913 841 913 841 874 794 c 0,75,76
 835 748 835 748 835 682 c 0,77,78
 835 610 835 610 880 539 c 128,-1,79
 925 468 925 468 1006 412 c 1,65,66
EndSplineSet
EndChar

StartChar: uni091C
Encoding: 2332 2332 131
Width: 1227
Flags: W
AnchorPoint: "Anchor-10" 990 120 basechar 0
AnchorPoint: "Anchor-9" 1005 1155 basechar 0
AnchorPoint: "Anchor-5" 1020 930 basechar 0
AnchorPoint: "Anchor-4" 1005 1155 basechar 0
AnchorPoint: "Anchor-3" 1005 1170 basechar 0
LayerCount: 2
Fore
SplineSet
67 747 m 1,0,-1
 140 796 l 1,1,2
 226 612 226 612 336 502 c 0,3,4
 447 392 447 392 545 392 c 0,5,6
 591 392 591 392 623 428 c 0,7,8
 655 463 655 463 655 514 c 0,9,10
 655 595 655 595 568 676 c 128,-1,11
 481 757 481 757 336 808 c 1,12,-1
 349 858 l 1,13,-1
 949 858 l 1,14,-1
 949 1105 l 1,15,-1
 0 1105 l 1,16,-1
 -86 1220 l 1,17,-1
 1218 1220 l 1,18,-1
 1304 1105 l 1,19,-1
 1084 1105 l 1,20,-1
 1084 0 l 1,21,-1
 949 74 l 1,22,-1
 949 710 l 1,23,-1
 630 710 l 1,24,25
 711 642 711 642 757 571 c 0,26,27
 802 500 802 500 802 441 c 0,28,29
 802 350 802 350 737 285 c 128,-1,30
 672 220 672 220 582 220 c 0,31,32
 459 220 459 220 319 364 c 0,33,34
 180 507 180 507 67 747 c 1,0,-1
EndSplineSet
EndChar

StartChar: uni091D
Encoding: 2333 2333 132
Width: 1214
Flags: W
AnchorPoint: "Anchor-10" 975 135 basechar 0
AnchorPoint: "Anchor-9" 990 1140 basechar 0
AnchorPoint: "Anchor-5" 1020 930 basechar 0
AnchorPoint: "Anchor-4" 990 1140 basechar 0
AnchorPoint: "Anchor-3" 1005 1170 basechar 0
LayerCount: 2
Fore
SplineSet
626 -196 m 1,0,-1
 406 49 l 1,1,2
 293 49 293 49 215 103 c 0,3,4
 136 157 136 157 136 233 c 0,5,6
 136 267 136 267 162 293 c 0,7,8
 188 318 188 318 222 318 c 0,9,10
 249 318 249 318 291 287 c 0,11,12
 332 255 332 255 382 196 c 1,13,14
 499 196 499 196 581 254 c 0,15,16
 663 311 663 311 663 392 c 0,17,18
 663 426 663 426 638 452 c 0,19,20
 612 478 612 478 578 478 c 0,21,22
 553 478 553 478 504 466 c 0,23,24
 455 453 455 453 430 453 c 0,25,26
 333 453 333 453 222 576 c 0,27,28
 112 698 112 698 112 808 c 0,29,30
 112 870 112 870 173 913 c 0,31,32
 234 955 234 955 320 956 c 2,33,-1
 540 956 l 1,34,-1
 540 1105 l 1,35,-1
 0 1105 l 1,36,-1
 -86 1220 l 1,37,-1
 1214 1220 l 1,38,-1
 1300 1105 l 1,39,-1
 1088 1105 l 1,40,-1
 1088 0 l 1,41,-1
 945 74 l 1,42,-1
 945 539 l 1,43,44
 916 510 916 510 884 494 c 128,-1,45
 852 478 852 478 822 478 c 0,46,47
 793 478 793 478 762 488 c 0,48,49
 732 497 732 497 700 514 c 1,50,51
 725 480 725 480 737 442 c 128,-1,52
 749 404 749 404 749 368 c 0,53,54
 749 265 749 265 674 179 c 0,55,56
 600 93 600 93 480 61 c 1,57,-1
 700 -122 l 1,58,-1
 626 -196 l 1,0,-1
357 576 m 0,59,60
 386 576 386 576 443 600 c 0,61,62
 499 625 499 625 528 625 c 0,63,64
 563 625 563 625 597 615 c 128,-1,65
 631 605 631 605 663 588 c 1,66,67
 744 588 744 588 816 614 c 0,68,69
 889 639 889 639 945 686 c 1,70,-1
 945 1102 l 1,71,-1
 676 1102 l 1,72,-1
 676 808 l 1,73,-1
 382 808 l 2,74,75
 320 808 320 808 277 780 c 128,-1,76
 234 752 234 752 234 710 c 0,77,78
 234 654 234 654 270 615 c 128,-1,79
 306 576 306 576 357 576 c 0,59,60
EndSplineSet
EndChar

StartChar: uni091E
Encoding: 2334 2334 133
Width: 1218
Flags: W
AnchorPoint: "Anchor-10" 1005 120 basechar 0
AnchorPoint: "Anchor-9" 1035 1140 basechar 0
AnchorPoint: "Anchor-5" 1005 945 basechar 0
AnchorPoint: "Anchor-4" 1035 1140 basechar 0
AnchorPoint: "Anchor-3" 1005 1170 basechar 0
LayerCount: 2
Fore
SplineSet
945 546 m 2,0,1
 944 497 944 497 889 475 c 0,2,3
 857 463 857 463 822 463 c 0,4,5
 776 463 776 463 740 484 c 0,6,7
 705 505 705 505 700 537 c 1,8,9
 668 416 668 416 586 342 c 0,10,11
 504 267 504 267 406 267 c 0,12,13
 274 267 274 267 145 355 c 128,-1,14
 16 443 16 443 -72 598 c 1,15,-1
 -10 647 l 1,16,17
 70 532 70 532 161 467 c 128,-1,18
 252 402 252 402 332 402 c 0,19,20
 433 402 433 402 505 467 c 0,21,22
 578 532 578 532 578 622 c 0,23,24
 578 674 578 674 546 709 c 0,25,26
 514 745 514 745 467 745 c 0,27,28
 433 745 433 745 390 713 c 128,-1,29
 347 681 347 681 308 622 c 1,30,-1
 173 757 l 1,31,32
 210 808 210 808 269 838 c 0,33,34
 328 867 328 867 394 867 c 0,35,36
 453 867 453 867 504 848 c 0,37,38
 555 828 555 828 590 794 c 0,39,40
 636 747 636 747 662 709 c 128,-1,41
 688 671 688 671 688 647 c 1,42,43
 700 625 700 625 727 611 c 0,44,45
 754 598 754 598 786 598 c 0,46,47
 820 598 820 598 862 616 c 0,48,49
 883 626 883 626 945 674 c 1,50,-1
 945 1105 l 1,51,-1
 533 1105 l 1,52,-1
 0 1105 l 1,53,-1
 -86 1220 l 1,54,-1
 1214 1220 l 1,55,-1
 1300 1105 l 1,56,-1
 1080 1105 l 1,57,-1
 1080 0 l 1,58,-1
 945 74 l 1,59,-1
 945 546 l 2,0,1
EndSplineSet
EndChar

StartChar: uni091F
Encoding: 2335 2335 134
Width: 928
Flags: W
AnchorPoint: "Anchor-10" 570 30 basechar 0
AnchorPoint: "Anchor-9" 615 1155 basechar 0
AnchorPoint: "Anchor-5" 630 945 basechar 0
AnchorPoint: "Anchor-4" 615 1155 basechar 0
AnchorPoint: "Anchor-3" 630 1170 basechar 0
LayerCount: 2
Fore
SplineSet
0 1105 m 1,0,-1
 -86 1220 l 1,1,-1
 930 1220 l 1,2,-1
 1016 1105 l 1,3,-1
 691 1105 l 1,4,-1
 691 772 l 2,5,6
 691 730 691 730 666 699 c 0,7,8
 642 669 642 669 605 662 c 1,9,10
 429 662 429 662 309 572 c 1,11,12
 189 497 189 497 189 404 c 0,13,14
 189 304 189 304 271 232 c 0,15,16
 353 159 353 159 470 159 c 0,17,18
 538 159 538 159 647 194 c 0,19,20
 756 228 756 228 812 282 c 1,21,-1
 887 147 l 1,22,23
 801 88 801 88 720 56 c 0,24,25
 640 24 640 24 568 24 c 0,26,27
 360 24 360 24 213 164 c 128,-1,28
 66 304 66 304 66 502 c 0,29,30
 66 593 66 593 180 673 c 0,31,32
 303 758 303 758 470 784 c 0,33,34
 502 789 502 789 523 806 c 0,35,36
 546 824 546 824 546 845 c 2,37,-1
 546 1105 l 1,38,-1
 0 1105 l 1,0,-1
EndSplineSet
EndChar

StartChar: uni0920
Encoding: 2336 2336 135
Width: 1019
Flags: W
AnchorPoint: "Anchor-10" 555 30 basechar 0
AnchorPoint: "Anchor-9" 615 1140 basechar 0
AnchorPoint: "Anchor-5" 630 915 basechar 0
AnchorPoint: "Anchor-4" 615 1140 basechar 0
AnchorPoint: "Anchor-3" 600 1170 basechar 0
LayerCount: 2
Fore
SplineSet
540 27 m 0,0,1
 364 27 364 27 201 170 c 0,2,3
 38 314 38 314 38 468 c 0,4,5
 38 583 38 583 147 671 c 0,6,7
 254 758 254 758 418 774 c 0,8,9
 492 782 492 782 554 828 c 0,10,11
 614 875 614 875 614 934 c 0,12,13
 614 980 614 980 598 1025 c 0,14,15
 582 1071 582 1071 552 1105 c 1,16,-1
 0 1105 l 1,17,-1
 -86 1220 l 1,18,-1
 1020 1220 l 1,19,-1
 1116 1105 l 1,20,-1
 687 1105 l 1,21,22
 724 1063 724 1063 742 1019 c 128,-1,23
 760 975 760 975 760 934 c 0,24,25
 760 858 760 858 745 800 c 0,26,27
 729 742 729 742 699 713 c 1,28,29
 807 652 807 652 870 572 c 0,30,31
 932 493 932 493 932 419 c 0,32,33
 932 257 932 257 817 142 c 128,-1,34
 702 27 702 27 540 27 c 0,0,1
466 162 m 1,35,36
 640 162 640 162 700 227 c 0,37,38
 773 306 773 306 773 442 c 0,39,40
 773 519 773 519 730 554 c 2,41,-1
 635 629 l 1,42,43
 362 629 362 629 291 569 c 0,44,45
 207 495 207 495 207 392 c 0,46,47
 207 302 207 302 300 237 c 128,-1,48
 393 172 393 172 466 172 c 1,49,-1
 466 162 l 1,35,36
EndSplineSet
EndChar

StartChar: uni0921
Encoding: 2337 2337 136
Width: 1094
Flags: W
AnchorPoint: "Anchor-10" 720 15 basechar 0
AnchorPoint: "Anchor-9" 825 1170 basechar 0
AnchorPoint: "Anchor-5" 825 960 basechar 0
AnchorPoint: "Anchor-4" 825 1170 basechar 0
AnchorPoint: "Anchor-3" 825 1170 basechar 0
LayerCount: 2
Fore
SplineSet
707 20 m 0,0,1
 548 20 548 20 373 142 c 0,2,3
 197 265 197 265 46 481 c 1,4,-1
 114 522 l 1,5,6
 232 356 232 356 375 261 c 0,7,8
 518 167 518 167 658 167 c 0,9,10
 763 167 763 167 839 225 c 0,11,12
 915 282 915 282 915 363 c 0,13,14
 915 397 915 397 883 423 c 0,15,16
 852 449 852 449 805 449 c 0,17,18
 763 449 763 449 682.5 424.5 c 128,-1,19
 602 400 602 400 560 400 c 0,20,21
 460 400 460 400 357 519 c 0,22,23
 254 637 254 637 254 755 c 0,24,25
 254 826 254 826 311 876 c 0,26,27
 369 926 369 926 450 926 c 2,28,-1
 756 926 l 1,29,-1
 756 1105 l 1,30,-1
 0 1105 l 1,31,-1
 -86 1220 l 1,32,-1
 1099 1220 l 1,33,-1
 1185 1105 l 1,34,-1
 891 1105 l 1,35,-1
 891 780 l 1,36,-1
 511 780 l 2,37,38
 455 780 455 780 415 751 c 0,39,40
 376 723 376 723 376 682 c 0,41,42
 376 625 376 625 408 586 c 128,-1,43
 440 547 440 547 486 547 c 0,44,45
 531 547 531 547 615 571 c 0,46,47
 700 596 700 596 744 596 c 0,48,49
 832 596 832 596 939 483 c 0,50,51
 1045 370 1045 370 1045 277 c 0,52,53
 1045 172 1045 172 946 96 c 128,-1,54
 847 20 847 20 707 20 c 0,0,1
EndSplineSet
EndChar

StartChar: uni0922
Encoding: 2338 2338 137
Width: 980
Flags: W
AnchorPoint: "Anchor-10" 630 30 basechar 0
AnchorPoint: "Anchor-9" 765 1155 basechar 0
AnchorPoint: "Anchor-5" 780 915 basechar 0
AnchorPoint: "Anchor-4" 765 1155 basechar 0
AnchorPoint: "Anchor-3" 765 1170 basechar 0
LayerCount: 2
Fore
SplineSet
652 20 m 0,0,1
 434 20 434 20 249 198 c 0,2,3
 64 375 64 375 64 584 c 0,4,5
 64 716 64 716 172 809 c 128,-1,6
 280 902 280 902 432 902 c 2,7,-1
 701 902 l 1,8,-1
 701 1105 l 1,9,-1
 0 1105 l 1,10,-1
 -86 1220 l 1,11,-1
 980 1220 l 1,12,-1
 1066 1105 l 1,13,-1
 836 1105 l 1,14,-1
 836 755 l 1,15,-1
 530 755 l 2,16,17
 392 755 392 755 296 690 c 0,18,19
 199 625 199 625 199 534 c 0,20,21
 199 380 199 380 291 267 c 0,22,23
 382 155 382 155 517 142 c 1,24,25
 480 194 480 194 462 254 c 128,-1,26
 444 314 444 314 444 375 c 0,27,28
 444 466 444 466 509 531 c 128,-1,29
 574 596 574 596 664 596 c 0,30,31
 779 596 779 596 860 506 c 0,32,33
 941 417 941 417 941 290 c 0,34,35
 941 177 941 177 857 98 c 0,36,37
 772 20 772 20 652 20 c 0,0,1
578 130 m 1,38,39
 684 111 684 111 766 174 c 0,40,41
 848 238 848 238 848 338 c 0,42,43
 848 390 848 390 805 425 c 0,44,45
 762 461 762 461 701 461 c 0,46,47
 635 461 635 461 588 411 c 0,48,49
 542 361 542 361 542 290 c 0,50,51
 542 243 542 243 552 203 c 0,52,53
 561 162 561 162 578 130 c 1,38,39
EndSplineSet
EndChar

StartChar: uni0923
Encoding: 2339 2339 138
Width: 1016
Flags: W
AnchorPoint: "Anchor-10" 840 105 basechar 0
AnchorPoint: "Anchor-9" 855 1155 basechar 0
AnchorPoint: "Anchor-5" 870 915 basechar 0
AnchorPoint: "Anchor-4" 855 1155 basechar 0
AnchorPoint: "Anchor-3" 870 1155 basechar 0
LayerCount: 2
Fore
SplineSet
76 840 m 1,0,-1
 76 1105 l 1,1,-1
 0 1105 l 1,2,-1
 -86 1220 l 1,3,-1
 1014 1220 l 1,4,-1
 1100 1105 l 1,5,-1
 924 1105 l 1,6,-1
 924 0 l 1,7,-1
 789 74 l 1,8,-1
 789 1105 l 1,9,-1
 614 1102 l 1,10,-1
 614 588 l 2,11,12
 614 492 614 492 546 424 c 0,13,14
 494 372 494 372 394 355 c 0,15,16
 244 330 244 330 147 460 c 0,17,18
 65 570 65 570 74 672 c 1,19,-1
 76 686 l 1,20,-1
 76 840 l 1,0,-1
332 478 m 0,21,22
 394 478 394 478 436 517 c 0,23,24
 479 556 479 556 479 612 c 2,25,-1
 479 1102 l 1,26,-1
 212 1102 l 1,27,-1
 212 637 l 2,28,29
 212 571 212 571 247 524 c 0,30,31
 283 478 283 478 332 478 c 0,21,22
EndSplineSet
EndChar

StartChar: uni0924
Encoding: 2340 2340 139
Width: 899
Flags: W
AnchorPoint: "Anchor-10" 690 90 basechar 0
AnchorPoint: "Anchor-9" 720 1155 basechar 0
AnchorPoint: "Anchor-5" 705 915 basechar 0
AnchorPoint: "Anchor-4" 720 1155 basechar 0
AnchorPoint: "Anchor-3" 705 1155 basechar 0
LayerCount: 2
Fore
SplineSet
91 671 m 1,0,1
 112 732 112 732 148 764 c 0,2,3
 269 870 269 870 359 870 c 2,4,-1
 653 870 l 1,5,-1
 653 1105 l 1,6,-1
 0 1105 l 1,7,-1
 -86 1220 l 1,8,-1
 900 1220 l 1,9,-1
 986 1105 l 1,10,-1
 788 1105 l 1,11,-1
 788 0 l 1,12,-1
 653 74 l 1,13,-1
 653 735 l 1,14,-1
 408 735 l 2,15,16
 317 735 317 735 252 677 c 0,17,18
 188 620 188 620 188 539 c 0,19,20
 188 434 188 434 255 309 c 128,-1,21
 322 184 322 184 445 61 c 1,22,-1
 384 12 l 1,23,24
 173 223 173 223 130 333 c 0,25,26
 76 472 76 472 76 552 c 1,27,-1
 91 671 l 1,0,1
EndSplineSet
EndChar

StartChar: uni0925
Encoding: 2341 2341 140
Width: 1106
Flags: W
AnchorPoint: "Anchor-10" 885 120 basechar 0
AnchorPoint: "Anchor-9" 900 1155 basechar 0
AnchorPoint: "Anchor-5" 900 915 basechar 0
AnchorPoint: "Anchor-4" 900 1155 basechar 0
AnchorPoint: "Anchor-3" 930 1170 basechar 0
LayerCount: 2
Fore
SplineSet
704 1102 m 1,0,-1
 618 1220 l 1,1,-1
 1100 1220 l 1,2,-1
 1186 1105 l 1,3,-1
 962 1105 l 1,4,-1
 962 0 l 1,5,-1
 827 74 l 1,6,-1
 827 416 l 1,7,8
 756 345 756 345 676 307 c 0,9,10
 597 270 597 270 521 270 c 0,11,12
 379 270 379 270 257 364 c 0,13,14
 136 458 136 458 80 612 c 1,15,16
 165 612 165 612 244 641 c 0,17,18
 322 669 322 669 386 723 c 1,19,20
 234 764 234 764 139 856 c 0,21,22
 43 948 43 948 43 1054 c 0,23,24
 43 1134 43 1134 112 1192 c 0,25,26
 180 1250 180 1250 276 1250 c 0,27,28
 403 1250 403 1250 511 1142 c 128,-1,29
 619 1034 619 1034 619 906 c 0,30,31
 619 760 619 760 510 650 c 0,32,33
 401 541 401 541 239 527 c 1,34,35
 256 468 256 468 317 430 c 0,36,37
 379 392 379 392 460 392 c 0,38,39
 565 392 565 392 663 458 c 128,-1,40
 761 524 761 524 827 637 c 1,41,-1
 827 1105 l 1,42,-1
 704 1102 l 1,0,-1
423 772 m 1,43,44
 464 806 464 806 486 848 c 0,45,46
 508 889 508 889 508 931 c 0,47,48
 508 1022 508 1022 458 1087 c 128,-1,49
 408 1152 408 1152 337 1152 c 0,50,51
 276 1152 276 1152 233 1109 c 128,-1,52
 190 1066 190 1066 190 1004 c 0,53,54
 190 929 190 929 255 864 c 128,-1,55
 320 799 320 799 423 772 c 1,43,44
EndSplineSet
EndChar

StartChar: uni0926
Encoding: 2342 2342 141
Width: 871
Flags: W
AnchorPoint: "Anchor-10" 765 -105 basechar 0
AnchorPoint: "Anchor-9" 675 1155 basechar 0
AnchorPoint: "Anchor-5" 690 915 basechar 0
AnchorPoint: "Anchor-4" 675 1155 basechar 0
AnchorPoint: "Anchor-3" 675 1185 basechar 0
LayerCount: 2
Fore
SplineSet
0 1105 m 1,0,-1
 -86 1220 l 1,1,-1
 871 1220 l 1,2,-1
 957 1105 l 1,3,-1
 746 1105 l 1,4,-1
 746 679 l 1,5,-1
 452 679 l 2,6,7
 347 679 347 679 271 614 c 128,-1,8
 195 549 195 549 195 459 c 0,9,10
 195 312 195 312 273 247 c 0,11,12
 352 182 352 182 464 182 c 0,13,14
 494 182 494 182 522 192 c 128,-1,15
 550 202 550 202 575 219 c 1,16,17
 558 241 558 241 548 272 c 0,18,19
 538 302 538 302 538 342 c 0,20,21
 538 366 538 366 566 384 c 0,22,23
 594 403 594 403 636 403 c 0,24,25
 685 403 685 403 740 339 c 128,-1,26
 795 275 795 275 795 219 c 0,27,28
 795 190 795 190 772 160 c 0,29,30
 749 131 749 131 710 109 c 1,31,-1
 832 -124 l 1,32,-1
 722 -173 l 1,33,-1
 636 84 l 1,34,35
 609 72 609 72 572 66 c 0,36,37
 536 60 536 60 489 60 c 0,38,39
 352 60 352 60 212 199 c 0,40,41
 72 339 72 339 72 532 c 0,42,43
 72 655 72 655 173 740 c 0,44,45
 273 826 273 826 416 826 c 2,46,-1
 612 826 l 1,47,-1
 612 1105 l 1,48,-1
 50 1105 l 1,49,-1
 0 1105 l 1,0,-1
EndSplineSet
EndChar

StartChar: uni0927
Encoding: 2343 2343 142
Width: 1072
Flags: W
AnchorPoint: "Anchor-10" 885 105 basechar 0
AnchorPoint: "Anchor-9" 900 1155 basechar 0
AnchorPoint: "Anchor-5" 900 930 basechar 0
AnchorPoint: "Anchor-4" 900 1155 basechar 0
AnchorPoint: "Anchor-3" 900 1155 basechar 0
LayerCount: 2
Fore
SplineSet
139 564 m 0,0,1
 139 620 139 620 176 666 c 0,2,3
 213 713 213 713 274 735 c 1,4,5
 159 777 159 777 88 871 c 128,-1,6
 17 965 17 965 16 1078 c 0,7,8
 16 1159 16 1159 78 1216 c 0,9,10
 139 1274 139 1274 225 1274 c 0,11,12
 320 1274 320 1274 389 1216 c 0,13,14
 458 1159 458 1159 458 1078 c 0,15,16
 458 1007 458 1007 407 957 c 0,17,18
 357 906 357 906 286 906 c 0,19,20
 254 906 254 906 224 919 c 0,21,22
 193 931 193 931 164 956 c 1,23,24
 176 892 176 892 225 839 c 128,-1,25
 274 786 274 786 347 760 c 1,26,27
 487 784 487 784 531 784 c 1,28,-1
 604 662 l 1,29,30
 462 662 462 662 362 619 c 128,-1,31
 262 576 262 576 262 514 c 0,32,33
 262 453 262 453 312 410 c 0,34,35
 362 368 362 368 433 368 c 0,36,37
 521 368 521 368 640 432 c 0,38,39
 756 497 756 497 825 604 c 1,40,-1
 825 1105 l 1,41,-1
 617 1105 l 1,42,-1
 531 1220 l 1,43,-1
 1072 1220 l 1,44,-1
 1158 1105 l 1,45,-1
 960 1105 l 1,46,-1
 960 0 l 1,47,-1
 825 74 l 1,48,-1
 825 392 l 1,49,50
 754 333 754 333 672 301 c 0,51,52
 590 270 590 270 506 270 c 0,53,54
 355 270 355 270 247 355 c 0,55,56
 139 441 139 441 139 564 c 0,0,1
262 980 m 0,57,58
 308 980 308 980 340 1008 c 128,-1,59
 372 1036 372 1036 372 1078 c 0,60,61
 372 1129 372 1129 340 1165 c 0,62,63
 308 1200 308 1200 262 1200 c 0,64,65
 215 1200 215 1200 183 1165 c 0,66,67
 151 1129 151 1129 151 1078 c 0,68,69
 151 1036 151 1036 183 1008 c 128,-1,70
 215 980 215 980 262 980 c 0,57,58
EndSplineSet
EndChar

StartChar: uni0928
Encoding: 2344 2344 143
Width: 912
Flags: W
AnchorPoint: "Anchor-10" 720 105 basechar 0
AnchorPoint: "Anchor-9" 705 1140 basechar 0
AnchorPoint: "Anchor-5" 735 915 basechar 0
AnchorPoint: "Anchor-4" 705 1140 basechar 0
AnchorPoint: "Anchor-3" 735 1170 basechar 0
LayerCount: 2
Fore
SplineSet
69 637 m 0,0,1
 69 666 69 666 97 688 c 128,-1,2
 125 710 125 710 167 710 c 2,3,-1
 657 710 l 1,4,-1
 657 1102 l 1,5,-1
 3 1102 l 1,6,-1
 -107 1225 l 1,7,-1
 902 1225 l 1,8,-1
 1012 1102 l 1,9,-1
 804 1102 l 1,10,-1
 804 0 l 1,11,-1
 657 74 l 1,12,-1
 657 576 l 1,13,-1
 338 576 l 1,14,-1
 338 429 l 2,15,16
 338 404 338 404 324 386 c 0,17,18
 309 368 309 368 290 368 c 0,19,20
 236 368 236 368 152 469 c 0,21,22
 69 570 69 570 69 637 c 0,0,1
EndSplineSet
EndChar

StartChar: uni0929
Encoding: 2345 2345 144
Width: 912
Flags: W
AnchorPoint: "Anchor-10" 720 105 basechar 0
AnchorPoint: "Anchor-9" 735 1140 basechar 0
AnchorPoint: "Anchor-5" 735 975 basechar 0
AnchorPoint: "Anchor-4" 735 1140 basechar 0
AnchorPoint: "Anchor-3" 720 1155 basechar 0
LayerCount: 2
Fore
SplineSet
237 17 m 1,0,-1
 102 152 l 1,1,-1
 237 299 l 1,2,-1
 372 152 l 1,3,-1
 237 17 l 1,0,-1
69 637 m 0,4,5
 69 666 69 666 97 688 c 128,-1,6
 125 710 125 710 167 710 c 2,7,-1
 657 710 l 1,8,-1
 657 1102 l 1,9,-1
 3 1102 l 1,10,-1
 -107 1225 l 1,11,-1
 902 1225 l 1,12,-1
 1012 1102 l 1,13,-1
 804 1102 l 1,14,-1
 804 0 l 1,15,-1
 657 74 l 1,16,-1
 657 576 l 1,17,-1
 338 576 l 1,18,-1
 338 429 l 2,19,20
 338 404 338 404 324 386 c 0,21,22
 309 368 309 368 290 368 c 0,23,24
 236 368 236 368 152 469 c 0,25,26
 69 570 69 570 69 637 c 0,4,5
EndSplineSet
Ligature2: "'nukt' Nukta Forms in Devanagari lookup 0 subtable" uni0928 uni093C
EndChar

StartChar: uni092A
Encoding: 2346 2346 145
Width: 901
Flags: W
AnchorPoint: "Anchor-10" 675 105 basechar 0
AnchorPoint: "Anchor-9" 675 1140 basechar 0
AnchorPoint: "Anchor-5" 690 945 basechar 0
AnchorPoint: "Anchor-4" 675 1140 basechar 0
AnchorPoint: "Anchor-3" 705 1155 basechar 0
LayerCount: 2
Fore
SplineSet
82 723 m 1,0,-1
 82 1105 l 1,1,-1
 0 1105 l 1,2,-1
 -86 1220 l 1,3,-1
 900 1220 l 1,4,-1
 986 1105 l 1,5,-1
 756 1105 l 1,6,-1
 756 0 l 1,7,-1
 621 74 l 1,8,-1
 621 478 l 1,9,10
 579 441 579 441 528 423 c 0,11,12
 502 414 502 414 425 404 c 0,13,14
 322 392 322 392 239 452 c 0,15,16
 197 483 197 483 160 532 c 0,17,18
 73 647 73 647 82 723 c 1,0,-1
376 514 m 0,19,20
 463 512 463 512 520 540 c 0,21,22
 594 577 594 577 621 624 c 1,23,-1
 621 1102 l 1,24,-1
 217 1102 l 1,25,-1
 217 662 l 2,26,27
 217 612 217 612 272 557 c 0,28,29
 315 514 315 514 376 514 c 0,19,20
EndSplineSet
EndChar

StartChar: uni092B
Encoding: 2347 2347 146
Width: 1288
Flags: W
AnchorPoint: "Anchor-10" 660 105 basechar 0
AnchorPoint: "Anchor-9" 675 1155 basechar 0
AnchorPoint: "Anchor-5" 690 1005 basechar 0
AnchorPoint: "Anchor-4" 675 1155 basechar 0
AnchorPoint: "Anchor-3" 675 1155 basechar 0
LayerCount: 2
Fore
SplineSet
110 747 m 1,0,-1
 110 1105 l 1,1,-1
 0 1105 l 1,2,-1
 -86 1220 l 1,3,-1
 1286 1220 l 1,4,-1
 1372 1105 l 1,5,-1
 748 1105 l 1,6,-1
 748 704 l 1,7,8
 875 778 875 778 956 778 c 0,9,10
 1110 778 1110 778 1178 665 c 0,11,12
 1250 546 1250 546 1250 441 c 0,13,14
 1250 370 1250 370 1206 288 c 128,-1,15
 1162 206 1162 206 1078 122 c 1,16,-1
 956 220 l 1,17,18
 1037 289 1037 289 1082 363 c 0,19,20
 1128 436 1128 436 1128 502 c 0,21,22
 1128 564 1128 564 1092 606 c 0,23,24
 1056 649 1056 649 1005 649 c 0,25,26
 917 649 917 649 748 551 c 1,27,-1
 748 0 l 1,28,-1
 613 74 l 1,29,-1
 613 478 l 1,30,31
 579 448 579 448 531 432 c 128,-1,32
 483 416 483 416 429 416 c 0,33,34
 307 416 307 416 214 527 c 0,35,36
 144 612 144 612 110 747 c 1,0,-1
368 551 m 0,37,38
 444 551 444 551 490 567 c 0,39,40
 554 589 554 589 613 631 c 1,41,-1
 613 1105 l 1,42,-1
 246 1105 l 1,43,-1
 246 686 l 2,44,45
 246 630 246 630 281 590 c 0,46,47
 317 551 317 551 368 551 c 0,37,38
EndSplineSet
EndChar

StartChar: uni092C
Encoding: 2348 2348 147
Width: 971
Flags: W
AnchorPoint: "Anchor-10" 780 105 basechar 0
AnchorPoint: "Anchor-9" 780 1140 basechar 0
AnchorPoint: "Anchor-5" 795 960 basechar 0
AnchorPoint: "Anchor-4" 780 1140 basechar 0
AnchorPoint: "Anchor-3" 780 1155 basechar 0
LayerCount: 2
Fore
SplineSet
27 612 m 0,0,1
 27 735 27 735 124 821 c 0,2,3
 220 906 220 906 358 906 c 0,4,5
 451 906 451 906 545 869 c 0,6,7
 639 831 639 831 725 760 c 1,8,-1
 725 1105 l 1,9,-1
 0 1105 l 1,10,-1
 -86 1220 l 1,11,-1
 971 1220 l 1,12,-1
 1057 1105 l 1,13,-1
 860 1105 l 1,14,-1
 860 0 l 1,15,-1
 725 74 l 1,16,-1
 725 453 l 1,17,18
 652 365 652 365 558 317 c 0,19,20
 465 270 465 270 370 270 c 0,21,22
 250 270 250 270 138 381 c 0,23,24
 27 492 27 492 27 612 c 0,0,1
333 392 m 0,25,26
 433 392 433 392 468 404 c 1,27,-1
 260 747 l 1,28,29
 203 720 203 720 170 671 c 128,-1,30
 137 622 137 622 137 564 c 0,31,32
 137 492 137 492 195 442 c 0,33,34
 252 392 252 392 333 392 c 0,25,26
566 441 m 1,35,36
 639 475 639 475 682 522 c 0,37,38
 725 568 725 568 725 612 c 0,39,40
 725 684 725 684 639 734 c 128,-1,41
 553 784 553 784 431 784 c 0,42,43
 416 784 416 784 370 772 c 1,44,-1
 566 441 l 1,35,36
EndSplineSet
EndChar

StartChar: uni092D
Encoding: 2349 2349 148
Width: 1112
Flags: W
AnchorPoint: "Anchor-10" 900 90 basechar 0
AnchorPoint: "Anchor-9" 900 1140 basechar 0
AnchorPoint: "Anchor-5" 915 990 basechar 0
AnchorPoint: "Anchor-4" 900 1140 basechar 0
AnchorPoint: "Anchor-3" 900 1155 basechar 0
LayerCount: 2
Fore
SplineSet
163 576 m 0,0,1
 163 590 163 590 181 601 c 0,2,3
 200 612 200 612 224 612 c 2,4,-1
 334 612 l 1,5,-1
 334 760 l 1,6,7
 192 796 192 796 104 878 c 128,-1,8
 16 960 16 960 16 1054 c 0,9,10
 16 1125 16 1125 74 1175 c 0,11,12
 131 1225 131 1225 212 1225 c 0,13,14
 278 1225 278 1225 380 1118 c 0,15,16
 482 1012 482 1012 482 943 c 2,17,-1
 482 596 l 1,18,-1
 831 596 l 1,19,-1
 831 1105 l 1,20,-1
 641 1105 l 1,21,-1
 555 1220 l 1,22,-1
 1114 1220 l 1,23,-1
 1200 1105 l 1,24,-1
 966 1105 l 1,25,-1
 966 0 l 1,26,-1
 831 74 l 1,27,-1
 831 482 l 1,28,-1
 482 482 l 1,29,-1
 482 355 l 2,30,31
 482 331 482 331 467 312 c 0,32,33
 452 294 452 294 432 294 c 0,34,35
 366 294 366 294 265 401 c 0,36,37
 163 507 163 507 163 576 c 0,0,1
334 833 m 1,38,-1
 334 1004 l 2,39,40
 334 1046 334 1046 309 1074 c 0,41,42
 283 1102 283 1102 249 1102 c 0,43,44
 214 1102 214 1102 189 1074 c 0,45,46
 163 1046 163 1046 163 1004 c 0,47,48
 163 956 163 956 210 908 c 0,49,50
 256 860 256 860 334 833 c 1,38,-1
EndSplineSet
EndChar

StartChar: uni092E
Encoding: 2350 2350 149
Width: 993
Flags: W
AnchorPoint: "Anchor-10" 780 105 basechar 0
AnchorPoint: "Anchor-9" 765 1155 basechar 0
AnchorPoint: "Anchor-5" 795 1035 basechar 0
AnchorPoint: "Anchor-4" 765 1155 basechar 0
AnchorPoint: "Anchor-3" 795 1155 basechar 0
LayerCount: 2
Fore
SplineSet
51 564 m 0,0,1
 51 583 51 583 66 598 c 0,2,3
 81 612 81 612 100 612 c 2,4,-1
 186 612 l 1,5,-1
 186 1105 l 1,6,-1
 0 1105 l 1,7,-1
 -86 1220 l 1,8,-1
 994 1220 l 1,9,-1
 1080 1105 l 1,10,-1
 860 1105 l 1,11,-1
 860 0 l 1,12,-1
 725 74 l 1,13,-1
 725 482 l 1,14,-1
 333 482 l 1,15,-1
 333 368 l 2,16,17
 333 343 333 343 318 325 c 0,18,19
 304 306 304 306 284 306 c 0,20,21
 213 306 213 306 132 396 c 0,22,23
 51 485 51 485 51 564 c 0,0,1
333 596 m 1,24,-1
 725 596 l 1,25,-1
 725 1105 l 1,26,-1
 333 1105 l 1,27,-1
 333 596 l 1,24,-1
EndSplineSet
EndChar

StartChar: uni092F
Encoding: 2351 2351 150
Width: 1004
Flags: W
AnchorPoint: "Anchor-10" 840 105 basechar 0
AnchorPoint: "Anchor-9" 825 1155 basechar 0
AnchorPoint: "Anchor-5" 825 1050 basechar 0
AnchorPoint: "Anchor-4" 825 1155 basechar 0
AnchorPoint: "Anchor-3" 825 1155 basechar 0
LayerCount: 2
Fore
SplineSet
67 735 m 1,0,1
 199 735 199 735 292 782 c 0,2,3
 386 828 386 828 386 894 c 0,4,5
 386 938 386 938 360 992 c 128,-1,6
 334 1046 334 1046 288 1105 c 1,7,-1
 0 1105 l 1,8,-1
 -86 1220 l 1,9,-1
 1004 1220 l 1,10,-1
 1100 1105 l 1,11,-1
 888 1105 l 1,12,-1
 888 0 l 1,13,-1
 753 74 l 1,14,-1
 753 416 l 1,15,16
 689 363 689 363 623 334 c 0,17,18
 557 306 557 306 496 306 c 0,19,20
 341 311 341 311 220 432 c 0,21,22
 99 554 99 554 67 735 c 1,0,1
422 441 m 0,23,24
 582 441 582 441 616 460 c 0,25,26
 704 509 704 509 753 595 c 1,27,-1
 753 1105 l 1,28,-1
 404 1105 l 1,29,30
 475 1026 475 1026 488 974 c 0,31,32
 505 904 505 904 505 833 c 0,33,34
 505 740 505 740 422 677 c 0,35,36
 336 612 336 612 214 612 c 1,37,38
 214 541 214 541 275 491 c 0,39,40
 337 441 337 441 422 441 c 0,23,24
EndSplineSet
EndChar

StartChar: uni0930
Encoding: 2352 2352 151
Width: 700
Flags: W
AnchorPoint: "Anchor-10" 600 15 basechar 0
AnchorPoint: "Anchor-9" 360 1155 basechar 0
AnchorPoint: "Anchor-5" 360 975 basechar 0
AnchorPoint: "Anchor-4" 360 1155 basechar 0
AnchorPoint: "Anchor-3" 330 1170 basechar 0
LayerCount: 2
Fore
SplineSet
586 -24 m 1,0,-1
 72 539 l 2,1,2
 59 553 59 553 54 571 c 0,3,4
 47 590 47 590 47 612 c 0,5,6
 47 654 47 654 73 682 c 128,-1,7
 99 710 99 710 133 710 c 0,8,9
 148 710 148 710 185 704 c 0,10,11
 226 698 226 698 243 686 c 1,12,13
 255 713 255 713 262 737 c 0,14,15
 268 762 268 762 268 784 c 2,16,-1
 268 1105 l 1,17,-1
 0 1105 l 1,18,-1
 -86 1220 l 1,19,-1
 700 1220 l 1,20,-1
 786 1105 l 1,21,-1
 403 1105 l 1,22,-1
 403 662 l 2,23,24
 403 593 403 593 371 529 c 0,25,26
 339 466 339 466 280 416 c 1,27,-1
 660 49 l 1,28,-1
 586 -24 l 1,0,-1
EndSplineSet
EndChar

StartChar: uni0931
Encoding: 2353 2353 152
Width: 700
Flags: W
AnchorPoint: "Anchor-11" -45 30 basechar 0
AnchorPoint: "Anchor-10" 600 -15 basechar 0
AnchorPoint: "Anchor-9" 345 1155 basechar 0
AnchorPoint: "Anchor-5" 345 960 basechar 0
AnchorPoint: "Anchor-4" 345 1155 basechar 0
AnchorPoint: "Anchor-3" 345 1170 basechar 0
LayerCount: 2
Fore
SplineSet
112 92 m 1,0,-1
 4 200 l 1,1,-1
 112 317 l 1,2,-1
 220 200 l 1,3,-1
 112 92 l 1,0,-1
586 -24 m 1,4,-1
 72 539 l 2,5,6
 59 553 59 553 54 571 c 0,7,8
 47 590 47 590 47 612 c 0,9,10
 47 654 47 654 73 682 c 128,-1,11
 99 710 99 710 133 710 c 0,12,13
 148 710 148 710 185 704 c 0,14,15
 226 698 226 698 243 686 c 1,16,17
 255 713 255 713 262 737 c 0,18,19
 268 762 268 762 268 784 c 2,20,-1
 268 1105 l 1,21,-1
 0 1105 l 1,22,-1
 -86 1220 l 1,23,-1
 700 1220 l 1,24,-1
 786 1105 l 1,25,-1
 403 1105 l 1,26,-1
 403 662 l 2,27,28
 403 593 403 593 371 529 c 0,29,30
 339 466 339 466 280 416 c 1,31,-1
 660 49 l 1,32,-1
 586 -24 l 1,4,-1
EndSplineSet
Ligature2: "'nukt' Nukta Forms in Devanagari lookup 0 subtable" uni0930 uni093C
EndChar

StartChar: uni0932
Encoding: 2354 2354 153
Width: 1247
Flags: W
AnchorPoint: "Anchor-10" 1080 90 basechar 0
AnchorPoint: "Anchor-9" 1065 1140 basechar 0
AnchorPoint: "Anchor-5" 1065 960 basechar 0
AnchorPoint: "Anchor-4" 1065 1140 basechar 0
AnchorPoint: "Anchor-3" 1050 1170 basechar 0
LayerCount: 2
Fore
SplineSet
50 625 m 0,0,1
 50 725 50 725 128 797 c 0,2,3
 206 870 206 870 319 870 c 0,4,5
 395 870 395 870 467 821 c 0,6,7
 540 772 540 772 588 686 c 1,8,9
 645 767 645 767 710 812 c 0,10,11
 775 858 775 858 834 858 c 0,12,13
 890 858 890 858 935 842 c 0,14,15
 981 826 981 826 1005 796 c 1,16,-1
 1005 1105 l 1,17,-1
 0 1105 l 1,18,-1
 -86 1220 l 1,19,-1
 1247 1220 l 1,20,-1
 1333 1105 l 1,21,-1
 1140 1105 l 1,22,-1
 1140 0 l 1,23,-1
 1005 74 l 1,24,-1
 1005 698 l 1,25,26
 990 715 990 715 965 725 c 0,27,28
 939 735 939 735 907 735 c 0,29,30
 809 735 809 735 734 658 c 0,31,32
 660 581 660 581 650 466 c 1,33,-1
 527 551 l 1,34,35
 542 590 542 590 552 612 c 1,36,37
 513 671 513 671 454 703 c 128,-1,38
 395 735 395 735 331 735 c 0,39,40
 275 735 275 735 236 685 c 0,41,42
 196 635 196 635 196 564 c 0,43,44
 196 431 196 431 314 287 c 0,45,46
 432 142 432 142 638 24 c 1,47,-1
 601 -37 l 1,48,49
 348 81 348 81 199 260 c 128,-1,50
 50 439 50 439 50 625 c 0,0,1
EndSplineSet
EndChar

StartChar: uni0933
Encoding: 2355 2355 154
Width: 1341
Flags: W
AnchorPoint: "Anchor-10" 900 135 basechar 0
AnchorPoint: "Anchor-9" 1020 1140 basechar 0
AnchorPoint: "Anchor-5" 1020 960 basechar 0
AnchorPoint: "Anchor-4" 1020 1140 basechar 0
AnchorPoint: "Anchor-3" 1005 1155 basechar 0
LayerCount: 2
Fore
SplineSet
399 122 m 0,0,1
 269 122 269 122 151 241 c 0,2,3
 32 360 32 360 32 490 c 0,4,5
 32 637 32 637 125 741 c 128,-1,6
 218 845 218 845 350 845 c 0,7,8
 441 845 441 845 524 789 c 128,-1,9
 607 733 607 733 664 637 c 1,10,11
 728 730 728 730 801 782 c 0,12,13
 875 833 875 833 950 833 c 1,14,-1
 950 1105 l 1,15,-1
 0 1105 l 1,16,-1
 -86 1220 l 1,17,-1
 1330 1220 l 1,18,-1
 1416 1105 l 1,19,-1
 1085 1105 l 1,20,-1
 1085 808 l 1,21,22
 1178 745 1178 745 1230 653 c 0,23,24
 1281 561 1281 561 1281 466 c 0,25,26
 1281 323 1281 323 1188 223 c 0,27,28
 1095 122 1095 122 963 122 c 0,29,30
 887 122 887 122 807 160 c 128,-1,31
 727 198 727 198 656 270 c 1,32,33
 598 198 598 198 530 160 c 0,34,35
 463 122 463 122 399 122 c 0,0,1
326 245 m 0,36,37
 426 245 426 245 513 336 c 0,38,39
 600 426 600 426 639 571 c 1,40,41
 598 630 598 630 528 664 c 128,-1,42
 458 698 458 698 375 698 c 0,43,44
 279 698 279 698 211 622 c 0,45,46
 142 546 142 546 142 441 c 0,47,48
 142 360 142 360 196 303 c 0,49,50
 250 245 250 245 326 245 c 0,36,37
938 245 m 0,51,52
 1034 245 1034 245 1102 327 c 0,53,54
 1171 409 1171 409 1171 527 c 0,55,56
 1171 603 1171 603 1124 657 c 0,57,58
 1078 710 1078 710 1012 710 c 0,59,60
 909 710 909 710 817 608 c 0,61,62
 725 505 725 505 681 343 c 1,63,64
 708 296 708 296 776 271 c 0,65,66
 845 245 845 245 938 245 c 0,51,52
EndSplineSet
EndChar

StartChar: uni0934
Encoding: 2356 2356 155
Width: 1341
Flags: W
AnchorPoint: "Anchor-10" 795 150 basechar 0
AnchorPoint: "Anchor-9" 1005 1155 basechar 0
AnchorPoint: "Anchor-5" 1005 990 basechar 0
AnchorPoint: "Anchor-4" 1005 1155 basechar 0
AnchorPoint: "Anchor-3" 1020 1140 basechar 0
LayerCount: 2
Fore
SplineSet
287 -206 m 1,0,-1
 152 -71 l 1,1,-1
 287 76 l 1,2,-1
 422 -71 l 1,3,-1
 287 -206 l 1,0,-1
399 122 m 0,4,5
 269 122 269 122 151 241 c 0,6,7
 32 360 32 360 32 490 c 0,8,9
 32 637 32 637 125 741 c 128,-1,10
 218 845 218 845 350 845 c 0,11,12
 441 845 441 845 524 789 c 128,-1,13
 607 733 607 733 664 637 c 1,14,15
 728 730 728 730 801 782 c 0,16,17
 875 833 875 833 950 833 c 1,18,-1
 950 1105 l 1,19,-1
 0 1105 l 1,20,-1
 -86 1220 l 1,21,-1
 1330 1220 l 1,22,-1
 1416 1105 l 1,23,-1
 1085 1105 l 1,24,-1
 1085 808 l 1,25,26
 1178 745 1178 745 1230 653 c 0,27,28
 1281 561 1281 561 1281 466 c 0,29,30
 1281 323 1281 323 1188 223 c 0,31,32
 1095 122 1095 122 963 122 c 0,33,34
 887 122 887 122 807 160 c 128,-1,35
 727 198 727 198 656 270 c 1,36,37
 598 198 598 198 530 160 c 0,38,39
 463 122 463 122 399 122 c 0,4,5
326 245 m 0,40,41
 426 245 426 245 513 336 c 0,42,43
 600 426 600 426 639 571 c 1,44,45
 598 630 598 630 528 664 c 128,-1,46
 458 698 458 698 375 698 c 0,47,48
 279 698 279 698 211 622 c 0,49,50
 142 546 142 546 142 441 c 0,51,52
 142 360 142 360 196 303 c 0,53,54
 250 245 250 245 326 245 c 0,40,41
938 245 m 0,55,56
 1034 245 1034 245 1102 327 c 0,57,58
 1171 409 1171 409 1171 527 c 0,59,60
 1171 603 1171 603 1124 657 c 0,61,62
 1078 710 1078 710 1012 710 c 0,63,64
 909 710 909 710 817 608 c 0,65,66
 725 505 725 505 681 343 c 1,67,68
 708 296 708 296 776 271 c 0,69,70
 845 245 845 245 938 245 c 0,55,56
EndSplineSet
Ligature2: "'nukt' Nukta Forms in Devanagari lookup 0 subtable" uni0933 uni093C
EndChar

StartChar: uni0935
Encoding: 2357 2357 156
Width: 991
Flags: W
AnchorPoint: "Anchor-10" 795 105 basechar 0
AnchorPoint: "Anchor-9" 795 1140 basechar 0
AnchorPoint: "Anchor-5" 810 1035 basechar 0
AnchorPoint: "Anchor-4" 795 1140 basechar 0
AnchorPoint: "Anchor-3" 795 1155 basechar 0
LayerCount: 2
Fore
SplineSet
39 625 m 0,0,1
 39 730 39 730 139 806 c 0,2,3
 240 882 240 882 382 882 c 0,4,5
 478 882 478 882 569 831 c 0,6,7
 661 779 661 779 725 686 c 1,8,-1
 725 1105 l 1,9,-1
 0 1105 l 1,10,-1
 -86 1220 l 1,11,-1
 994 1220 l 1,12,-1
 1080 1105 l 1,13,-1
 860 1105 l 1,14,-1
 860 0 l 1,15,-1
 725 74 l 1,16,-1
 725 404 l 1,17,18
 661 341 661 341 590 305 c 0,19,20
 519 270 519 270 456 270 c 0,21,22
 301 270 301 270 170 381 c 128,-1,23
 39 492 39 492 39 625 c 0,0,1
352 404 m 0,24,25
 409 394 409 394 473 409 c 0,26,27
 505 417 505 417 538 431 c 0,28,29
 638 473 638 473 728 562 c 1,30,31
 676 636 676 636 601 685 c 0,32,33
 525 735 525 735 438 750 c 0,34,35
 369 762 369 762 309 748 c 0,36,37
 278 742 278 742 250 728 c 0,38,39
 166 688 166 688 153 614 c 0,40,41
 144 567 144 567 168 524 c 0,42,43
 179 503 179 503 199 482 c 0,44,45
 258 421 258 421 352 404 c 0,24,25
EndSplineSet
EndChar

StartChar: uni0936
Encoding: 2358 2358 157
Width: 1129
Flags: W
AnchorPoint: "Anchor-10" 930 105 basechar 0
AnchorPoint: "Anchor-9" 945 1155 basechar 0
AnchorPoint: "Anchor-5" 945 960 basechar 0
AnchorPoint: "Anchor-4" 945 1155 basechar 0
AnchorPoint: "Anchor-3" 930 1155 basechar 0
LayerCount: 2
Fore
SplineSet
575 -24 m 1,0,-1
 342 318 l 1,1,2
 315 309 315 309 284 304 c 0,3,4
 254 299 254 299 220 299 c 0,5,6
 144 299 144 299 90 344 c 0,7,8
 36 390 36 390 36 453 c 0,9,10
 36 495 36 495 75 523 c 128,-1,11
 114 551 114 551 171 551 c 0,12,13
 212 551 212 551 258 526 c 0,14,15
 303 500 303 500 342 453 c 1,16,17
 393 483 393 483 434 537 c 0,18,19
 474 590 474 590 501 662 c 1,20,21
 284 699 284 699 221 789 c 0,22,23
 152 887 152 887 152 1004 c 0,24,25
 152 1035 152 1035 158 1056 c 0,26,27
 166 1080 166 1080 177 1105 c 1,28,-1
 0 1105 l 1,29,-1
 -86 1220 l 1,30,-1
 1132 1220 l 1,31,-1
 1218 1105 l 1,32,-1
 998 1105 l 1,33,-1
 998 0 l 1,34,-1
 863 74 l 1,35,-1
 863 1105 l 1,36,-1
 531 1105 l 1,37,38
 596 1088 596 1088 635 989 c 0,39,40
 673 887 673 887 673 808 c 0,41,42
 673 671 673 671 601 549 c 0,43,44
 528 426 528 426 403 355 c 1,45,-1
 661 37 l 1,46,-1
 575 -24 l 1,0,-1
514 735 m 1,47,48
 538 875 538 875 538 858 c 1,49,50
 538 953 538 953 495 1022 c 0,51,52
 452 1090 452 1090 391 1090 c 128,-1,53
 330 1090 330 1090 287 1058 c 0,54,55
 244 1027 244 1027 244 980 c 0,56,57
 244 904 244 904 319 835 c 0,58,59
 394 767 394 767 514 735 c 1,47,48
EndSplineSet
EndChar

StartChar: uni0937
Encoding: 2359 2359 158
Width: 919
Flags: W
AnchorPoint: "Anchor-10" 690 120 basechar 0
AnchorPoint: "Anchor-9" 735 1155 basechar 0
AnchorPoint: "Anchor-5" 705 945 basechar 0
AnchorPoint: "Anchor-4" 735 1155 basechar 0
AnchorPoint: "Anchor-3" 705 1140 basechar 0
LayerCount: 2
Fore
SplineSet
116 815 m 1,0,-1
 114 1105 l 1,1,-1
 0 1105 l 1,2,-1
 -86 1220 l 1,3,-1
 914 1220 l 1,4,-1
 1000 1105 l 1,5,-1
 780 1105 l 1,6,-1
 780 0 l 1,7,-1
 645 74 l 1,8,-1
 645 428 l 1,9,10
 616 393 616 393 537 371 c 0,11,12
 481 355 481 355 424 355 c 0,13,14
 259 355 259 355 181 459 c 0,15,16
 101 566 101 566 111 669 c 0,17,18
 112 678 112 678 114 686 c 2,19,-1
 116 815 l 1,0,-1
351 478 m 0,20,21
 427 478 427 478 502 502 c 0,22,23
 576 527 576 527 645 576 c 1,24,-1
 228 1028 l 1,25,-1
 228 588 l 2,26,27
 229 541 229 541 264 510 c 0,28,29
 300 478 300 478 351 478 c 0,20,21
645 717 m 1,30,-1
 645 1102 l 1,31,-1
 263 1102 l 1,32,-1
 645 717 l 1,30,-1
EndSplineSet
EndChar

StartChar: uni0938
Encoding: 2360 2360 159
Width: 1086
Flags: W
AnchorPoint: "Anchor-10" 885 105 basechar 0
AnchorPoint: "Anchor-9" 915 1140 basechar 0
AnchorPoint: "Anchor-5" 885 1020 basechar 0
AnchorPoint: "Anchor-4" 915 1140 basechar 0
AnchorPoint: "Anchor-3" 915 1155 basechar 0
LayerCount: 2
Fore
SplineSet
543 -12 m 1,0,-1
 249 294 l 2,1,2
 148 394 148 394 94 486 c 128,-1,3
 40 578 40 578 40 649 c 0,4,5
 40 679 40 679 63 701 c 0,6,7
 85 723 85 723 114 723 c 0,8,9
 153 723 153 723 185 706 c 0,10,11
 217 688 217 688 229 662 c 1,12,13
 256 672 256 672 264 697 c 0,14,15
 273 720 273 720 273 747 c 2,16,-1
 273 1105 l 1,17,-1
 0 1105 l 1,18,-1
 -86 1220 l 1,19,-1
 1084 1220 l 1,20,-1
 1170 1105 l 1,21,-1
 950 1105 l 1,22,-1
 950 0 l 1,23,-1
 815 74 l 1,24,-1
 815 601 l 1,25,26
 755 539 755 539 726 529 c 0,27,28
 666 506 666 506 604 506 c 0,29,30
 543 506 543 506 499 524 c 0,31,32
 445 546 445 546 396 588 c 1,33,34
 383 517 383 517 347 467 c 0,35,36
 310 417 310 417 261 404 c 1,37,-1
 628 74 l 1,38,-1
 543 -12 l 1,0,-1
616 624 m 0,39,40
 685 634 685 634 716 652 c 0,41,42
 779 688 779 688 815 760 c 1,43,-1
 815 1105 l 1,44,-1
 408 1105 l 1,45,-1
 408 686 l 1,46,47
 442 657 442 657 474 641 c 0,48,49
 498 629 498 629 530 625 c 0,50,51
 581 619 581 619 616 624 c 0,39,40
EndSplineSet
EndChar

StartChar: uni0939
Encoding: 2361 2361 160
Width: 916
Flags: W
AnchorPoint: "Anchor-10" 585 -90 basechar 0
AnchorPoint: "Anchor-9" 720 1155 basechar 0
AnchorPoint: "Anchor-5" 705 1020 basechar 0
AnchorPoint: "Anchor-4" 720 1155 basechar 0
AnchorPoint: "Anchor-3" 705 1155 basechar 0
LayerCount: 2
Fore
SplineSet
664 -122 m 1,0,1
 409 -54 409 -54 249 82 c 0,2,3
 88 218 88 218 88 368 c 0,4,5
 88 431 88 431 127 490 c 0,6,7
 167 549 167 549 235 588 c 1,8,9
 157 625 157 625 110 687 c 0,10,11
 64 750 64 750 64 821 c 0,12,13
 64 867 64 867 110 899 c 0,14,15
 157 931 157 931 223 931 c 2,16,-1
 627 931 l 1,17,-1
 627 1105 l 1,18,-1
 0 1105 l 1,19,-1
 -86 1220 l 1,20,-1
 914 1220 l 1,21,-1
 1000 1105 l 1,22,-1
 762 1105 l 1,23,-1
 762 796 l 1,24,-1
 284 796 l 2,25,26
 255 796 255 796 233 778 c 128,-1,27
 211 760 211 760 211 735 c 0,28,29
 211 701 211 701 238 668 c 128,-1,30
 265 635 265 635 309 612 c 1,31,32
 348 630 348 630 394 639 c 0,33,34
 441 649 441 649 492 649 c 0,35,36
 667 649 667 649 752 538 c 0,37,38
 836 426 836 426 836 306 c 0,39,40
 836 250 836 250 806 201 c 0,41,42
 777 152 777 152 725 122 c 1,43,-1
 615 181 l 1,44,45
 659 198 659 198 686 239 c 0,46,47
 713 281 713 281 713 392 c 0,48,49
 713 453 713 453 659 496 c 128,-1,50
 605 539 605 539 529 539 c 0,51,52
 412 539 412 539 330 474 c 128,-1,53
 248 409 248 409 248 318 c 0,54,55
 248 206 248 206 368 104 c 128,-1,56
 488 2 488 2 676 -49 c 1,57,-1
 664 -122 l 1,0,1
EndSplineSet
EndChar

StartChar: uni093C
Encoding: 2364 2364 161
Width: 0
Flags: W
LayerCount: 2
Fore
SplineSet
-659 -460 m 1,0,-1
 -767 -352 l 1,1,-1
 -659 -234 l 1,2,-1
 -551 -352 l 1,3,-1
 -659 -460 l 1,0,-1
EndSplineSet
EndChar

StartChar: uni093D
Encoding: 2365 2365 162
Width: 851
Flags: W
LayerCount: 2
Fore
SplineSet
785 1174 m 1,0,-1
 670 1075 l 1,1,-1
 514 1138 l 2,2,3
 510 1140 510 1140 506 1141 c 0,4,5
 471 1148 471 1148 427 1099 c 0,6,7
 392 1060 392 1060 392 1004 c 0,8,9
 392 950 392 950 414 899 c 0,10,11
 436 849 436 849 477 808 c 1,12,-1
 554 755 l 2,13,14
 650 685 650 685 684 665 c 0,15,16
 690 662 690 662 740 580 c 0,17,18
 747 569 747 569 750 556 c 0,19,20
 764 499 764 499 710 410 c 0,21,22
 649 309 649 309 545 280 c 0,23,24
 477 261 477 261 300 295 c 0,25,26
 254 304 254 304 184 349 c 0,27,28
 49 438 49 438 36 440 c 1,29,-1
 36 612 l 1,30,31
 81 543 81 543 247 479 c 0,32,33
 413 416 413 416 465 416 c 0,34,35
 526 416 526 416 569 455 c 128,-1,36
 612 494 612 494 612 550 c 1,37,38
 450 626 450 626 354 733 c 0,39,40
 257 839 257 839 257 942 c 0,41,42
 257 1067 257 1067 354 1164 c 0,43,44
 450 1261 450 1261 575 1261 c 0,45,46
 662 1261 662 1261 785 1174 c 1,0,-1
EndSplineSet
EndChar

StartChar: uni093E
Encoding: 2366 2366 163
Width: 420
Flags: W
LayerCount: 2
Fore
SplineSet
-86 1220 m 1,0,-1
 415 1220 l 1,1,-1
 501 1105 l 1,2,-1
 305 1105 l 1,3,-1
 305 0 l 1,4,-1
 170 74 l 1,5,-1
 170 1105 l 1,6,-1
 -5 1105 l 1,7,-1
 -86 1220 l 1,0,-1
EndSplineSet
EndChar

StartChar: uni093F
Encoding: 2367 2367 164
Width: 454
Flags: W
LayerCount: 2
Fore
SplineSet
328 1108 m 1,0,-1
 328 3 l 1,1,-1
 193 77 l 1,2,-1
 193 1108 l 1,3,-1
 -14 1108 l 1,4,-1
 -100 1223 l 1,5,-1
 227 1223 l 1,6,-1
 151 1351 l 2,7,8
 120 1407 120 1407 120 1473 c 0,9,10
 120 1615 120 1615 235 1716 c 0,11,12
 350 1816 350 1816 512 1816 c 0,13,14
 707 1816 707 1816 839 1723 c 0,15,16
 841 1721 841 1721 844 1719 c 0,17,18
 926 1660 926 1660 1019 1533 c 0,19,20
 1049 1493 1049 1493 1072 1455 c 2,21,-1
 1178 1291 l 2,22,23
 1198 1256 1198 1256 1215 1223 c 1,24,-1
 1112 1223 l 1,25,-1
 977 1428 l 2,26,27
 904 1533 904 1533 845 1572 c 0,28,29
 698 1669 698 1669 560 1669 c 0,30,31
 433 1669 433 1669 344 1597 c 0,32,33
 254 1524 254 1524 254 1424 c 0,34,35
 254 1318 254 1318 327 1223 c 1,36,-1
 462 1223 l 1,37,-1
 548 1108 l 1,38,-1
 328 1108 l 1,0,-1
EndSplineSet
Substitution2: "Single Substitution lookup 103 subtable" ud1181
Substitution2: "Single Substitution lookup 102 subtable" ud1180
Substitution2: "Single Substitution lookup 101 subtable" ud1159
Substitution2: "Single Substitution lookup 100 subtable" ud1158
Substitution2: "Single Substitution lookup 99 subtable" ud1158
EndChar

StartChar: uni0940
Encoding: 2368 2368 165
Width: 492
Flags: W
LayerCount: 2
Fore
SplineSet
228 1105 m 1,0,-1
 -137 1105 l 1,1,-1
 -229 1220 l 1,2,-1
 229 1220 l 1,3,4
 240 1245 240 1245 270 1416 c 0,5,6
 288 1518 288 1518 234 1614 c 1,7,-1
 144 1666 l 1,8,9
 75 1674 75 1674 66 1674 c 0,10,11
 -2 1674 -2 1674 -48 1608 c 0,12,13
 -126 1495 -126 1495 -134 1465 c 0,14,15
 -168 1338 -168 1338 -216 1219 c 1,16,-1
 -352 1220 l 1,17,18
 -329 1303 -329 1303 -329 1306 c 0,19,20
 -316 1435 -316 1435 -246 1560 c 0,21,22
 -166 1703 -166 1703 -96 1746 c 0,23,24
 40 1831 40 1831 126 1800 c 0,25,26
 205 1772 205 1772 268 1713 c 0,27,28
 344 1642 344 1642 372 1572 c 0,29,30
 396 1512 396 1512 402 1398 c 1,31,-1
 329 1220 l 1,32,-1
 484 1220 l 1,33,-1
 570 1105 l 1,34,-1
 363 1105 l 1,35,-1
 363 0 l 1,36,-1
 228 74 l 1,37,-1
 228 1105 l 1,0,-1
EndSplineSet
EndChar

StartChar: uni0941
Encoding: 2369 2369 166
Width: 0
GlyphClass: 4
Flags: W
AnchorPoint: "Anchor-10" -345 -45 mark 0
LayerCount: 2
Fore
SplineSet
-289 -474 m 0,0,1
 -409 -474 -409 -474 -544 -378 c 128,-1,2
 -679 -282 -679 -282 -799 -111 c 1,3,-1
 -750 -72 l 1,4,5
 -650 -215 -650 -215 -533 -296 c 0,6,7
 -416 -376 -416 -376 -309 -376 c 0,8,9
 -244 -376 -244 -376 -198 -327 c 128,-1,10
 -152 -278 -152 -278 -152 -209 c 0,11,12
 -152 -164 -152 -164 -177 -133 c 0,13,14
 -193 -114 -193 -114 -217 -105 c 1,15,16
 -211 -107 -211 -107 -226 -102 c 0,17,18
 -261 -90 -261 -90 -284 -95 c 2,19,-1
 -289 -96 l 1,20,21
 -344 -114 -344 -114 -358 -126 c 1,22,-1
 -436 -53 l 1,23,24
 -403 -23 -403 -23 -364 -8 c 0,25,26
 -326 6 -326 6 -289 6 c 0,27,28
 -199 6 -199 6 -136 -68 c 0,29,30
 -73 -143 -73 -143 -73 -249 c 0,31,32
 -73 -343 -73 -343 -136 -408 c 0,33,34
 -199 -474 -199 -474 -289 -474 c 0,0,1
EndSplineSet
EndChar

StartChar: uni0942
Encoding: 2370 2370 167
Width: 0
GlyphClass: 4
Flags: W
AnchorPoint: "Anchor-10" -450 15 mark 0
LayerCount: 2
Fore
SplineSet
-365 -340 m 0,0,1
 -454 -340 -454 -340 -515 -277 c 0,2,3
 -577 -215 -577 -215 -577 -128 c 0,4,5
 -577 -70 -577 -70 -536 -29 c 0,6,7
 -494 13 -494 13 -436 13 c 0,8,9
 -390 13 -390 13 -349 -1 c 0,10,11
 -307 -14 -307 -14 -277 -40 c 0,12,13
 -58 -224 -58 -224 102 -384 c 1,14,-1
 58 -428 l 1,15,16
 -97 -273 -97 -273 -207 -181 c 0,17,18
 -258 -139 -258 -139 -305 -116 c 0,19,20
 -353 -93 -353 -93 -392 -93 c 0,21,22
 -436 -93 -436 -93 -467 -116 c 128,-1,23
 -498 -139 -498 -139 -498 -173 c 0,24,25
 -498 -210 -498 -210 -475 -235 c 0,26,27
 -452 -261 -452 -261 -418 -261 c 0,28,29
 -388 -261 -388 -261 -356 -247 c 0,30,31
 -325 -234 -325 -234 -295 -208 c 1,32,-1
 -233 -296 l 1,33,34
 -263 -317 -263 -317 -297 -329 c 0,35,36
 -332 -340 -332 -340 -365 -340 c 0,0,1
EndSplineSet
EndChar

StartChar: uni0943
Encoding: 2371 2371 168
Width: 0
GlyphClass: 4
Flags: W
AnchorPoint: "Anchor-10" -390 45 mark 0
LayerCount: 2
Fore
SplineSet
-309 -46 m 1,0,1
 -302 -50 -302 -50 -312 -51 c 0,2,3
 -345 -52 -345 -52 -350 -54 c 128,-1,4
 -355 -56 -355 -56 -372 -57 c 0,5,6
 -439 -62 -439 -62 -450 -65 c 0,7,8
 -459 -68 -459 -68 -473 -71 c 0,9,10
 -518 -80 -518 -80 -553 -105 c 0,11,12
 -618 -146 -618 -146 -618 -213 c 0,13,14
 -618 -273 -618 -273 -569 -317 c 0,15,16
 -519 -360 -519 -360 -449 -360 c 0,17,18
 -375 -363 -375 -363 -333 -353 c 0,19,20
 -321 -349 -321 -349 -312 -345 c 0,21,22
 -285 -335 -285 -335 -256 -307 c 1,23,-1
 -199 -367 l 1,24,25
 -250 -403 -250 -403 -299 -422 c 0,26,27
 -347 -441 -347 -441 -390 -441 c 0,28,29
 -515 -441 -515 -441 -603 -357 c 128,-1,30
 -691 -273 -691 -273 -691 -154 c 0,31,32
 -691 -100 -691 -100 -623 -52 c 0,33,34
 -607 -41 -607 -41 -583 -31 c 0,35,36
 -549 -16 -549 -16 -442 10 c 1,37,-1
 -406 14 l 2,38,39
 -322 20 -322 20 -319 23 c 0,40,41
 -315 26 -315 26 -313 11 c 2,42,-1
 -309 -46 l 1,0,1
EndSplineSet
EndChar

StartChar: uni0944
Encoding: 2372 2372 169
Width: 0
GlyphClass: 4
Flags: W
AnchorPoint: "Anchor-10" -360 90 mark 0
LayerCount: 2
Fore
SplineSet
-310 78 m 1,0,-1
 -291 -3 l 1,1,-1
 -316 -10 l 1,2,3
 -360 -31 -360 -31 -360 -75 c 0,4,5
 -360 -103 -360 -103 -339 -124 c 128,-1,6
 -318 -145 -318 -145 -290 -145 c 0,7,8
 -249 -145 -249 -145 -227 -115 c 1,9,-1
 -194 -187 l 1,10,11
 -221 -219 -221 -219 -285 -219 c 1,12,13
 -298 -242 -298 -242 -298 -272 c 0,14,15
 -298 -297 -298 -297 -282 -313 c 0,16,17
 -266 -330 -266 -330 -241 -330 c 0,18,19
 -193 -330 -193 -330 -149 -293 c 1,20,-1
 -119 -364 l 1,21,22
 -175 -410 -175 -410 -240 -410 c 0,23,24
 -292 -410 -292 -410 -333 -373 c 0,25,26
 -379 -333 -379 -333 -379 -271 c 0,27,28
 -379 -232 -379 -232 -361 -202 c 1,29,30
 -385 -193 -385 -193 -407 -164 c 0,31,32
 -438 -124 -438 -124 -438 -76 c 0,33,34
 -438 -34 -438 -34 -416 0 c 0,35,36
 -411 9 -411 9 -395 22 c 0,37,38
 -350 59 -350 59 -310 78 c 1,0,-1
EndSplineSet
EndChar

StartChar: uni0945
Encoding: 2373 2373 170
Width: 0
GlyphClass: 4
Flags: W
AnchorPoint: "Anchor-8" -525 1200 basemark 0
AnchorPoint: "Anchor-7" -540 1365 basemark 0
AnchorPoint: "Anchor-6" -300 1530 basemark 0
AnchorPoint: "Anchor-6" -525 1125 mark 0
AnchorPoint: "Anchor-3" -525 1125 mark 0
AnchorPoint: "Anchor-0" -525 1125 mark 0
LayerCount: 2
Fore
SplineSet
-553 1331 m 0,0,1
 -653 1331 -653 1331 -747 1404 c 0,2,3
 -840 1478 -840 1478 -896 1600 c 1,4,-1
 -769 1637 l 1,5,6
 -729 1590 -729 1590 -641 1511 c 0,7,8
 -606 1476 -606 1476 -548 1478 c 0,9,10
 -492 1478 -492 1478 -444 1512 c 0,11,12
 -379 1558 -379 1558 -332 1637 c 1,13,-1
 -210 1563 l 1,14,15
 -259 1458 -259 1458 -352 1394 c 0,16,17
 -445 1331 -445 1331 -553 1331 c 0,0,1
EndSplineSet
EndChar

StartChar: uni0946
Encoding: 2374 2374 171
Width: 0
GlyphClass: 4
Flags: W
AnchorPoint: "Anchor-9" -240 1170 mark 0
LayerCount: 2
Fore
SplineSet
-273 1220 m 1,0,-1
 -748 1384 l 2,1,2
 -838 1415 -838 1415 -904 1478 c 0,3,4
 -967 1539 -967 1539 -987 1612 c 0,5,6
 -994 1638 -994 1638 -992 1664 c 0,7,8
 -992 1670 -992 1670 -991 1676 c 0,9,10
 -987 1708 -987 1708 -971 1743 c 1,11,-1
 -789 1678 l 1,12,13
 -801 1657 -801 1657 -803 1626 c 0,14,15
 -804 1606 -804 1606 -801 1584 c 0,16,17
 -799 1573 -799 1573 -796 1562 c 0,18,19
 -785 1522 -785 1522 -749 1487 c 0,20,21
 -715 1454 -715 1454 -660 1433 c 2,22,-1
 -306 1301 l 1,23,-1
 -230 1268 l 1,24,-1
 -138 1220 l 1,25,-1
 -273 1220 l 1,0,-1
EndSplineSet
EndChar

StartChar: uni0947
Encoding: 2375 2375 172
Width: 0
GlyphClass: 4
Flags: W
AnchorPoint: "Anchor-9" -285 1170 mark 0
LayerCount: 2
Fore
SplineSet
-350 1220 m 1,0,-1
 -590 1563 l 2,1,2
 -625 1611 -625 1611 -665 1635 c 0,3,4
 -715 1665 -715 1665 -745 1662 c 1,5,-1
 -749 1661 l 2,6,7
 -794 1651 -794 1651 -813 1651 c 0,8,9
 -859 1651 -859 1651 -859 1624 c 1,10,-1
 -970 1784 l 1,11,12
 -939 1814 -939 1814 -910 1820 c 0,13,14
 -852 1832 -852 1832 -847 1832 c 0,15,16
 -771 1832 -771 1832 -697 1787 c 0,17,18
 -565 1707 -565 1707 -533 1661 c 2,19,-1
 -277 1308 l 1,20,-1
 -210 1220 l 1,21,-1
 -350 1220 l 1,0,-1
EndSplineSet
EndChar

StartChar: uni0948
Encoding: 2376 2376 173
Width: 0
GlyphClass: 4
Flags: W
AnchorPoint: "Anchor-9" -285 1185 mark 0
LayerCount: 2
Fore
SplineSet
-369 1220 m 1,0,-1
 -648 1394 l 1,1,-1
 -819 1510 l 2,2,3
 -881 1552 -881 1552 -909 1561 c 0,4,5
 -958 1574 -958 1574 -998 1564 c 0,6,7
 -1034 1554 -1034 1554 -1057 1538 c 0,8,9
 -1096 1509 -1096 1509 -1095 1500 c 1,10,-1
 -1242 1625 l 1,11,12
 -1221 1662 -1221 1662 -1194 1676 c 0,13,14
 -1141 1703 -1141 1703 -1137 1704 c 0,15,16
 -1088 1717 -1088 1717 -1035 1711 c 0,17,18
 -1008 1707 -1008 1707 -980 1699 c 0,19,20
 -848 1661 -848 1661 -789 1619 c 2,21,-1
 -548 1450 l 1,22,-1
 -375 1302 l 1,23,-1
 -537 1657 l 2,24,25
 -560 1708 -560 1708 -598 1741 c 0,26,27
 -635 1774 -635 1774 -676 1781 c 0,28,29
 -704 1786 -704 1786 -726 1784 c 0,30,31
 -734 1784 -734 1784 -741 1782 c 0,32,33
 -790 1773 -790 1773 -791 1764 c 1,34,-1
 -872 1940 l 1,35,36
 -837 1965 -837 1965 -807 1966 c 2,37,-1
 -743 1967 l 1,38,39
 -668 1954 -668 1954 -603 1896 c 0,40,41
 -483 1791 -483 1791 -464 1743 c 2,42,-1
 -378 1529 l 1,43,-1
 -306 1320 l 1,44,-1
 -214 1220 l 1,45,-1
 -369 1220 l 1,0,-1
EndSplineSet
EndChar

StartChar: uni0949
Encoding: 2377 2377 174
Width: 585
Flags: W
LayerCount: 2
Fore
SplineSet
337 1270 m 0,0,1
 237 1270 237 1270 143 1344 c 0,2,3
 50 1417 50 1417 -6 1540 c 1,4,-1
 121 1576 l 1,5,6
 161 1530 161 1530 249 1450 c 0,7,8
 284 1416 284 1416 342 1417 c 0,9,10
 398 1417 398 1417 446 1451 c 0,11,12
 511 1498 511 1498 558 1576 c 1,13,-1
 680 1503 l 1,14,15
 631 1397 631 1397 538 1334 c 0,16,17
 445 1270 445 1270 337 1270 c 0,0,1
-94 1220 m 1,18,-1
 602 1220 l 1,19,-1
 688 1105 l 1,20,-1
 492 1105 l 1,21,-1
 492 0 l 1,22,-1
 357 74 l 1,23,-1
 357 1105 l 1,24,-1
 -8 1105 l 1,25,-1
 -94 1220 l 1,18,-1
EndSplineSet
EndChar

StartChar: uni094A
Encoding: 2378 2378 175
Width: 432
Flags: W
LayerCount: 2
Fore
SplineSet
4 1105 m 1,0,-1
 -82 1220 l 1,1,-1
 122 1220 l 1,2,-1
 187 1220 l 1,3,-1
 -288 1384 l 2,4,5
 -379 1416 -379 1416 -444 1478 c 0,6,7
 -507 1539 -507 1539 -527 1612 c 1,8,-1
 -531 1634 l 2,9,10
 -534 1654 -534 1654 -531 1676 c 0,11,12
 -527 1708 -527 1708 -511 1743 c 1,13,-1
 -329 1678 l 1,14,15
 -341 1657 -341 1657 -343 1626 c 0,16,17
 -343 1623 -343 1623 -343 1621 c 0,18,19
 -344 1592 -344 1592 -336 1562 c 0,20,21
 -325 1522 -325 1522 -289 1487 c 0,22,23
 -255 1454 -255 1454 -200 1433 c 2,24,-1
 154 1301 l 1,25,-1
 230 1268 l 1,26,-1
 322 1220 l 1,27,-1
 432 1220 l 1,28,-1
 518 1105 l 1,29,-1
 322 1105 l 1,30,-1
 322 0 l 1,31,-1
 187 74 l 1,32,-1
 187 1105 l 1,33,-1
 4 1105 l 1,0,-1
EndSplineSet
EndChar

StartChar: uni094B
Encoding: 2379 2379 176
Width: 411
Flags: W
LayerCount: 2
Fore
SplineSet
-85 1220 m 1,0,-1
 167 1220 l 1,1,-1
 -73 1563 l 2,2,3
 -106 1610 -106 1610 -148 1635 c 0,4,5
 -198 1665 -198 1665 -228 1662 c 0,6,7
 -230 1661 -230 1661 -232 1661 c 0,8,9
 -277 1651 -277 1651 -296 1651 c 0,10,11
 -342 1651 -342 1651 -343 1624 c 1,12,-1
 -453 1784 l 1,13,14
 -422 1814 -422 1814 -393 1820 c 0,15,16
 -335 1832 -335 1832 -330 1832 c 0,17,18
 -254 1832 -254 1832 -180 1787 c 0,19,20
 -48 1707 -48 1707 -17 1661 c 2,21,-1
 244 1276 l 1,22,-1
 307 1220 l 1,23,-1
 417 1220 l 1,24,-1
 503 1105 l 1,25,-1
 307 1105 l 1,26,-1
 307 0 l 1,27,-1
 172 74 l 1,28,-1
 172 1105 l 1,29,-1
 1 1105 l 1,30,-1
 -85 1220 l 1,0,-1
EndSplineSet
EndChar

StartChar: uni094C
Encoding: 2380 2380 177
Width: 417
Flags: W
LayerCount: 2
Fore
SplineSet
-82 1215 m 1,0,-1
 177 1220 l 1,1,-1
 -102 1394 l 1,2,-1
 -273 1510 l 2,3,4
 -335 1552 -335 1552 -363 1561 c 0,5,6
 -398 1571 -398 1571 -429 1568 c 0,7,8
 -441 1567 -441 1567 -452 1564 c 0,9,10
 -488 1554 -488 1554 -511 1538 c 0,11,12
 -550 1509 -550 1509 -549 1500 c 1,13,-1
 -696 1625 l 1,14,15
 -675 1662 -675 1662 -648 1676 c 0,16,17
 -595 1703 -595 1703 -591 1704 c 0,18,19
 -542 1717 -542 1717 -489 1711 c 0,20,21
 -462 1707 -462 1707 -434 1699 c 0,22,23
 -302 1661 -302 1661 -243 1619 c 2,24,-1
 -2 1450 l 1,25,-1
 171 1302 l 1,26,-1
 9 1657 l 2,27,28
 -14 1708 -14 1708 -52 1741 c 0,29,30
 -89 1774 -89 1774 -130 1781 c 0,31,32
 -158 1786 -158 1786 -180 1784 c 0,33,34
 -188 1784 -188 1784 -195 1782 c 0,35,36
 -244 1773 -244 1773 -245 1764 c 1,37,-1
 -326 1940 l 1,38,39
 -291 1965 -291 1965 -261 1966 c 2,40,-1
 -197 1967 l 1,41,42
 -122 1954 -122 1954 -57 1896 c 0,43,44
 63 1791 63 1791 82 1743 c 2,45,-1
 168 1529 l 1,46,-1
 240 1320 l 1,47,-1
 332 1220 l 1,48,-1
 422 1220 l 1,49,-1
 508 1105 l 1,50,-1
 312 1105 l 1,51,-1
 312 0 l 1,52,-1
 177 74 l 1,53,-1
 177 1105 l 1,54,-1
 0 1105 l 1,55,-1
 -82 1215 l 1,0,-1
EndSplineSet
EndChar

StartChar: uni094D
Encoding: 2381 2381 178
Width: 0
GlyphClass: 4
Flags: W
AnchorPoint: "Anchor-10" -570 30 mark 0
LayerCount: 2
Fore
SplineSet
-665 -72 m 1,0,1
 -604 -6 -604 -6 -513 -6 c 0,2,3
 -393 -6 -393 -6 -258 -102 c 128,-1,4
 -123 -198 -123 -198 -3 -368 c 1,5,-1
 -52 -408 l 1,6,7
 -152 -265 -152 -265 -269 -184 c 0,8,9
 -386 -104 -386 -104 -493 -104 c 0,10,11
 -535 -104 -535 -104 -580 -135 c 0,12,13
 -589 -141 -589 -141 -604 -153 c 1,14,15
 -602 -152 -602 -152 -665 -72 c 1,0,1
EndSplineSet
EndChar

StartChar: uni0950
Encoding: 2384 2384 179
Width: 1960
Flags: W
LayerCount: 2
Fore
SplineSet
547 94 m 0,0,1
 408 94 408 94 271 238 c 0,2,3
 133 383 133 383 48 620 c 1,4,-1
 109 645 l 1,5,6
 175 464 175 464 285 352 c 0,7,8
 396 241 396 241 511 241 c 0,9,10
 592 241 592 241 649 302 c 0,11,12
 707 363 707 363 707 449 c 128,-1,13
 707 535 707 535 653 596 c 128,-1,14
 599 657 599 657 523 657 c 1,15,-1
 425 633 l 1,16,-1
 364 755 l 1,17,18
 476 775 476 775 549 834 c 0,19,20
 621 892 621 892 621 964 c 0,21,22
 621 1015 621 1015 589 1050 c 0,23,24
 557 1086 557 1086 511 1086 c 0,25,26
 447 1086 447 1086 387 1064 c 128,-1,27
 327 1042 327 1042 278 1000 c 1,28,-1
 180 1135 l 1,29,30
 236 1182 236 1182 306 1207 c 0,31,32
 376 1233 376 1233 449 1233 c 0,33,34
 538 1233 538 1233 647 1107 c 128,-1,35
 756 981 756 981 756 878 c 0,36,37
 756 829 756 829 719 782 c 0,38,39
 682 736 682 736 621 706 c 1,40,41
 677 687 677 687 728 646 c 0,42,43
 778 606 778 606 817 547 c 1,44,45
 873 500 873 500 933 475 c 0,46,47
 993 449 993 449 1050 449 c 0,48,49
 1116 449 1116 449 1181 488 c 128,-1,50
 1246 527 1246 527 1295 596 c 0,51,52
 1535 939 1535 939 1638 939 c 0,53,54
 1738 939 1738 939 1808 839 c 0,55,56
 1878 738 1878 738 1878 596 c 0,57,58
 1878 510 1878 510 1825 449 c 128,-1,59
 1772 388 1772 388 1699 388 c 0,60,61
 1645 388 1645 388 1581 444 c 0,62,63
 1518 500 1518 500 1461 596 c 1,64,65
 1368 464 1368 464 1275 389 c 128,-1,66
 1182 314 1182 314 1111 314 c 0,67,68
 1030 314 1030 314 960 336 c 128,-1,69
 890 358 890 358 841 400 c 1,70,71
 841 273 841 273 755.5 183.5 c 128,-1,72
 670 94 670 94 547 94 c 0,0,1
1650 502 m 0,73,74
 1701 502 1701 502 1737 556 c 128,-1,75
 1773 610 1773 610 1773 686 c 0,76,77
 1773 733 1773 733 1750 765 c 0,78,79
 1728 796 1728 796 1699 796 c 0,80,81
 1650 796 1650 796 1597 754 c 0,82,83
 1545 711 1545 711 1503 637 c 1,84,85
 1532 576 1532 576 1572 539 c 0,86,87
 1611 502 1611 502 1650 502 c 0,73,74
1209 1062 m 256,88,89
 1096 1062 1096 1062 979 1153 c 0,90,91
 861 1245 861 1245 768 1404 c 1,92,-1
 829 1429 l 1,93,94
 886 1333 886 1333 987 1277 c 0,95,96
 1089 1221 1089 1221 1209 1221 c 128,-1,97
 1329 1221 1329 1221 1431 1277 c 0,98,99
 1532 1333 1532 1333 1589 1429 c 1,100,-1
 1650 1404 l 1,101,102
 1557 1245 1557 1245 1439 1153 c 0,103,104
 1322 1062 1322 1062 1209 1062 c 256,88,89
1209 1331 m 1,105,-1
 1099 1454 l 1,106,-1
 1209 1576 l 1,107,-1
 1319 1454 l 1,108,-1
 1209 1331 l 1,105,-1
EndSplineSet
EndChar

StartChar: uni0951
Encoding: 2385 2385 180
Width: 0
GlyphClass: 4
Flags: W
AnchorPoint: "Anchor-7" -315 1125 mark 0
AnchorPoint: "Anchor-4" -315 1125 mark 0
AnchorPoint: "Anchor-1" -315 1125 mark 0
LayerCount: 2
Fore
SplineSet
-290 1320 m 1,0,-1
 -386 1320 l 1,1,-1
 -386 2008 l 1,2,-1
 -290 2008 l 1,3,-1
 -290 1320 l 1,0,-1
EndSplineSet
EndChar

StartChar: uni0952
Encoding: 2386 2386 181
Width: 0
GlyphClass: 4
Flags: W
AnchorPoint: "Anchor-10" -525 240 mark 0
LayerCount: 2
Fore
SplineSet
10 -208 m 1,0,-1
 -950 -208 l 1,1,-1
 -950 -120 l 1,2,-1
 10 -120 l 1,3,-1
 10 -208 l 1,0,-1
EndSplineSet
EndChar

StartChar: uni0953
Encoding: 2387 2387 182
Width: 0
GlyphClass: 4
Flags: W
AnchorPoint: "Anchor-8" -540 900 mark 0
AnchorPoint: "Anchor-5" -540 900 mark 0
AnchorPoint: "Anchor-2" -540 900 mark 0
LayerCount: 2
Fore
SplineSet
-486 1389 m 1,0,-1
 -544 1289 l 1,1,-1
 -1078 1542 l 1,2,-1
 -978 1720 l 1,3,-1
 -486 1389 l 1,0,-1
EndSplineSet
EndChar

StartChar: uni0954
Encoding: 2388 2388 183
Width: 0
GlyphClass: 4
Flags: W
AnchorPoint: "Anchor-8" -690 900 mark 0
AnchorPoint: "Anchor-5" -690 900 mark 0
AnchorPoint: "Anchor-2" -690 900 mark 0
LayerCount: 2
Fore
SplineSet
-197 1542 m 1,0,-1
 -731 1289 l 1,1,-1
 -788 1389 l 1,2,-1
 -297 1720 l 1,3,-1
 -197 1542 l 1,0,-1
EndSplineSet
EndChar

StartChar: uni0958
Encoding: 2392 2392 184
Width: 1351
Flags: W
AnchorPoint: "Anchor-10" 720 30 basechar 0
AnchorPoint: "Anchor-9" 750 1140 basechar 0
AnchorPoint: "Anchor-5" 735 990 basechar 0
AnchorPoint: "Anchor-4" 750 1140 basechar 0
AnchorPoint: "Anchor-3" 735 1140 basechar 0
LayerCount: 2
Fore
SplineSet
348 84 m 1,0,-1
 262 170 l 1,1,-1
 348 264 l 1,2,-1
 434 170 l 1,3,-1
 348 84 l 1,0,-1
60 632 m 0,4,5
 60 745 60 745 138 823 c 0,6,7
 217 902 217 902 329 902 c 0,8,9
 420 902 420 902 508 850 c 0,10,11
 596 799 596 799 660 706 c 1,12,-1
 660 1105 l 1,13,-1
 0 1105 l 1,14,-1
 -86 1220 l 1,15,-1
 1351 1220 l 1,16,-1
 1437 1105 l 1,17,-1
 795 1105 l 1,18,-1
 795 706 l 1,19,20
 820 729 820 729 922 769 c 0,21,22
 979 791 979 791 1028 791 c 0,23,24
 1133 791 1133 791 1209 687 c 128,-1,25
 1285 583 1285 583 1285 436 c 0,26,27
 1285 345 1285 345 1253 261 c 0,28,29
 1221 176 1221 176 1162 105 c 1,30,-1
 1052 228 l 1,31,32
 1123 313 1123 313 1161 386 c 0,33,34
 1199 458 1199 458 1199 510 c 0,35,36
 1199 576 1199 576 1156 622 c 0,37,38
 1113 669 1113 669 1052 669 c 0,39,40
 976 669 976 669 795 517 c 1,41,-1
 795 -5 l 1,42,-1
 660 68 l 1,43,-1
 660 448 l 1,44,45
 596 385 596 385 529 349 c 0,46,47
 462 314 462 314 403 314 c 0,48,49
 226 314 226 314 160 384 c 0,50,51
 60 491 60 491 60 632 c 0,4,5
333 421 m 0,52,53
 397 421 397 421 484 472 c 128,-1,54
 571 523 571 523 664 617 c 1,55,56
 593 675 593 675 523 707 c 128,-1,57
 453 739 453 739 395 739 c 0,58,59
 299 739 299 739 230 692 c 0,60,61
 162 646 162 646 162 580 c 128,-1,62
 162 514 162 514 212 467 c 0,63,64
 262 421 262 421 333 421 c 0,52,53
EndSplineSet
Ligature2: "'nukt' Nukta Forms in Devanagari lookup 0 subtable" uni0915 uni093C
EndChar

StartChar: uni0959
Encoding: 2393 2393 185
Width: 1424
Flags: W
AnchorPoint: "Anchor-10" 1230 105 basechar 0
AnchorPoint: "Anchor-9" 1215 1140 basechar 0
AnchorPoint: "Anchor-5" 1230 1020 basechar 0
AnchorPoint: "Anchor-4" 1215 1140 basechar 0
AnchorPoint: "Anchor-3" 1245 1155 basechar 0
LayerCount: 2
Fore
SplineSet
347 -119 m 1,0,-1
 261 -33 l 1,1,-1
 347 60 l 1,2,-1
 433 -33 l 1,3,-1
 347 -119 l 1,0,-1
785 24 m 0,4,5
 680 24 680 24 558 88 c 0,6,7
 437 152 437 152 320 270 c 0,8,9
 202 387 202 387 138 489 c 0,10,11
 74 590 74 590 74 662 c 0,12,13
 74 681 74 681 97 696 c 0,14,15
 119 710 119 710 148 710 c 1,16,17
 146 710 146 710 190 694 c 0,18,19
 212 686 212 686 246 674 c 1,20,21
 258 684 258 684 264 715 c 0,22,23
 270 747 270 747 270 796 c 2,24,-1
 270 972 l 1,25,26
 276 998 276 998 273 1021 c 0,27,28
 272 1033 272 1033 268 1044 c 0,29,30
 252 1087 252 1087 216 1105 c 1,31,-1
 0 1105 l 1,32,-1
 -86 1220 l 1,33,-1
 1422 1220 l 1,34,-1
 1508 1105 l 1,35,-1
 1272 1105 l 1,36,-1
 1272 0 l 1,37,-1
 1177 74 l 1,38,-1
 1177 184 l 1,39,40
 1067 105 1067 105 966 65 c 0,41,42
 866 24 866 24 785 24 c 0,4,5
736 147 m 0,43,44
 878 147 878 147 993 192 c 0,45,46
 1108 238 1108 238 1177 318 c 1,47,-1
 1177 466 l 1,48,49
 1123 412 1123 412 1067 383 c 0,50,51
 1010 355 1010 355 956 355 c 0,52,53
 805 355 805 355 697 452 c 128,-1,54
 589 549 589 549 589 686 c 0,55,56
 589 786 589 786 675 859 c 0,57,58
 761 931 761 931 883 931 c 0,59,60
 954 931 954 931 1031 886 c 0,61,62
 1108 840 1108 840 1177 760 c 1,63,-1
 1177 1102 l 1,64,-1
 332 1104 l 1,65,66
 369 1094 369 1094 388 1060 c 0,67,68
 402 1035 402 1035 406 984 c 1,69,-1
 406 735 l 2,70,71
 406 635 406 635 374 573 c 0,72,73
 334 500 334 500 295 461 c 1,74,75
 378 316 378 316 497 232 c 0,76,77
 616 147 616 147 736 147 c 0,43,44
858 466 m 0,78,79
 947 466 947 466 1031 514 c 0,80,81
 1116 564 1116 564 1177 649 c 1,82,-1
 1177 691 l 1,83,84
 1108 747 1108 747 1046 778 c 0,85,86
 983 808 983 808 932 808 c 0,87,88
 836 808 836 808 768 758 c 0,89,90
 699 708 699 708 699 637 c 128,-1,91
 699 566 699 566 746 516 c 0,92,93
 792 466 792 466 858 466 c 0,78,79
EndSplineSet
Ligature2: "'nukt' Nukta Forms in Devanagari lookup 0 subtable" uni0916 uni093C
EndChar

StartChar: uni095A
Encoding: 2394 2394 186
Width: 983
Flags: W
AnchorPoint: "Anchor-10" 780 105 basechar 0
AnchorPoint: "Anchor-9" 810 1140 basechar 0
AnchorPoint: "Anchor-5" 795 960 basechar 0
AnchorPoint: "Anchor-4" 810 1140 basechar 0
AnchorPoint: "Anchor-3" 795 1140 basechar 0
LayerCount: 2
Fore
SplineSet
251 91 m 1,0,-1
 165 177 l 1,1,-1
 251 271 l 1,2,-1
 337 177 l 1,3,-1
 251 91 l 1,0,-1
325 416 m 0,4,5
 254 416 254 416 167 495 c 0,6,7
 80 573 80 573 80 637 c 0,8,9
 80 661 80 661 105 680 c 0,10,11
 131 698 131 698 166 698 c 2,12,-1
 251 698 l 1,13,-1
 251 1105 l 1,14,-1
 0 1105 l 1,15,-1
 -86 1220 l 1,16,-1
 974 1220 l 1,17,-1
 1060 1105 l 1,18,-1
 864 1105 l 1,19,-1
 864 0 l 1,20,-1
 729 74 l 1,21,-1
 729 1105 l 1,22,-1
 386 1105 l 1,23,-1
 386 490 l 2,24,25
 386 461 386 461 367.5 438.5 c 128,-1,26
 349 416 349 416 325 416 c 0,4,5
EndSplineSet
Ligature2: "'nukt' Nukta Forms in Devanagari lookup 0 subtable" uni0917 uni093C
EndChar

StartChar: uni095B
Encoding: 2395 2395 187
Width: 1216
Flags: W
AnchorPoint: "Anchor-10" 1005 105 basechar 0
AnchorPoint: "Anchor-9" 1020 1155 basechar 0
AnchorPoint: "Anchor-5" 1005 975 basechar 0
AnchorPoint: "Anchor-4" 1020 1155 basechar 0
AnchorPoint: "Anchor-3" 1035 1140 basechar 0
LayerCount: 2
Fore
SplineSet
570 -40 m 1,0,-1
 484 46 l 1,1,-1
 570 140 l 1,2,-1
 656 46 l 1,3,-1
 570 -40 l 1,0,-1
67 747 m 1,4,-1
 140 796 l 1,5,6
 226 612 226 612 336 502 c 0,7,8
 447 392 447 392 545 392 c 0,9,10
 591 392 591 392 623 428 c 0,11,12
 655 463 655 463 655 514 c 0,13,14
 655 595 655 595 568 676 c 128,-1,15
 481 757 481 757 336 808 c 1,16,-1
 349 858 l 1,17,-1
 949 858 l 1,18,-1
 949 1105 l 1,19,-1
 0 1105 l 1,20,-1
 -86 1220 l 1,21,-1
 1218 1220 l 1,22,-1
 1304 1105 l 1,23,-1
 1084 1105 l 1,24,-1
 1084 0 l 1,25,-1
 949 74 l 1,26,-1
 949 710 l 1,27,-1
 630 710 l 1,28,29
 711 642 711 642 757 571 c 0,30,31
 802 500 802 500 802 441 c 0,32,33
 802 350 802 350 737 285 c 128,-1,34
 672 220 672 220 582 220 c 0,35,36
 459 220 459 220 319 364 c 0,37,38
 180 507 180 507 67 747 c 1,4,-1
EndSplineSet
Ligature2: "'nukt' Nukta Forms in Devanagari lookup 0 subtable" uni091C uni093C
EndChar

StartChar: uni095C
Encoding: 2396 2396 188
Width: 1183
Flags: W
AnchorPoint: "Anchor-10" 690 15 basechar 0
AnchorPoint: "Anchor-9" 825 1140 basechar 0
AnchorPoint: "Anchor-5" 825 990 basechar 0
AnchorPoint: "Anchor-4" 825 1140 basechar 0
AnchorPoint: "Anchor-3" 855 1155 basechar 0
LayerCount: 2
Fore
SplineSet
295 -94 m 1,0,-1
 209 -8 l 1,1,-1
 295 85 l 1,2,-1
 381 -8 l 1,3,-1
 295 -94 l 1,0,-1
701 0 m 0,4,5
 556 0 556 0 385 131 c 0,6,7
 213 260 213 260 52 491 c 1,8,-1
 113 540 l 1,9,10
 243 356 243 356 385 252 c 128,-1,11
 527 148 527 148 652 148 c 0,12,13
 757 148 757 148 831 209 c 0,14,15
 904 270 904 270 904 356 c 0,16,17
 904 400 904 400 866 431 c 0,18,19
 828 461 828 461 774 461 c 0,20,21
 733 461 733 461 652 439 c 128,-1,22
 571 417 571 417 530 417 c 0,23,24
 431 417 431 417 334 532 c 0,25,26
 236 648 236 648 236 760 c 0,27,28
 236 831 236 831 293 882 c 0,29,30
 351 932 351 932 432 932 c 2,31,-1
 750 932 l 1,32,-1
 750 1105 l 1,33,-1
 0 1105 l 1,34,-1
 -86 1220 l 1,35,-1
 1175 1220 l 1,36,-1
 1261 1105 l 1,37,-1
 885 1105 l 1,38,-1
 885 785 l 1,39,-1
 505 785 l 2,40,41
 444 785 444 785 401 749 c 0,42,43
 358 714 358 714 358 662 c 0,44,45
 358 621 358 621 401 592 c 0,46,47
 444 564 444 564 505 564 c 0,48,49
 544 564 544 564 621 583 c 0,50,51
 699 601 699 601 738 601 c 0,52,53
 821 601 821 601 914 496 c 0,54,55
 1007 390 1007 390 1007 295 c 0,56,57
 1007 172 1007 172 918 86 c 0,58,59
 828 1 828 1 701 0 c 0,4,5
EndSplineSet
Ligature2: "'nukt' Nukta Forms in Devanagari lookup 0 subtable" uni0921 uni093C
EndChar

StartChar: uni095D
Encoding: 2397 2397 189
Width: 980
Flags: W
AnchorPoint: "Anchor-10" 690 90 basechar 0
AnchorPoint: "Anchor-9" 765 1155 basechar 0
AnchorPoint: "Anchor-5" 750 945 basechar 0
AnchorPoint: "Anchor-4" 765 1155 basechar 0
AnchorPoint: "Anchor-3" 780 1140 basechar 0
LayerCount: 2
Fore
SplineSet
137 -15 m 1,0,-1
 51 71 l 1,1,-1
 137 165 l 1,2,-1
 223 71 l 1,3,-1
 137 -15 l 1,0,-1
652 20 m 0,4,5
 434 20 434 20 249 198 c 0,6,7
 64 375 64 375 64 584 c 0,8,9
 64 716 64 716 172 809 c 128,-1,10
 280 902 280 902 432 902 c 2,11,-1
 701 902 l 1,12,-1
 701 1105 l 1,13,-1
 0 1105 l 1,14,-1
 -86 1220 l 1,15,-1
 980 1220 l 1,16,-1
 1066 1105 l 1,17,-1
 836 1105 l 1,18,-1
 836 755 l 1,19,-1
 530 755 l 2,20,21
 392 755 392 755 296 690 c 0,22,23
 199 625 199 625 199 534 c 0,24,25
 199 380 199 380 291 267 c 0,26,27
 382 155 382 155 517 142 c 1,28,29
 480 194 480 194 462 254 c 128,-1,30
 444 314 444 314 444 375 c 0,31,32
 444 466 444 466 509 531 c 128,-1,33
 574 596 574 596 664 596 c 0,34,35
 779 596 779 596 860 506 c 0,36,37
 941 417 941 417 941 290 c 0,38,39
 941 177 941 177 857 98 c 0,40,41
 772 20 772 20 652 20 c 0,4,5
578 130 m 1,42,43
 684 111 684 111 766 174 c 0,44,45
 848 238 848 238 848 338 c 0,46,47
 848 390 848 390 805 425 c 0,48,49
 762 461 762 461 701 461 c 0,50,51
 635 461 635 461 588 411 c 0,52,53
 542 361 542 361 542 290 c 0,54,55
 542 243 542 243 552 203 c 0,56,57
 561 162 561 162 578 130 c 1,42,43
EndSplineSet
Ligature2: "'nukt' Nukta Forms in Devanagari lookup 0 subtable" uni0922 uni093C
EndChar

StartChar: uni095E
Encoding: 2398 2398 190
Width: 1288
Flags: W
AnchorPoint: "Anchor-10" 675 60 basechar 0
AnchorPoint: "Anchor-9" 690 1155 basechar 0
AnchorPoint: "Anchor-5" 690 930 basechar 0
AnchorPoint: "Anchor-4" 690 1155 basechar 0
AnchorPoint: "Anchor-3" 690 1155 basechar 0
LayerCount: 2
Fore
SplineSet
314 134 m 1,0,-1
 228 220 l 1,1,-1
 314 314 l 1,2,-1
 400 220 l 1,3,-1
 314 134 l 1,0,-1
110 747 m 1,4,-1
 110 1105 l 1,5,-1
 0 1105 l 1,6,-1
 -86 1220 l 1,7,-1
 1286 1220 l 1,8,-1
 1372 1105 l 1,9,-1
 748 1105 l 1,10,-1
 748 704 l 1,11,12
 875 778 875 778 956 778 c 0,13,14
 1110 778 1110 778 1178 665 c 0,15,16
 1250 546 1250 546 1250 441 c 0,17,18
 1250 370 1250 370 1206 288 c 128,-1,19
 1162 206 1162 206 1078 122 c 1,20,-1
 956 220 l 1,21,22
 1037 289 1037 289 1082 363 c 0,23,24
 1128 436 1128 436 1128 502 c 0,25,26
 1128 564 1128 564 1092 606 c 0,27,28
 1056 649 1056 649 1005 649 c 0,29,30
 917 649 917 649 748 551 c 1,31,-1
 748 0 l 1,32,-1
 613 74 l 1,33,-1
 613 478 l 1,34,35
 579 448 579 448 531 432 c 128,-1,36
 483 416 483 416 429 416 c 0,37,38
 307 416 307 416 214 527 c 0,39,40
 144 612 144 612 110 747 c 1,4,-1
368 551 m 0,41,42
 444 551 444 551 490 567 c 0,43,44
 554 589 554 589 613 631 c 1,45,-1
 613 1105 l 1,46,-1
 246 1105 l 1,47,-1
 246 686 l 2,48,49
 246 630 246 630 281 590 c 0,50,51
 317 551 317 551 368 551 c 0,41,42
EndSplineSet
Ligature2: "'nukt' Nukta Forms in Devanagari lookup 0 subtable" uni092B uni093C
EndChar

StartChar: uni095F
Encoding: 2399 2399 191
Width: 1004
Flags: W
AnchorPoint: "Anchor-10" 825 105 basechar 0
AnchorPoint: "Anchor-9" 840 1140 basechar 0
AnchorPoint: "Anchor-5" 825 900 basechar 0
AnchorPoint: "Anchor-4" 840 1140 basechar 0
AnchorPoint: "Anchor-3" 840 1140 basechar 0
LayerCount: 2
Fore
SplineSet
314 22 m 1,0,-1
 228 108 l 1,1,-1
 314 202 l 1,2,-1
 400 108 l 1,3,-1
 314 22 l 1,0,-1
67 735 m 1,4,5
 199 735 199 735 292 782 c 0,6,7
 386 828 386 828 386 894 c 0,8,9
 386 938 386 938 360 992 c 128,-1,10
 334 1046 334 1046 288 1105 c 1,11,-1
 0 1105 l 1,12,-1
 -86 1220 l 1,13,-1
 1004 1220 l 1,14,-1
 1100 1105 l 1,15,-1
 888 1105 l 1,16,-1
 888 0 l 1,17,-1
 753 74 l 1,18,-1
 753 416 l 1,19,20
 689 363 689 363 623 334 c 0,21,22
 557 306 557 306 496 306 c 0,23,24
 341 311 341 311 220 432 c 0,25,26
 99 554 99 554 67 735 c 1,4,5
422 441 m 0,27,28
 582 441 582 441 616 460 c 0,29,30
 704 509 704 509 753 595 c 1,31,-1
 753 1105 l 1,32,-1
 404 1105 l 1,33,34
 475 1026 475 1026 488 974 c 0,35,36
 505 904 505 904 505 833 c 0,37,38
 505 740 505 740 422 677 c 0,39,40
 336 612 336 612 214 612 c 1,41,42
 214 541 214 541 275 491 c 0,43,44
 337 441 337 441 422 441 c 0,27,28
EndSplineSet
Ligature2: "'nukt' Nukta Forms in Devanagari lookup 0 subtable" uni092F uni093C
EndChar

StartChar: uni0960
Encoding: 2400 2400 192
Width: 1642
Flags: W
AnchorPoint: "Anchor-2" 765 1140 basechar 0
AnchorPoint: "Anchor-1" 765 1155 basechar 0
AnchorPoint: "Anchor-0" 765 1260 basechar 0
LayerCount: 2
Fore
SplineSet
1163 714 m 1,0,1
 1084 667 1084 667 1030 655 c 0,2,3
 921 631 921 631 860 636 c 2,4,-1
 846 637 l 1,5,-1
 846 0 l 1,6,-1
 711 74 l 1,7,-1
 711 502 l 1,8,-1
 221 208 l 1,9,-1
 148 331 l 1,10,-1
 711 637 l 1,11,12
 642 686 642 686 570 710 c 0,13,14
 498 735 498 735 429 735 c 0,15,16
 351 735 351 735 279 713 c 0,17,18
 206 691 206 691 148 649 c 1,19,-1
 62 808 l 1,20,21
 231 870 231 870 368 870 c 0,22,23
 442 870 442 870 530 828 c 128,-1,24
 618 786 618 786 711 710 c 1,25,-1
 711 1105 l 1,26,-1
 0 1105 l 1,27,-1
 -86 1220 l 1,28,-1
 1642 1220 l 1,29,-1
 1728 1105 l 1,30,-1
 846 1105 l 1,31,-1
 846 698 l 1,32,33
 934 698 934 698 1001 724 c 0,34,35
 1069 750 1069 750 1115 796 c 1,36,37
 1098 818 1098 818 1088 837 c 0,38,39
 1078 855 1078 855 1078 870 c 0,40,41
 1078 911 1078 911 1101 940 c 0,42,43
 1123 968 1123 968 1152 968 c 0,44,45
 1213 968 1213 968 1274 906 c 0,46,47
 1336 845 1336 845 1336 784 c 0,48,49
 1336 772 1336 772 1226 763 c 1,50,-1
 1304 599 l 1,51,52
 1291 560 1291 560 1277 553 c 0,53,54
 1224 529 1224 529 1224 475 c 0,55,56
 1224 442 1224 442 1249 417 c 0,57,58
 1275 391 1275 391 1308 391 c 0,59,60
 1358 391 1358 391 1384 427 c 1,61,-1
 1423 340 l 1,62,63
 1391 302 1391 302 1314 302 c 1,64,65
 1298 274 1298 274 1298 238 c 0,66,67
 1298 209 1298 209 1318 189 c 0,68,69
 1337 169 1337 169 1367 169 c 0,70,71
 1425 169 1425 169 1478 213 c 1,72,-1
 1514 128 l 1,73,74
 1447 72 1447 72 1368 72 c 0,75,76
 1306 72 1306 72 1257 116 c 0,77,78
 1202 164 1202 164 1202 239 c 0,79,80
 1202 287 1202 287 1223 322 c 1,81,82
 1194 334 1194 334 1167 368 c 0,83,84
 1130 416 1130 416 1130 474 c 0,85,86
 1130 535 1130 535 1156 566 c 2,87,-1
 1202 624 l 1,88,-1
 1163 714 l 1,0,1
EndSplineSet
EndChar

StartChar: uni0961
Encoding: 2401 2401 193
Width: 1278
Flags: W
AnchorPoint: "Anchor-2" 630 1155 basechar 0
AnchorPoint: "Anchor-1" 975 1155 basechar 0
AnchorPoint: "Anchor-0" 675 1185 basechar 0
LayerCount: 2
Fore
SplineSet
1048 372 m 2,0,1
 1060 388 1060 388 1072 408 c 0,2,3
 1126 501 1126 501 1126 571 c 0,4,5
 1126 632 1126 632 1094 675 c 128,-1,6
 1062 718 1062 718 1015 718 c 0,7,8
 893 718 893 718 802 613 c 0,9,10
 712 508 712 508 697 351 c 1,11,-1
 562 412 l 1,12,13
 594 535 594 535 623 596 c 1,14,15
 584 655 584 655 528 686 c 0,16,17
 472 718 472 718 415 718 c 0,18,19
 339 718 339 718 285 657 c 128,-1,20
 231 596 231 596 231 510 c 0,21,22
 231 397 231 397 339 269 c 0,23,24
 447 140 447 140 636 32 c 1,25,-1
 587 -41 l 1,26,27
 354 93 354 93 219 254 c 0,28,29
 84 414 84 414 84 559 c 0,30,31
 84 682 84 682 174 767 c 0,32,33
 263 853 263 853 391 853 c 0,34,35
 476 853 476 853 551 806 c 0,36,37
 626 760 626 760 672 682 c 1,38,39
 724 757 724 757 789 799 c 128,-1,40
 854 841 854 841 917 841 c 1,41,-1
 917 1105 l 1,42,-1
 0 1105 l 1,43,-1
 -86 1220 l 1,44,-1
 1278 1220 l 1,45,-1
 1364 1105 l 1,46,-1
 1052 1105 l 1,47,-1
 1052 828 l 1,48,49
 1145 804 1145 804 1178 715 c 1,50,51
 1236 625 1236 625 1236 510 c 0,52,53
 1236 480 1236 480 1233 460 c 0,54,55
 1226 413 1226 413 1180 344 c 0,56,57
 1165 321 1165 321 1145 300 c 0,58,59
 1106 258 1106 258 1079 245 c 0,60,61
 1026 221 1026 221 1026 167 c 0,62,63
 1026 134 1026 134 1051 109 c 0,64,65
 1077 83 1077 83 1110 83 c 0,66,67
 1160 83 1160 83 1186 119 c 1,68,-1
 1225 32 l 1,69,70
 1193 -6 1193 -6 1116 -6 c 1,71,72
 1100 -34 1100 -34 1100 -70 c 0,73,74
 1100 -99 1100 -99 1120 -119 c 0,75,76
 1139 -139 1139 -139 1169 -139 c 0,77,78
 1227 -139 1227 -139 1280 -95 c 1,79,-1
 1316 -180 l 1,80,81
 1249 -236 1249 -236 1170 -236 c 0,82,83
 1108 -236 1108 -236 1059 -192 c 0,84,85
 1004 -144 1004 -144 1004 -69 c 0,86,87
 1004 -21 1004 -21 1025 14 c 1,88,89
 996 26 996 26 969 60 c 0,90,91
 932 108 932 108 932 166 c 0,92,93
 932 227 932 227 958 258 c 2,94,-1
 1048 372 l 2,0,1
EndSplineSet
EndChar

StartChar: uni0962
Encoding: 2402 2402 194
Width: 0
GlyphClass: 4
Flags: W
AnchorPoint: "Anchor-10" -345 30 mark 0
LayerCount: 2
Fore
SplineSet
-129 21 m 0,0,1
 -75 7 -75 7 -40 -28 c 0,2,3
 -27 -42 -27 -42 -22 -55 c 0,4,5
 13 -109 13 -109 13 -178 c 0,6,7
 13 -238 13 -238 -25 -304 c 0,8,9
 -63 -369 -63 -369 -134 -428 c 1,10,-1
 -132 -434 l 2,11,12
 -132 -436 -132 -436 -183 -497 c 0,13,14
 -208 -526 -208 -526 -208 -551 c 2,15,-1
 -208 -599 l 1,16,17
 -194 -618 -194 -618 -174 -618 c 0,18,19
 -162 -618 -162 -618 -141 -601 c 0,20,21
 -122 -585 -122 -585 -107 -558 c 1,22,-1
 -51 -569 l 1,23,24
 -71 -623 -71 -623 -97 -645 c 0,25,26
 -137 -679 -137 -679 -157 -680 c 0,27,28
 -227 -682 -227 -682 -261 -652 c 0,29,30
 -278 -637 -278 -637 -289 -588 c 0,31,32
 -301 -539 -301 -539 -293 -509 c 0,33,34
 -289 -494 -289 -494 -280 -484 c 2,35,-1
 -193 -376 l 2,36,37
 -164 -342 -164 -342 -90 -243 c 0,38,39
 -53 -193 -53 -193 -53 -141 c 0,40,41
 -53 -105 -53 -105 -72 -79 c 128,-1,42
 -91 -53 -91 -53 -119 -53 c 0,43,44
 -193 -53 -193 -53 -247 -116 c 0,45,46
 -302 -180 -302 -180 -310 -274 c 1,47,-1
 -391 -237 l 1,48,49
 -372 -163 -372 -163 -354 -127 c 1,50,51
 -378 -91 -378 -91 -412 -72 c 128,-1,52
 -446 -53 -446 -53 -479 -53 c 0,53,54
 -525 -53 -525 -53 -557 -90 c 0,55,56
 -590 -127 -590 -127 -590 -178 c 0,57,58
 -590 -246 -590 -246 -525 -323 c 128,-1,59
 -460 -400 -460 -400 -347 -465 c 1,60,-1
 -377 -509 l 1,61,62
 -516 -428 -516 -428 -597 -332 c 0,63,64
 -678 -235 -678 -235 -678 -149 c 0,65,66
 -678 -75 -678 -75 -624 -24 c 0,67,68
 -571 27 -571 27 -494 27 c 0,69,70
 -443 27 -443 27 -398 -0.5 c 128,-1,71
 -353 -28 -353 -28 -325 -75 c 1,72,73
 -294 -30 -294 -30 -255 -5 c 0,74,75
 -224 14 -224 14 -143 21 c 0,76,77
 -134 21 -134 21 -129 21 c 0,0,1
EndSplineSet
EndChar

StartChar: uni0963
Encoding: 2403 2403 195
Width: 0
GlyphClass: 4
Flags: W
AnchorPoint: "Anchor-10" -360 15 mark 0
LayerCount: 2
Fore
SplineSet
-128 13 m 0,0,1
 -54 -9 -54 -9 -38 -52 c 1,2,3
 -3 -105 -3 -105 -3 -174 c 0,4,5
 -3 -186 -3 -186 -4 -194 c 0,6,7
 -7 -228 -7 -228 -37 -274 c 0,8,9
 -42 -282 -42 -282 -48 -289 c 0,10,11
 -76 -323 -76 -323 -98 -333 c 0,12,13
 -129 -348 -129 -348 -129 -380 c 0,14,15
 -129 -400 -129 -400 -114 -415 c 128,-1,16
 -99 -430 -99 -430 -79 -430 c 0,17,18
 -49 -430 -49 -430 -33 -409 c 1,19,-1
 -10 -461 l 1,20,21
 -29 -484 -29 -484 -75 -484 c 1,22,23
 -85 -500 -85 -500 -85 -522 c 0,24,25
 -85 -540 -85 -540 -73 -552 c 128,-1,26
 -61 -564 -61 -564 -44 -564 c 0,27,28
 -9 -564 -9 -564 23 -537 c 1,29,-1
 45 -588 l 1,30,31
 5 -622 5 -622 -43 -622 c 0,32,33
 -80 -622 -80 -622 -110 -595 c 0,34,35
 -143 -566 -143 -566 -143 -522 c 0,36,37
 -143 -493 -143 -493 -130 -472 c 1,38,39
 -147 -465 -147 -465 -164 -444 c 0,40,41
 -186 -415 -186 -415 -186 -381 c 0,42,43
 -186 -344 -186 -344 -170 -325 c 2,44,-1
 -116 -257 l 2,45,46
 -113 -252 -113 -252 -109 -247 c 0,47,48
 -70 -187 -70 -187 -70 -137 c 0,49,50
 -70 -101 -70 -101 -89 -75 c 128,-1,51
 -108 -49 -108 -49 -136 -49 c 0,52,53
 -209 -49 -209 -49 -264 -113 c 0,54,55
 -318 -176 -318 -176 -327 -270 c 1,56,-1
 -408 -233 l 1,57,58
 -389 -160 -389 -160 -371 -123 c 1,59,60
 -394 -88 -394 -88 -428 -68 c 0,61,62
 -462 -49 -462 -49 -496 -49 c 0,63,64
 -541 -49 -541 -49 -574 -86 c 0,65,66
 -606 -123 -606 -123 -606 -174 c 0,67,68
 -606 -242 -606 -242 -541 -319 c 0,69,70
 -477 -396 -477 -396 -364 -461 c 1,71,-1
 -393 -505 l 1,72,73
 -533 -424 -533 -424 -613 -328 c 0,74,75
 -694 -231 -694 -231 -694 -145 c 0,76,77
 -694 -71 -694 -71 -641 -20 c 0,78,79
 -587 31 -587 31 -511 31 c 0,80,81
 -459 31 -459 31 -414 3.5 c 128,-1,82
 -369 -24 -369 -24 -342 -71 c 1,83,84
 -311 -26 -311 -26 -272 -1 c 0,85,86
 -258 7 -258 7 -229 13 c 0,87,88
 -167 25 -167 25 -128 13 c 0,0,1
EndSplineSet
EndChar

StartChar: uni0964
Encoding: 2404 2404 196
Width: 767
Flags: W
LayerCount: 2
Fore
SplineSet
570 -8 m 1,0,-1
 394 -8 l 1,1,-1
 394 1220 l 1,2,-1
 570 1220 l 1,3,-1
 570 -8 l 1,0,-1
EndSplineSet
EndChar

StartChar: uni0965
Encoding: 2405 2405 197
Width: 1200
Flags: W
LayerCount: 2
Fore
SplineSet
984 -7 m 1,0,-1
 808 -7 l 1,1,-1
 808 1220 l 1,2,-1
 984 1220 l 1,3,-1
 984 -7 l 1,0,-1
584 -7 m 1,4,-1
 408 -7 l 1,5,-1
 408 1220 l 1,6,-1
 584 1220 l 1,7,-1
 584 -7 l 1,4,-1
EndSplineSet
EndChar

StartChar: uni0966
Encoding: 2406 2406 198
Width: 696
Flags: W
LayerCount: 2
Fore
SplineSet
354 222 m 0,0,1
 241 222 241 222 160 296 c 0,2,3
 80 371 80 371 80 476 c 0,4,5
 80 600 80 600 172 705 c 128,-1,6
 264 810 264 810 374 810 c 0,7,8
 480 810 480 810 554 723 c 0,9,10
 629 637 629 637 629 516 c 0,11,12
 629 425 629 425 534 323 c 0,13,14
 439 222 439 222 354 222 c 0,0,1
384 329 m 0,15,16
 444 329 444 329 488 372 c 0,17,18
 531 416 531 416 531 476 c 0,19,20
 531 574 531 574 468 643 c 128,-1,21
 405 712 405 712 315 712 c 0,22,23
 258 712 258 712 218 666 c 0,24,25
 178 619 178 619 178 555 c 0,26,27
 178 461 178 461 239 395 c 0,28,29
 299 329 299 329 384 329 c 0,15,16
EndSplineSet
EndChar

StartChar: uni0967
Encoding: 2407 2407 199
Width: 698
Flags: W
LayerCount: 2
Fore
SplineSet
509 -145 m 1,0,-1
 421 -67 l 1,1,2
 448 -47 448 -47 464 -27 c 0,3,4
 480 -6 480 -6 480 12 c 0,5,6
 480 55 480 55 464 93 c 128,-1,7
 448 131 448 131 421 159 c 1,8,-1
 98 423 l 1,9,-1
 284 619 l 1,10,11
 182 690 182 690 125 757 c 0,12,13
 68 825 68 825 68 874 c 0,14,15
 68 954 68 954 126 1012 c 128,-1,16
 184 1070 184 1070 264 1070 c 0,17,18
 352 1070 352 1070 441 978 c 0,19,20
 529 886 529 886 529 796 c 0,21,22
 529 717 529 717 451 610 c 0,23,24
 374 502 374 502 235 384 c 1,25,-1
 460 188 l 2,26,27
 531 129 531 129 569 78 c 128,-1,28
 607 27 607 27 607 -8 c 0,29,30
 607 -49 607 -49 581 -86 c 0,31,32
 554 -124 554 -124 509 -145 c 1,0,-1
323 688 m 1,33,34
 370 727 370 727 395 776 c 0,35,36
 421 825 421 825 421 874 c 128,-1,37
 421 923 421 923 398 957 c 0,38,39
 376 992 376 992 343 992 c 0,40,41
 286 992 286 992 246 957 c 0,42,43
 205 923 205 923 205 874 c 128,-1,44
 205 825 205 825 237 776 c 0,45,46
 268 727 268 727 323 688 c 1,33,34
EndSplineSet
EndChar

StartChar: uni0968
Encoding: 2408 2408 200
Width: 665
Flags: W
LayerCount: 2
Fore
SplineSet
529 -86 m 1,0,-1
 303 355 l 1,1,2
 219 355 219 355 158 404 c 0,3,4
 98 453 98 453 98 521 c 0,5,6
 98 555 98 555 118 577 c 0,7,8
 139 600 139 600 166 600 c 0,9,10
 196 600 196 600 227 579 c 0,11,12
 258 559 258 559 284 521 c 1,13,14
 388 549 388 549 453 625 c 0,15,16
 519 702 519 702 519 796 c 0,17,18
 519 857 519 857 464 900 c 128,-1,19
 409 943 409 943 333 943 c 0,20,21
 276 943 276 943 220 925 c 0,22,23
 164 908 164 908 117 874 c 1,24,-1
 29 982 l 1,25,26
 80 1025 80 1025 141 1048 c 0,27,28
 201 1070 201 1070 264 1070 c 0,29,30
 380 1070 380 1070 498 952 c 0,31,32
 617 833 617 833 617 717 c 0,33,34
 617 612 617 612 544 519 c 0,35,36
 472 427 472 427 352 384 c 1,37,-1
 607 -57 l 1,38,-1
 529 -86 l 1,0,-1
EndSplineSet
EndChar

StartChar: uni0969
Encoding: 2409 2409 201
Width: 665
Flags: W
LayerCount: 2
Fore
SplineSet
479 -106 m 1,0,-1
 332 168 l 1,1,2
 248 168 248 168 187 217 c 128,-1,3
 126 266 126 266 126 335 c 0,4,5
 126 368 126 368 147 391 c 0,6,7
 167 413 167 413 195 413 c 0,8,9
 218 413 218 413 253 385 c 0,10,11
 287 357 287 357 322 306 c 1,12,13
 406 321 406 321 462 365 c 128,-1,14
 518 409 518 409 518 462 c 0,15,16
 518 504 518 504 492 544 c 0,17,18
 465 584 465 584 420 609 c 1,19,20
 348 590 348 590 273 590 c 0,21,22
 220 590 220 590 165 600 c 1,23,-1
 97 737 l 1,24,25
 240 737 240 737 352 717 c 1,26,27
 414 739 414 739 452 774 c 0,28,29
 489 809 489 809 489 845 c 0,30,31
 489 894 489 894 377 923 c 128,-1,32
 265 952 265 952 97 952 c 1,33,-1
 38 1070 l 1,34,-1
 214 1070 l 2,35,36
 338 1070 338 1070 462 978 c 0,37,38
 587 886 587 886 587 796 c 0,39,40
 587 747 587 747 558 702 c 0,41,42
 530 658 530 658 479 629 c 1,43,44
 550 570 550 570 588 516 c 128,-1,45
 626 462 626 462 626 423 c 0,46,47
 626 347 626 347 560 281 c 0,48,49
 495 215 495 215 391 188 c 1,50,-1
 557 -57 l 1,51,-1
 479 -106 l 1,0,-1
EndSplineSet
EndChar

StartChar: uni096A
Encoding: 2410 2410 202
Width: 917
Flags: W
LayerCount: 2
Fore
SplineSet
494 70 m 0,0,1
 394 70 394 70 317 148 c 0,2,3
 239 225 239 225 239 325 c 0,4,5
 239 359 239 359 280 416 c 0,6,7
 320 474 320 474 396 551 c 1,8,-1
 34 933 l 1,9,-1
 112 992 l 1,10,-1
 445 590 l 1,11,-1
 778 982 l 1,12,-1
 876 913 l 1,13,-1
 504 521 l 1,14,15
 598 443 598 443 649 368 c 0,16,17
 700 294 700 294 700 237 c 0,18,19
 700 168 700 168 639 119 c 128,-1,20
 578 70 578 70 494 70 c 0,0,1
426 159 m 0,21,22
 502 159 502 159 557 190 c 128,-1,23
 612 221 612 221 612 266 c 0,24,25
 612 300 612 300 577 353 c 0,26,27
 541 406 541 406 475 472 c 1,28,29
 400 409 400 409 359 351 c 0,30,31
 318 292 318 292 318 247 c 0,32,33
 318 210 318 210 349 184 c 0,34,35
 381 159 381 159 426 159 c 0,21,22
EndSplineSet
EndChar

StartChar: uni096B
Encoding: 2411 2411 203
Width: 848
Flags: W
LayerCount: 2
Fore
SplineSet
701 -96 m 1,0,-1
 544 404 l 1,1,2
 505 371 505 371 462 353 c 0,3,4
 419 336 419 336 378 336 c 0,5,6
 241 336 241 336 143 447 c 0,7,8
 45 559 45 559 45 718 c 0,9,10
 45 824 45 824 64 914 c 0,11,12
 84 1004 84 1004 123 1071 c 1,13,-1
 241 963 l 1,14,15
 192 904 192 904 165 811 c 0,16,17
 139 718 139 718 139 600 c 0,18,19
 139 536 139 536 186 489 c 0,20,21
 233 443 233 443 299 443 c 0,22,23
 343 443 343 443 388 466 c 0,24,25
 433 488 433 488 476 532 c 1,26,27
 462 539 462 539 454 555 c 128,-1,28
 446 571 446 571 446 590 c 0,29,30
 446 628 446 628 469 653 c 0,31,32
 491 679 491 679 525 679 c 0,33,34
 570 679 570 679 601 644 c 0,35,36
 633 610 633 610 633 561 c 0,37,38
 633 520 633 520 617 484 c 0,39,40
 601 447 601 447 574 424 c 1,41,-1
 789 -56 l 1,42,-1
 701 -96 l 1,0,-1
EndSplineSet
EndChar

StartChar: uni096C
Encoding: 2412 2412 204
Width: 664
Flags: W
LayerCount: 2
Fore
SplineSet
653 -66 m 1,0,-1
 535 188 l 1,1,2
 436 171 436 171 336 215 c 0,3,4
 286 237 286 237 236 275 c 0,5,6
 85 386 85 386 85 522 c 0,7,8
 85 563 85 563 110 605 c 0,9,10
 136 647 136 647 183 678 c 1,11,12
 114 718 114 718 75 780 c 0,13,14
 36 843 36 843 36 914 c 0,15,16
 36 978 36 978 119 1024 c 128,-1,17
 202 1070 202 1070 320 1070 c 0,18,19
 390 1070 390 1070 444 1066 c 0,20,21
 498 1061 498 1061 535 1051 c 1,22,-1
 575 933 l 1,23,24
 502 953 502 953 398 953 c 0,25,26
 300 953 300 953 232 918 c 0,27,28
 163 884 163 884 163 835 c 0,29,30
 163 796 163 796 187 764 c 0,31,32
 212 731 212 731 251 718 c 1,33,34
 324 737 324 737 418 737 c 1,35,36
 402 737 402 737 446 729 c 0,37,38
 468 724 468 724 506 718 c 1,39,-1
 545 600 l 1,40,41
 433 620 433 620 359 620 c 0,42,43
 290 620 290 620 241 574 c 0,44,45
 192 527 192 527 192 463 c 0,46,47
 192 390 192 390 247 338 c 128,-1,48
 302 286 302 286 379 286 c 0,49,50
 396 286 396 286 416 291 c 0,51,52
 435 296 435 296 457 306 c 1,53,54
 437 347 437 347 437 375 c 0,55,56
 437 402 437 402 466 423 c 0,57,58
 494 443 494 443 535 443 c 0,59,60
 569 443 569 443 611 401 c 128,-1,61
 653 359 653 359 653 326 c 0,62,63
 653 290 653 290 637 259 c 0,64,65
 622 228 622 228 594 208 c 1,66,-1
 731 -27 l 1,67,-1
 653 -66 l 1,0,-1
EndSplineSet
EndChar

StartChar: uni096D
Encoding: 2413 2413 205
Width: 899
Flags: W
LayerCount: 2
Fore
SplineSet
531 60 m 0,0,1
 327 60 327 60 184 324 c 0,2,3
 41 587 41 587 41 962 c 1,4,-1
 139 962 l 1,5,6
 125 883 125 883 125 776 c 0,7,8
 125 533 125 533 244 360 c 0,9,10
 363 188 363 188 531 188 c 0,11,12
 621 188 621 188 684 268 c 128,-1,13
 747 348 747 348 747 462 c 1,14,15
 719 438 719 438 691 426 c 0,16,17
 663 413 663 413 639 413 c 0,18,19
 561 413 561 413 482 501 c 0,20,21
 404 589 404 589 404 678 c 0,22,23
 404 746 404 746 447 795 c 128,-1,24
 490 844 490 844 551 844 c 0,25,26
 647 844 647 844 746 713 c 128,-1,27
 845 582 845 582 845 452 c 0,28,29
 845 290 845 290 753 175 c 0,30,31
 661 61 661 61 531 60 c 0,0,1
590 511 m 0,32,33
 617 511 617 511 656 534 c 0,34,35
 694 556 694 556 737 599 c 1,36,37
 725 664 725 664 687 705 c 128,-1,38
 649 746 649 746 600 746 c 0,39,40
 559 746 559 746 530 706 c 0,41,42
 502 666 502 666 502 609 c 0,43,44
 502 568 502 568 527 539 c 0,45,46
 553 511 553 511 590 511 c 0,32,33
EndSplineSet
EndChar

StartChar: uni096E
Encoding: 2414 2414 206
Width: 665
Flags: W
LayerCount: 2
Fore
SplineSet
384 36 m 0,0,1
 286 36 286 36 167 141 c 0,2,3
 49 246 49 246 31 350 c 0,4,5
 31 364 31 364 41 384 c 0,6,7
 51 405 51 405 70 428 c 2,8,-1
 541 1036 l 1,9,-1
 639 948 l 1,10,-1
 217 418 l 2,11,12
 194 389 194 389 181 354 c 0,13,14
 168 318 168 318 168 281 c 0,15,16
 168 220 168 220 223 177 c 128,-1,17
 278 134 278 134 355 134 c 0,18,19
 411 134 411 134 489 188 c 0,20,21
 566 242 566 242 649 340 c 1,22,-1
 737 262 l 1,23,24
 647 154 647 154 555 95 c 0,25,26
 463 37 463 37 384 36 c 0,0,1
EndSplineSet
EndChar

